<?xml version="1.0" encoding="utf-8"?>
<Project name="First_Year_Of_Desktop_Screenshots_(FPS0.33)" themeId="0" version="65540" templateID="SimpleProjectTemplate">
  <MediaItems>
    <MediaItem id="326" filePath="C:\Users\SeanPM\Desktop\My Life Story\My life story (Modern Journaling folder)\Milestone 4\Resources\Images\!!! all\daily desktop screenshots\First 365 days\daily desktop screenshot 328 March 10th 2019.png" arWidth="1365" arHeight="767" duration="0" songTitle="" songArtist="" songAlbum="" songCopyrightUrl="" songArtistUrl="" songAudioFileUrl="" stabilizationMode="0" mediaItemType="2" />
    <MediaItem id="163" filePath="C:\Users\SeanPM\Desktop\My Life Story\My life story (Modern Journaling folder)\Milestone 4\Resources\Images\!!! all\daily desktop screenshots\First 365 days\daily desktop screenshot 163 September 26th 2018.PNG" arWidth="1366" arHeight="768" duration="0" songTitle="" songArtist="" songAlbum="" songCopyrightUrl="" songArtistUrl="" songAudioFileUrl="" stabilizationMode="0" mediaItemType="2" />
    <MediaItem id="327" filePath="C:\Users\SeanPM\Desktop\My Life Story\My life story (Modern Journaling folder)\Milestone 4\Resources\Images\!!! all\daily desktop screenshots\First 365 days\daily desktop screenshot 329 March 11th 2019.png" arWidth="1365" arHeight="767" duration="0" songTitle="" songArtist="" songAlbum="" songCopyrightUrl="" songArtistUrl="" songAudioFileUrl="" stabilizationMode="0" mediaItemType="2" />
    <MediaItem id="164" filePath="C:\Users\SeanPM\Desktop\My Life Story\My life story (Modern Journaling folder)\Milestone 4\Resources\Images\!!! all\daily desktop screenshots\First 365 days\daily desktop screenshot 164 September 27th 2018.PNG" arWidth="1366" arHeight="768" duration="0" songTitle="" songArtist="" songAlbum="" songCopyrightUrl="" songArtistUrl="" songAudioFileUrl="" stabilizationMode="0" mediaItemType="2" />
    <MediaItem id="1" filePath="C:\Users\SeanPM\Desktop\My Life Story\My life story (Modern Journaling folder)\Milestone 4\Resources\Images\!!! all\daily desktop screenshots\First 365 days\daily desktop screenshot 1 april 17th 2018.PNG" arWidth="768" arHeight="432" duration="0" songTitle="" songArtist="" songAlbum="" songCopyrightUrl="" songArtistUrl="" songAudioFileUrl="" stabilizationMode="0" mediaItemType="2" />
    <MediaItem id="328" filePath="C:\Users\SeanPM\Desktop\My Life Story\My life story (Modern Journaling folder)\Milestone 4\Resources\Images\!!! all\daily desktop screenshots\First 365 days\daily desktop screenshot 330 March 12th 2019.png" arWidth="1365" arHeight="767" duration="0" songTitle="" songArtist="" songAlbum="" songCopyrightUrl="" songArtistUrl="" songAudioFileUrl="" stabilizationMode="0" mediaItemType="2" />
    <MediaItem id="165" filePath="C:\Users\SeanPM\Desktop\My Life Story\My life story (Modern Journaling folder)\Milestone 4\Resources\Images\!!! all\daily desktop screenshots\First 365 days\daily desktop screenshot 165 September 28th 2018.PNG" arWidth="1366" arHeight="768" duration="0" songTitle="" songArtist="" songAlbum="" songCopyrightUrl="" songArtistUrl="" songAudioFileUrl="" stabilizationMode="0" mediaItemType="2" />
    <MediaItem id="2" filePath="C:\Users\SeanPM\Desktop\My Life Story\My life story (Modern Journaling folder)\Milestone 4\Resources\Images\!!! all\daily desktop screenshots\First 365 days\daily desktop screenshot 2 april 18th 2018.PNG" arWidth="768" arHeight="432" duration="0" songTitle="" songArtist="" songAlbum="" songCopyrightUrl="" songArtistUrl="" songAudioFileUrl="" stabilizationMode="0" mediaItemType="2" />
    <MediaItem id="329" filePath="C:\Users\SeanPM\Desktop\My Life Story\My life story (Modern Journaling folder)\Milestone 4\Resources\Images\!!! all\daily desktop screenshots\First 365 days\daily desktop screenshot 331 March 13th 2019.png" arWidth="1365" arHeight="767" duration="0" songTitle="" songArtist="" songAlbum="" songCopyrightUrl="" songArtistUrl="" songAudioFileUrl="" stabilizationMode="0" mediaItemType="2" />
    <MediaItem id="166" filePath="C:\Users\SeanPM\Desktop\My Life Story\My life story (Modern Journaling folder)\Milestone 4\Resources\Images\!!! all\daily desktop screenshots\First 365 days\daily desktop screenshot 166 September 29th 2018.PNG" arWidth="1366" arHeight="768" duration="0" songTitle="" songArtist="" songAlbum="" songCopyrightUrl="" songArtistUrl="" songAudioFileUrl="" stabilizationMode="0" mediaItemType="2" />
    <MediaItem id="3" filePath="C:\Users\SeanPM\Desktop\My Life Story\My life story (Modern Journaling folder)\Milestone 4\Resources\Images\!!! all\daily desktop screenshots\First 365 days\daily desktop screenshot 3 april 19th 2018.PNG" arWidth="256" arHeight="144" duration="0" songTitle="" songArtist="" songAlbum="" songCopyrightUrl="" songArtistUrl="" songAudioFileUrl="" stabilizationMode="0" mediaItemType="2" />
    <MediaItem id="330" filePath="C:\Users\SeanPM\Desktop\My Life Story\My life story (Modern Journaling folder)\Milestone 4\Resources\Images\!!! all\daily desktop screenshots\First 365 days\daily desktop screenshot 332 March 14th 2019.png" arWidth="1365" arHeight="767" duration="0" songTitle="" songArtist="" songAlbum="" songCopyrightUrl="" songArtistUrl="" songAudioFileUrl="" stabilizationMode="0" mediaItemType="2" />
    <MediaItem id="167" filePath="C:\Users\SeanPM\Desktop\My Life Story\My life story (Modern Journaling folder)\Milestone 4\Resources\Images\!!! all\daily desktop screenshots\First 365 days\daily desktop screenshot 167 September 30th 2018.PNG" arWidth="1366" arHeight="768" duration="0" songTitle="" songArtist="" songAlbum="" songCopyrightUrl="" songArtistUrl="" songAudioFileUrl="" stabilizationMode="0" mediaItemType="2" />
    <MediaItem id="4" filePath="C:\Users\SeanPM\Desktop\My Life Story\My life story (Modern Journaling folder)\Milestone 4\Resources\Images\!!! all\daily desktop screenshots\First 365 days\daily desktop screenshot 4 april 20th 2018.PNG" arWidth="256" arHeight="144" duration="0" songTitle="" songArtist="" songAlbum="" songCopyrightUrl="" songArtistUrl="" songAudioFileUrl="" stabilizationMode="0" mediaItemType="2" />
    <MediaItem id="331" filePath="C:\Users\SeanPM\Desktop\My Life Story\My life story (Modern Journaling folder)\Milestone 4\Resources\Images\!!! all\daily desktop screenshots\First 365 days\daily desktop screenshot 333 March 15th 2019.png" arWidth="1365" arHeight="767" duration="0" songTitle="" songArtist="" songAlbum="" songCopyrightUrl="" songArtistUrl="" songAudioFileUrl="" stabilizationMode="0" mediaItemType="2" />
    <MediaItem id="168" filePath="C:\Users\SeanPM\Desktop\My Life Story\My life story (Modern Journaling folder)\Milestone 4\Resources\Images\!!! all\daily desktop screenshots\First 365 days\daily desktop screenshot 168 October 1st 2018.PNG" arWidth="1366" arHeight="768" duration="0" songTitle="" songArtist="" songAlbum="" songCopyrightUrl="" songArtistUrl="" songAudioFileUrl="" stabilizationMode="0" mediaItemType="2" />
    <MediaItem id="5" filePath="C:\Users\SeanPM\Desktop\My Life Story\My life story (Modern Journaling folder)\Milestone 4\Resources\Images\!!! all\daily desktop screenshots\First 365 days\daily desktop screenshot 5 april 21st 2018.PNG" arWidth="1366" arHeight="768" duration="0" songTitle="" songArtist="" songAlbum="" songCopyrightUrl="" songArtistUrl="" songAudioFileUrl="" stabilizationMode="0" mediaItemType="2" />
    <MediaItem id="332" filePath="C:\Users\SeanPM\Desktop\My Life Story\My life story (Modern Journaling folder)\Milestone 4\Resources\Images\!!! all\daily desktop screenshots\First 365 days\daily desktop screenshot 334 March 16th 2019.png" arWidth="1365" arHeight="767" duration="0" songTitle="" songArtist="" songAlbum="" songCopyrightUrl="" songArtistUrl="" songAudioFileUrl="" stabilizationMode="0" mediaItemType="2" />
    <MediaItem id="169" filePath="C:\Users\SeanPM\Desktop\My Life Story\My life story (Modern Journaling folder)\Milestone 4\Resources\Images\!!! all\daily desktop screenshots\First 365 days\daily desktop screenshot 169 October 2nd 2018.PNG" arWidth="1366" arHeight="768" duration="0" songTitle="" songArtist="" songAlbum="" songCopyrightUrl="" songArtistUrl="" songAudioFileUrl="" stabilizationMode="0" mediaItemType="2" />
    <MediaItem id="6" filePath="C:\Users\SeanPM\Desktop\My Life Story\My life story (Modern Journaling folder)\Milestone 4\Resources\Images\!!! all\daily desktop screenshots\First 365 days\daily desktop screenshot 6 april 22nd 2018.PNG" arWidth="1366" arHeight="768" duration="0" songTitle="" songArtist="" songAlbum="" songCopyrightUrl="" songArtistUrl="" songAudioFileUrl="" stabilizationMode="0" mediaItemType="2" />
    <MediaItem id="333" filePath="C:\Users\SeanPM\Desktop\My Life Story\My life story (Modern Journaling folder)\Milestone 4\Resources\Images\!!! all\daily desktop screenshots\First 365 days\daily desktop screenshot 335 March 17th 2019.png" arWidth="1365" arHeight="767" duration="0" songTitle="" songArtist="" songAlbum="" songCopyrightUrl="" songArtistUrl="" songAudioFileUrl="" stabilizationMode="0" mediaItemType="2" />
    <MediaItem id="170" filePath="C:\Users\SeanPM\Desktop\My Life Story\My life story (Modern Journaling folder)\Milestone 4\Resources\Images\!!! all\daily desktop screenshots\First 365 days\daily desktop screenshot 170 October 3rd 2018.PNG" arWidth="1366" arHeight="768" duration="0" songTitle="" songArtist="" songAlbum="" songCopyrightUrl="" songArtistUrl="" songAudioFileUrl="" stabilizationMode="0" mediaItemType="2" />
    <MediaItem id="7" filePath="C:\Users\SeanPM\Desktop\My Life Story\My life story (Modern Journaling folder)\Milestone 4\Resources\Images\!!! all\daily desktop screenshots\First 365 days\daily desktop screenshot 7 april 23rd 2018.PNG" arWidth="1366" arHeight="768" duration="0" songTitle="" songArtist="" songAlbum="" songCopyrightUrl="" songArtistUrl="" songAudioFileUrl="" stabilizationMode="0" mediaItemType="2" />
    <MediaItem id="334" filePath="C:\Users\SeanPM\Desktop\My Life Story\My life story (Modern Journaling folder)\Milestone 4\Resources\Images\!!! all\daily desktop screenshots\First 365 days\daily desktop screenshot 336 March 18th 2019.png" arWidth="1365" arHeight="767" duration="0" songTitle="" songArtist="" songAlbum="" songCopyrightUrl="" songArtistUrl="" songAudioFileUrl="" stabilizationMode="0" mediaItemType="2" />
    <MediaItem id="171" filePath="C:\Users\SeanPM\Desktop\My Life Story\My life story (Modern Journaling folder)\Milestone 4\Resources\Images\!!! all\daily desktop screenshots\First 365 days\daily desktop screenshot 171 October 4th 2018.PNG" arWidth="1366" arHeight="768" duration="0" songTitle="" songArtist="" songAlbum="" songCopyrightUrl="" songArtistUrl="" songAudioFileUrl="" stabilizationMode="0" mediaItemType="2" />
    <MediaItem id="8" filePath="C:\Users\SeanPM\Desktop\My Life Story\My life story (Modern Journaling folder)\Milestone 4\Resources\Images\!!! all\daily desktop screenshots\First 365 days\daily desktop screenshot 8 april 24th 2018.PNG" arWidth="1366" arHeight="768" duration="0" songTitle="" songArtist="" songAlbum="" songCopyrightUrl="" songArtistUrl="" songAudioFileUrl="" stabilizationMode="0" mediaItemType="2" />
    <MediaItem id="335" filePath="C:\Users\SeanPM\Desktop\My Life Story\My life story (Modern Journaling folder)\Milestone 4\Resources\Images\!!! all\daily desktop screenshots\First 365 days\daily desktop screenshot 337 March 19th 2019.png" arWidth="1365" arHeight="767" duration="0" songTitle="" songArtist="" songAlbum="" songCopyrightUrl="" songArtistUrl="" songAudioFileUrl="" stabilizationMode="0" mediaItemType="2" />
    <MediaItem id="172" filePath="C:\Users\SeanPM\Desktop\My Life Story\My life story (Modern Journaling folder)\Milestone 4\Resources\Images\!!! all\daily desktop screenshots\First 365 days\daily desktop screenshot 172 October 5th 2018.PNG" arWidth="1366" arHeight="768" duration="0" songTitle="" songArtist="" songAlbum="" songCopyrightUrl="" songArtistUrl="" songAudioFileUrl="" stabilizationMode="0" mediaItemType="2" />
    <MediaItem id="9" filePath="C:\Users\SeanPM\Desktop\My Life Story\My life story (Modern Journaling folder)\Milestone 4\Resources\Images\!!! all\daily desktop screenshots\First 365 days\daily desktop screenshot 9 april 25th 2018.PNG" arWidth="1366" arHeight="768" duration="0" songTitle="" songArtist="" songAlbum="" songCopyrightUrl="" songArtistUrl="" songAudioFileUrl="" stabilizationMode="0" mediaItemType="2" />
    <MediaItem id="336" filePath="C:\Users\SeanPM\Desktop\My Life Story\My life story (Modern Journaling folder)\Milestone 4\Resources\Images\!!! all\daily desktop screenshots\First 365 days\daily desktop screenshot 338 March 20th 2019.png" arWidth="1365" arHeight="767" duration="0" songTitle="" songArtist="" songAlbum="" songCopyrightUrl="" songArtistUrl="" songAudioFileUrl="" stabilizationMode="0" mediaItemType="2" />
    <MediaItem id="173" filePath="C:\Users\SeanPM\Desktop\My Life Story\My life story (Modern Journaling folder)\Milestone 4\Resources\Images\!!! all\daily desktop screenshots\First 365 days\daily desktop screenshot 173 October 6th 2018.PNG" arWidth="1366" arHeight="768" duration="0" songTitle="" songArtist="" songAlbum="" songCopyrightUrl="" songArtistUrl="" songAudioFileUrl="" stabilizationMode="0" mediaItemType="2" />
    <MediaItem id="10" filePath="C:\Users\SeanPM\Desktop\My Life Story\My life story (Modern Journaling folder)\Milestone 4\Resources\Images\!!! all\daily desktop screenshots\First 365 days\daily desktop screenshot 10 april 26th 2018.PNG" arWidth="1366" arHeight="768" duration="0" songTitle="" songArtist="" songAlbum="" songCopyrightUrl="" songArtistUrl="" songAudioFileUrl="" stabilizationMode="0" mediaItemType="2" />
    <MediaItem id="337" filePath="C:\Users\SeanPM\Desktop\My Life Story\My life story (Modern Journaling folder)\Milestone 4\Resources\Images\!!! all\daily desktop screenshots\First 365 days\daily desktop screenshot 339 March 21st 2019.png" arWidth="1365" arHeight="767" duration="0" songTitle="" songArtist="" songAlbum="" songCopyrightUrl="" songArtistUrl="" songAudioFileUrl="" stabilizationMode="0" mediaItemType="2" />
    <MediaItem id="174" filePath="C:\Users\SeanPM\Desktop\My Life Story\My life story (Modern Journaling folder)\Milestone 4\Resources\Images\!!! all\daily desktop screenshots\First 365 days\daily desktop screenshot 174 October 7th 2018.PNG" arWidth="1366" arHeight="768" duration="0" songTitle="" songArtist="" songAlbum="" songCopyrightUrl="" songArtistUrl="" songAudioFileUrl="" stabilizationMode="0" mediaItemType="2" />
    <MediaItem id="11" filePath="C:\Users\SeanPM\Desktop\My Life Story\My life story (Modern Journaling folder)\Milestone 4\Resources\Images\!!! all\daily desktop screenshots\First 365 days\daily desktop screenshot 11 april 27th 2018.PNG" arWidth="1366" arHeight="768" duration="0" songTitle="" songArtist="" songAlbum="" songCopyrightUrl="" songArtistUrl="" songAudioFileUrl="" stabilizationMode="0" mediaItemType="2" />
    <MediaItem id="338" filePath="C:\Users\SeanPM\Desktop\My Life Story\My life story (Modern Journaling folder)\Milestone 4\Resources\Images\!!! all\daily desktop screenshots\First 365 days\daily desktop screenshot 340 March 22nd 2019.png" arWidth="1365" arHeight="767" duration="0" songTitle="" songArtist="" songAlbum="" songCopyrightUrl="" songArtistUrl="" songAudioFileUrl="" stabilizationMode="0" mediaItemType="2" />
    <MediaItem id="175" filePath="C:\Users\SeanPM\Desktop\My Life Story\My life story (Modern Journaling folder)\Milestone 4\Resources\Images\!!! all\daily desktop screenshots\First 365 days\daily desktop screenshot 175 October 8th 2018.PNG" arWidth="1366" arHeight="768" duration="0" songTitle="" songArtist="" songAlbum="" songCopyrightUrl="" songArtistUrl="" songAudioFileUrl="" stabilizationMode="0" mediaItemType="2" />
    <MediaItem id="12" filePath="C:\Users\SeanPM\Desktop\My Life Story\My life story (Modern Journaling folder)\Milestone 4\Resources\Images\!!! all\daily desktop screenshots\First 365 days\daily desktop screenshot 12 april 28th 2018.PNG" arWidth="1366" arHeight="768" duration="0" songTitle="" songArtist="" songAlbum="" songCopyrightUrl="" songArtistUrl="" songAudioFileUrl="" stabilizationMode="0" mediaItemType="2" />
    <MediaItem id="339" filePath="C:\Users\SeanPM\Desktop\My Life Story\My life story (Modern Journaling folder)\Milestone 4\Resources\Images\!!! all\daily desktop screenshots\First 365 days\daily desktop screenshot 341 March 23rd 2019.png" arWidth="1365" arHeight="766" duration="0" songTitle="" songArtist="" songAlbum="" songCopyrightUrl="" songArtistUrl="" songAudioFileUrl="" stabilizationMode="0" mediaItemType="2" />
    <MediaItem id="176" filePath="C:\Users\SeanPM\Desktop\My Life Story\My life story (Modern Journaling folder)\Milestone 4\Resources\Images\!!! all\daily desktop screenshots\First 365 days\daily desktop screenshot 176 October 9th 2018.PNG" arWidth="1366" arHeight="767" duration="0" songTitle="" songArtist="" songAlbum="" songCopyrightUrl="" songArtistUrl="" songAudioFileUrl="" stabilizationMode="0" mediaItemType="2" />
    <MediaItem id="13" filePath="C:\Users\SeanPM\Desktop\My Life Story\My life story (Modern Journaling folder)\Milestone 4\Resources\Images\!!! all\daily desktop screenshots\First 365 days\daily desktop screenshot 13 april 29th 2018.PNG" arWidth="1366" arHeight="768" duration="0" songTitle="" songArtist="" songAlbum="" songCopyrightUrl="" songArtistUrl="" songAudioFileUrl="" stabilizationMode="0" mediaItemType="2" />
    <MediaItem id="340" filePath="C:\Users\SeanPM\Desktop\My Life Story\My life story (Modern Journaling folder)\Milestone 4\Resources\Images\!!! all\daily desktop screenshots\First 365 days\daily desktop screenshot 342 March 24th 2019.png" arWidth="1365" arHeight="767" duration="0" songTitle="" songArtist="" songAlbum="" songCopyrightUrl="" songArtistUrl="" songAudioFileUrl="" stabilizationMode="0" mediaItemType="2" />
    <MediaItem id="177" filePath="C:\Users\SeanPM\Desktop\My Life Story\My life story (Modern Journaling folder)\Milestone 4\Resources\Images\!!! all\daily desktop screenshots\First 365 days\daily desktop screenshot 177 October 10th 2018.PNG" arWidth="1366" arHeight="768" duration="0" songTitle="" songArtist="" songAlbum="" songCopyrightUrl="" songArtistUrl="" songAudioFileUrl="" stabilizationMode="0" mediaItemType="2" />
    <MediaItem id="14" filePath="C:\Users\SeanPM\Desktop\My Life Story\My life story (Modern Journaling folder)\Milestone 4\Resources\Images\!!! all\daily desktop screenshots\First 365 days\daily desktop screenshot 14 april 30th 2018.PNG" arWidth="1366" arHeight="768" duration="0" songTitle="" songArtist="" songAlbum="" songCopyrightUrl="" songArtistUrl="" songAudioFileUrl="" stabilizationMode="0" mediaItemType="2" />
    <MediaItem id="341" filePath="C:\Users\SeanPM\Desktop\My Life Story\My life story (Modern Journaling folder)\Milestone 4\Resources\Images\!!! all\daily desktop screenshots\First 365 days\daily desktop screenshot 343 March 25th 2019.png" arWidth="1365" arHeight="767" duration="0" songTitle="" songArtist="" songAlbum="" songCopyrightUrl="" songArtistUrl="" songAudioFileUrl="" stabilizationMode="0" mediaItemType="2" />
    <MediaItem id="178" filePath="C:\Users\SeanPM\Desktop\My Life Story\My life story (Modern Journaling folder)\Milestone 4\Resources\Images\!!! all\daily desktop screenshots\First 365 days\daily desktop screenshot 178 October 11th 2018.PNG" arWidth="1366" arHeight="768" duration="0" songTitle="" songArtist="" songAlbum="" songCopyrightUrl="" songArtistUrl="" songAudioFileUrl="" stabilizationMode="0" mediaItemType="2" />
    <MediaItem id="15" filePath="C:\Users\SeanPM\Desktop\My Life Story\My life story (Modern Journaling folder)\Milestone 4\Resources\Images\!!! all\daily desktop screenshots\First 365 days\daily desktop screenshot 15 may 1st 2018.PNG" arWidth="1366" arHeight="768" duration="0" songTitle="" songArtist="" songAlbum="" songCopyrightUrl="" songArtistUrl="" songAudioFileUrl="" stabilizationMode="0" mediaItemType="2" />
    <MediaItem id="342" filePath="C:\Users\SeanPM\Desktop\My Life Story\My life story (Modern Journaling folder)\Milestone 4\Resources\Images\!!! all\daily desktop screenshots\First 365 days\daily desktop screenshot 344 March 26th 2019.png" arWidth="1365" arHeight="767" duration="0" songTitle="" songArtist="" songAlbum="" songCopyrightUrl="" songArtistUrl="" songAudioFileUrl="" stabilizationMode="0" mediaItemType="2" />
    <MediaItem id="179" filePath="C:\Users\SeanPM\Desktop\My Life Story\My life story (Modern Journaling folder)\Milestone 4\Resources\Images\!!! all\daily desktop screenshots\First 365 days\daily desktop screenshot 179 October 12th 2018.PNG" arWidth="1366" arHeight="768" duration="0" songTitle="" songArtist="" songAlbum="" songCopyrightUrl="" songArtistUrl="" songAudioFileUrl="" stabilizationMode="0" mediaItemType="2" />
    <MediaItem id="16" filePath="C:\Users\SeanPM\Desktop\My Life Story\My life story (Modern Journaling folder)\Milestone 4\Resources\Images\!!! all\daily desktop screenshots\First 365 days\daily desktop screenshot 16 may 2nd 2018.PNG" arWidth="1366" arHeight="768" duration="0" songTitle="" songArtist="" songAlbum="" songCopyrightUrl="" songArtistUrl="" songAudioFileUrl="" stabilizationMode="0" mediaItemType="2" />
    <MediaItem id="343" filePath="C:\Users\SeanPM\Desktop\My Life Story\My life story (Modern Journaling folder)\Milestone 4\Resources\Images\!!! all\daily desktop screenshots\First 365 days\daily desktop screenshot 345 March 27th 2019.png" arWidth="1365" arHeight="767" duration="0" songTitle="" songArtist="" songAlbum="" songCopyrightUrl="" songArtistUrl="" songAudioFileUrl="" stabilizationMode="0" mediaItemType="2" />
    <MediaItem id="180" filePath="C:\Users\SeanPM\Desktop\My Life Story\My life story (Modern Journaling folder)\Milestone 4\Resources\Images\!!! all\daily desktop screenshots\First 365 days\daily desktop screenshot 180 October 13th 2018.PNG" arWidth="1366" arHeight="768" duration="0" songTitle="" songArtist="" songAlbum="" songCopyrightUrl="" songArtistUrl="" songAudioFileUrl="" stabilizationMode="0" mediaItemType="2" />
    <MediaItem id="17" filePath="C:\Users\SeanPM\Desktop\My Life Story\My life story (Modern Journaling folder)\Milestone 4\Resources\Images\!!! all\daily desktop screenshots\First 365 days\daily desktop screenshot 17 may 3rd 2018.PNG" arWidth="1366" arHeight="768" duration="0" songTitle="" songArtist="" songAlbum="" songCopyrightUrl="" songArtistUrl="" songAudioFileUrl="" stabilizationMode="0" mediaItemType="2" />
    <MediaItem id="344" filePath="C:\Users\SeanPM\Desktop\My Life Story\My life story (Modern Journaling folder)\Milestone 4\Resources\Images\!!! all\daily desktop screenshots\First 365 days\daily desktop screenshot 346 March 28th 2019.png" arWidth="1365" arHeight="767" duration="0" songTitle="" songArtist="" songAlbum="" songCopyrightUrl="" songArtistUrl="" songAudioFileUrl="" stabilizationMode="0" mediaItemType="2" />
    <MediaItem id="181" filePath="C:\Users\SeanPM\Desktop\My Life Story\My life story (Modern Journaling folder)\Milestone 4\Resources\Images\!!! all\daily desktop screenshots\First 365 days\daily desktop screenshot 181 October 14th 2018.PNG" arWidth="1366" arHeight="768" duration="0" songTitle="" songArtist="" songAlbum="" songCopyrightUrl="" songArtistUrl="" songAudioFileUrl="" stabilizationMode="0" mediaItemType="2" />
    <MediaItem id="18" filePath="C:\Users\SeanPM\Desktop\My Life Story\My life story (Modern Journaling folder)\Milestone 4\Resources\Images\!!! all\daily desktop screenshots\First 365 days\daily desktop screenshot 18 may 4th 2018.PNG" arWidth="1366" arHeight="768" duration="0" songTitle="" songArtist="" songAlbum="" songCopyrightUrl="" songArtistUrl="" songAudioFileUrl="" stabilizationMode="0" mediaItemType="2" />
    <MediaItem id="345" filePath="C:\Users\SeanPM\Desktop\My Life Story\My life story (Modern Journaling folder)\Milestone 4\Resources\Images\!!! all\daily desktop screenshots\First 365 days\daily desktop screenshot 347 March 29th 2019.png" arWidth="1365" arHeight="767" duration="0" songTitle="" songArtist="" songAlbum="" songCopyrightUrl="" songArtistUrl="" songAudioFileUrl="" stabilizationMode="0" mediaItemType="2" />
    <MediaItem id="182" filePath="C:\Users\SeanPM\Desktop\My Life Story\My life story (Modern Journaling folder)\Milestone 4\Resources\Images\!!! all\daily desktop screenshots\First 365 days\daily desktop screenshot 182 October 15th 2018.PNG" arWidth="1366" arHeight="768" duration="0" songTitle="" songArtist="" songAlbum="" songCopyrightUrl="" songArtistUrl="" songAudioFileUrl="" stabilizationMode="0" mediaItemType="2" />
    <MediaItem id="19" filePath="C:\Users\SeanPM\Desktop\My Life Story\My life story (Modern Journaling folder)\Milestone 4\Resources\Images\!!! all\daily desktop screenshots\First 365 days\daily desktop screenshot 19 may 5th 2018.PNG" arWidth="1366" arHeight="768" duration="0" songTitle="" songArtist="" songAlbum="" songCopyrightUrl="" songArtistUrl="" songAudioFileUrl="" stabilizationMode="0" mediaItemType="2" />
    <MediaItem id="346" filePath="C:\Users\SeanPM\Desktop\My Life Story\My life story (Modern Journaling folder)\Milestone 4\Resources\Images\!!! all\daily desktop screenshots\First 365 days\daily desktop screenshot 348 March 30th 2019.png" arWidth="1365" arHeight="767" duration="0" songTitle="" songArtist="" songAlbum="" songCopyrightUrl="" songArtistUrl="" songAudioFileUrl="" stabilizationMode="0" mediaItemType="2" />
    <MediaItem id="183" filePath="C:\Users\SeanPM\Desktop\My Life Story\My life story (Modern Journaling folder)\Milestone 4\Resources\Images\!!! all\daily desktop screenshots\First 365 days\daily desktop screenshot 183 October 16th 2018.PNG" arWidth="1366" arHeight="768" duration="0" songTitle="" songArtist="" songAlbum="" songCopyrightUrl="" songArtistUrl="" songAudioFileUrl="" stabilizationMode="0" mediaItemType="2" />
    <MediaItem id="20" filePath="C:\Users\SeanPM\Desktop\My Life Story\My life story (Modern Journaling folder)\Milestone 4\Resources\Images\!!! all\daily desktop screenshots\First 365 days\daily desktop screenshot 20 may 6th 2018.PNG" arWidth="1366" arHeight="768" duration="0" songTitle="" songArtist="" songAlbum="" songCopyrightUrl="" songArtistUrl="" songAudioFileUrl="" stabilizationMode="0" mediaItemType="2" />
    <MediaItem id="347" filePath="C:\Users\SeanPM\Desktop\My Life Story\My life story (Modern Journaling folder)\Milestone 4\Resources\Images\!!! all\daily desktop screenshots\First 365 days\daily desktop screenshot 349 March 31st 2019.png" arWidth="1365" arHeight="767" duration="0" songTitle="" songArtist="" songAlbum="" songCopyrightUrl="" songArtistUrl="" songAudioFileUrl="" stabilizationMode="0" mediaItemType="2" />
    <MediaItem id="184" filePath="C:\Users\SeanPM\Desktop\My Life Story\My life story (Modern Journaling folder)\Milestone 4\Resources\Images\!!! all\daily desktop screenshots\First 365 days\daily desktop screenshot 184 October 17th 2018.PNG" arWidth="1365" arHeight="768" duration="0" songTitle="" songArtist="" songAlbum="" songCopyrightUrl="" songArtistUrl="" songAudioFileUrl="" stabilizationMode="0" mediaItemType="2" />
    <MediaItem id="21" filePath="C:\Users\SeanPM\Desktop\My Life Story\My life story (Modern Journaling folder)\Milestone 4\Resources\Images\!!! all\daily desktop screenshots\First 365 days\daily desktop screenshot 21 may 7th 2018.PNG" arWidth="1366" arHeight="768" duration="0" songTitle="" songArtist="" songAlbum="" songCopyrightUrl="" songArtistUrl="" songAudioFileUrl="" stabilizationMode="0" mediaItemType="2" />
    <MediaItem id="348" filePath="C:\Users\SeanPM\Desktop\My Life Story\My life story (Modern Journaling folder)\Milestone 4\Resources\Images\!!! all\daily desktop screenshots\First 365 days\daily desktop screenshot 350 April 1st 2019.png" arWidth="1365" arHeight="767" duration="0" songTitle="" songArtist="" songAlbum="" songCopyrightUrl="" songArtistUrl="" songAudioFileUrl="" stabilizationMode="0" mediaItemType="2" />
    <MediaItem id="185" filePath="C:\Users\SeanPM\Desktop\My Life Story\My life story (Modern Journaling folder)\Milestone 4\Resources\Images\!!! all\daily desktop screenshots\First 365 days\daily desktop screenshot 185 October 18th 2018.PNG" arWidth="1366" arHeight="770" duration="0" songTitle="" songArtist="" songAlbum="" songCopyrightUrl="" songArtistUrl="" songAudioFileUrl="" stabilizationMode="0" mediaItemType="2" />
    <MediaItem id="22" filePath="C:\Users\SeanPM\Desktop\My Life Story\My life story (Modern Journaling folder)\Milestone 4\Resources\Images\!!! all\daily desktop screenshots\First 365 days\daily desktop screenshot 22 may 8th 2018.PNG" arWidth="1366" arHeight="768" duration="0" songTitle="" songArtist="" songAlbum="" songCopyrightUrl="" songArtistUrl="" songAudioFileUrl="" stabilizationMode="0" mediaItemType="2" />
    <MediaItem id="349" filePath="C:\Users\SeanPM\Desktop\My Life Story\My life story (Modern Journaling folder)\Milestone 4\Resources\Images\!!! all\daily desktop screenshots\First 365 days\daily desktop screenshot 351 April 2nd 2019.png" arWidth="1365" arHeight="764" duration="0" songTitle="" songArtist="" songAlbum="" songCopyrightUrl="" songArtistUrl="" songAudioFileUrl="" stabilizationMode="0" mediaItemType="2" />
    <MediaItem id="186" filePath="C:\Users\SeanPM\Desktop\My Life Story\My life story (Modern Journaling folder)\Milestone 4\Resources\Images\!!! all\daily desktop screenshots\First 365 days\daily desktop screenshot 186 October 19th 2018.PNG" arWidth="1366" arHeight="768" duration="0" songTitle="" songArtist="" songAlbum="" songCopyrightUrl="" songArtistUrl="" songAudioFileUrl="" stabilizationMode="0" mediaItemType="2" />
    <MediaItem id="23" filePath="C:\Users\SeanPM\Desktop\My Life Story\My life story (Modern Journaling folder)\Milestone 4\Resources\Images\!!! all\daily desktop screenshots\First 365 days\daily desktop screenshot 23 may 9th 2018.PNG" arWidth="1366" arHeight="768" duration="0" songTitle="" songArtist="" songAlbum="" songCopyrightUrl="" songArtistUrl="" songAudioFileUrl="" stabilizationMode="0" mediaItemType="2" />
    <MediaItem id="350" filePath="C:\Users\SeanPM\Desktop\My Life Story\My life story (Modern Journaling folder)\Milestone 4\Resources\Images\!!! all\daily desktop screenshots\First 365 days\daily desktop screenshot 352 April 3rd 2019.png" arWidth="1365" arHeight="767" duration="0" songTitle="" songArtist="" songAlbum="" songCopyrightUrl="" songArtistUrl="" songAudioFileUrl="" stabilizationMode="0" mediaItemType="2" />
    <MediaItem id="187" filePath="C:\Users\SeanPM\Desktop\My Life Story\My life story (Modern Journaling folder)\Milestone 4\Resources\Images\!!! all\daily desktop screenshots\First 365 days\daily desktop screenshot 187 October 20th 2018.PNG" arWidth="1366" arHeight="768" duration="0" songTitle="" songArtist="" songAlbum="" songCopyrightUrl="" songArtistUrl="" songAudioFileUrl="" stabilizationMode="0" mediaItemType="2" />
    <MediaItem id="24" filePath="C:\Users\SeanPM\Desktop\My Life Story\My life story (Modern Journaling folder)\Milestone 4\Resources\Images\!!! all\daily desktop screenshots\First 365 days\daily desktop screenshot 24 may 10th 2018.PNG" arWidth="1366" arHeight="768" duration="0" songTitle="" songArtist="" songAlbum="" songCopyrightUrl="" songArtistUrl="" songAudioFileUrl="" stabilizationMode="0" mediaItemType="2" />
    <MediaItem id="351" filePath="C:\Users\SeanPM\Desktop\My Life Story\My life story (Modern Journaling folder)\Milestone 4\Resources\Images\!!! all\daily desktop screenshots\First 365 days\daily desktop screenshot 353 April 4th 2019.png" arWidth="1365" arHeight="767" duration="0" songTitle="" songArtist="" songAlbum="" songCopyrightUrl="" songArtistUrl="" songAudioFileUrl="" stabilizationMode="0" mediaItemType="2" />
    <MediaItem id="188" filePath="C:\Users\SeanPM\Desktop\My Life Story\My life story (Modern Journaling folder)\Milestone 4\Resources\Images\!!! all\daily desktop screenshots\First 365 days\daily desktop screenshot 188 October 21st 2018.PNG" arWidth="1366" arHeight="768" duration="0" songTitle="" songArtist="" songAlbum="" songCopyrightUrl="" songArtistUrl="" songAudioFileUrl="" stabilizationMode="0" mediaItemType="2" />
    <MediaItem id="25" filePath="C:\Users\SeanPM\Desktop\My Life Story\My life story (Modern Journaling folder)\Milestone 4\Resources\Images\!!! all\daily desktop screenshots\First 365 days\daily desktop screenshot 25 may 11th 2018.PNG" arWidth="1366" arHeight="768" duration="0" songTitle="" songArtist="" songAlbum="" songCopyrightUrl="" songArtistUrl="" songAudioFileUrl="" stabilizationMode="0" mediaItemType="2" />
    <MediaItem id="352" filePath="C:\Users\SeanPM\Desktop\My Life Story\My life story (Modern Journaling folder)\Milestone 4\Resources\Images\!!! all\daily desktop screenshots\First 365 days\daily desktop screenshot 354 April 5th 2019.png" arWidth="1365" arHeight="767" duration="0" songTitle="" songArtist="" songAlbum="" songCopyrightUrl="" songArtistUrl="" songAudioFileUrl="" stabilizationMode="0" mediaItemType="2" />
    <MediaItem id="189" filePath="C:\Users\SeanPM\Desktop\My Life Story\My life story (Modern Journaling folder)\Milestone 4\Resources\Images\!!! all\daily desktop screenshots\First 365 days\daily desktop screenshot 189 October 22nd 2018.PNG" arWidth="1366" arHeight="768" duration="0" songTitle="" songArtist="" songAlbum="" songCopyrightUrl="" songArtistUrl="" songAudioFileUrl="" stabilizationMode="0" mediaItemType="2" />
    <MediaItem id="26" filePath="C:\Users\SeanPM\Desktop\My Life Story\My life story (Modern Journaling folder)\Milestone 4\Resources\Images\!!! all\daily desktop screenshots\First 365 days\daily desktop screenshot 26 may 12th 2018.PNG" arWidth="1366" arHeight="768" duration="0" songTitle="" songArtist="" songAlbum="" songCopyrightUrl="" songArtistUrl="" songAudioFileUrl="" stabilizationMode="0" mediaItemType="2" />
    <MediaItem id="353" filePath="C:\Users\SeanPM\Desktop\My Life Story\My life story (Modern Journaling folder)\Milestone 4\Resources\Images\!!! all\daily desktop screenshots\First 365 days\daily desktop screenshot 355 April 6th 2019.png" arWidth="1365" arHeight="767" duration="0" songTitle="" songArtist="" songAlbum="" songCopyrightUrl="" songArtistUrl="" songAudioFileUrl="" stabilizationMode="0" mediaItemType="2" />
    <MediaItem id="190" filePath="C:\Users\SeanPM\Desktop\My Life Story\My life story (Modern Journaling folder)\Milestone 4\Resources\Images\!!! all\daily desktop screenshots\First 365 days\daily desktop screenshot 190 October 23rd 2018.PNG" arWidth="1366" arHeight="768" duration="0" songTitle="" songArtist="" songAlbum="" songCopyrightUrl="" songArtistUrl="" songAudioFileUrl="" stabilizationMode="0" mediaItemType="2" />
    <MediaItem id="27" filePath="C:\Users\SeanPM\Desktop\My Life Story\My life story (Modern Journaling folder)\Milestone 4\Resources\Images\!!! all\daily desktop screenshots\First 365 days\daily desktop screenshot 27 may 13th 2018.PNG" arWidth="1366" arHeight="768" duration="0" songTitle="" songArtist="" songAlbum="" songCopyrightUrl="" songArtistUrl="" songAudioFileUrl="" stabilizationMode="0" mediaItemType="2" />
    <MediaItem id="354" filePath="C:\Users\SeanPM\Desktop\My Life Story\My life story (Modern Journaling folder)\Milestone 4\Resources\Images\!!! all\daily desktop screenshots\First 365 days\daily desktop screenshot 356 April 7th 2019.png" arWidth="1365" arHeight="767" duration="0" songTitle="" songArtist="" songAlbum="" songCopyrightUrl="" songArtistUrl="" songAudioFileUrl="" stabilizationMode="0" mediaItemType="2" />
    <MediaItem id="191" filePath="C:\Users\SeanPM\Desktop\My Life Story\My life story (Modern Journaling folder)\Milestone 4\Resources\Images\!!! all\daily desktop screenshots\First 365 days\daily desktop screenshot 191 October 24th 2018.PNG" arWidth="1366" arHeight="768" duration="0" songTitle="" songArtist="" songAlbum="" songCopyrightUrl="" songArtistUrl="" songAudioFileUrl="" stabilizationMode="0" mediaItemType="2" />
    <MediaItem id="28" filePath="C:\Users\SeanPM\Desktop\My Life Story\My life story (Modern Journaling folder)\Milestone 4\Resources\Images\!!! all\daily desktop screenshots\First 365 days\daily desktop screenshot 28 may 14th 2018.PNG" arWidth="1366" arHeight="768" duration="0" songTitle="" songArtist="" songAlbum="" songCopyrightUrl="" songArtistUrl="" songAudioFileUrl="" stabilizationMode="0" mediaItemType="2" />
    <MediaItem id="355" filePath="C:\Users\SeanPM\Desktop\My Life Story\My life story (Modern Journaling folder)\Milestone 4\Resources\Images\!!! all\daily desktop screenshots\First 365 days\daily desktop screenshot 357 April 8th 2019.png" arWidth="1365" arHeight="767" duration="0" songTitle="" songArtist="" songAlbum="" songCopyrightUrl="" songArtistUrl="" songAudioFileUrl="" stabilizationMode="0" mediaItemType="2" />
    <MediaItem id="192" filePath="C:\Users\SeanPM\Desktop\My Life Story\My life story (Modern Journaling folder)\Milestone 4\Resources\Images\!!! all\daily desktop screenshots\First 365 days\daily desktop screenshot 192 October 25th 2018.PNG" arWidth="1366" arHeight="768" duration="0" songTitle="" songArtist="" songAlbum="" songCopyrightUrl="" songArtistUrl="" songAudioFileUrl="" stabilizationMode="0" mediaItemType="2" />
    <MediaItem id="29" filePath="C:\Users\SeanPM\Desktop\My Life Story\My life story (Modern Journaling folder)\Milestone 4\Resources\Images\!!! all\daily desktop screenshots\First 365 days\daily desktop screenshot 29 may 15th 2018.PNG" arWidth="1366" arHeight="768" duration="0" songTitle="" songArtist="" songAlbum="" songCopyrightUrl="" songArtistUrl="" songAudioFileUrl="" stabilizationMode="0" mediaItemType="2" />
    <MediaItem id="356" filePath="C:\Users\SeanPM\Desktop\My Life Story\My life story (Modern Journaling folder)\Milestone 4\Resources\Images\!!! all\daily desktop screenshots\First 365 days\daily desktop screenshot 358 April 9th 2019.png" arWidth="1365" arHeight="767" duration="0" songTitle="" songArtist="" songAlbum="" songCopyrightUrl="" songArtistUrl="" songAudioFileUrl="" stabilizationMode="0" mediaItemType="2" />
    <MediaItem id="193" filePath="C:\Users\SeanPM\Desktop\My Life Story\My life story (Modern Journaling folder)\Milestone 4\Resources\Images\!!! all\daily desktop screenshots\First 365 days\daily desktop screenshot 193 October 26th 2018.PNG" arWidth="1366" arHeight="768" duration="0" songTitle="" songArtist="" songAlbum="" songCopyrightUrl="" songArtistUrl="" songAudioFileUrl="" stabilizationMode="0" mediaItemType="2" />
    <MediaItem id="30" filePath="C:\Users\SeanPM\Desktop\My Life Story\My life story (Modern Journaling folder)\Milestone 4\Resources\Images\!!! all\daily desktop screenshots\First 365 days\daily desktop screenshot 30 may 16th 2018.PNG" arWidth="1366" arHeight="768" duration="0" songTitle="" songArtist="" songAlbum="" songCopyrightUrl="" songArtistUrl="" songAudioFileUrl="" stabilizationMode="0" mediaItemType="2" />
    <MediaItem id="357" filePath="C:\Users\SeanPM\Desktop\My Life Story\My life story (Modern Journaling folder)\Milestone 4\Resources\Images\!!! all\daily desktop screenshots\First 365 days\daily desktop screenshot 359 April 10th 2019.png" arWidth="1365" arHeight="767" duration="0" songTitle="" songArtist="" songAlbum="" songCopyrightUrl="" songArtistUrl="" songAudioFileUrl="" stabilizationMode="0" mediaItemType="2" />
    <MediaItem id="194" filePath="C:\Users\SeanPM\Desktop\My Life Story\My life story (Modern Journaling folder)\Milestone 4\Resources\Images\!!! all\daily desktop screenshots\First 365 days\daily desktop screenshot 194 October 27th 2018.PNG" arWidth="1366" arHeight="768" duration="0" songTitle="" songArtist="" songAlbum="" songCopyrightUrl="" songArtistUrl="" songAudioFileUrl="" stabilizationMode="0" mediaItemType="2" />
    <MediaItem id="31" filePath="C:\Users\SeanPM\Desktop\My Life Story\My life story (Modern Journaling folder)\Milestone 4\Resources\Images\!!! all\daily desktop screenshots\First 365 days\daily desktop screenshot 31 may 17th 2018.PNG" arWidth="1366" arHeight="768" duration="0" songTitle="" songArtist="" songAlbum="" songCopyrightUrl="" songArtistUrl="" songAudioFileUrl="" stabilizationMode="0" mediaItemType="2" />
    <MediaItem id="358" filePath="C:\Users\SeanPM\Desktop\My Life Story\My life story (Modern Journaling folder)\Milestone 4\Resources\Images\!!! all\daily desktop screenshots\First 365 days\daily desktop screenshot 360 April 11th 2019.png" arWidth="1365" arHeight="767" duration="0" songTitle="" songArtist="" songAlbum="" songCopyrightUrl="" songArtistUrl="" songAudioFileUrl="" stabilizationMode="0" mediaItemType="2" />
    <MediaItem id="195" filePath="C:\Users\SeanPM\Desktop\My Life Story\My life story (Modern Journaling folder)\Milestone 4\Resources\Images\!!! all\daily desktop screenshots\First 365 days\daily desktop screenshot 195 October 28th 2018.PNG" arWidth="1366" arHeight="768" duration="0" songTitle="" songArtist="" songAlbum="" songCopyrightUrl="" songArtistUrl="" songAudioFileUrl="" stabilizationMode="0" mediaItemType="2" />
    <MediaItem id="32" filePath="C:\Users\SeanPM\Desktop\My Life Story\My life story (Modern Journaling folder)\Milestone 4\Resources\Images\!!! all\daily desktop screenshots\First 365 days\daily desktop screenshot 32 may 18th 2018.PNG" arWidth="1366" arHeight="768" duration="0" songTitle="" songArtist="" songAlbum="" songCopyrightUrl="" songArtistUrl="" songAudioFileUrl="" stabilizationMode="0" mediaItemType="2" />
    <MediaItem id="359" filePath="C:\Users\SeanPM\Desktop\My Life Story\My life story (Modern Journaling folder)\Milestone 4\Resources\Images\!!! all\daily desktop screenshots\First 365 days\daily desktop screenshot 361 April 12th 2019.png" arWidth="1365" arHeight="767" duration="0" songTitle="" songArtist="" songAlbum="" songCopyrightUrl="" songArtistUrl="" songAudioFileUrl="" stabilizationMode="0" mediaItemType="2" />
    <MediaItem id="196" filePath="C:\Users\SeanPM\Desktop\My Life Story\My life story (Modern Journaling folder)\Milestone 4\Resources\Images\!!! all\daily desktop screenshots\First 365 days\daily desktop screenshot 196 October 29th 2018.PNG" arWidth="1366" arHeight="768" duration="0" songTitle="" songArtist="" songAlbum="" songCopyrightUrl="" songArtistUrl="" songAudioFileUrl="" stabilizationMode="0" mediaItemType="2" />
    <MediaItem id="33" filePath="C:\Users\SeanPM\Desktop\My Life Story\My life story (Modern Journaling folder)\Milestone 4\Resources\Images\!!! all\daily desktop screenshots\First 365 days\daily desktop screenshot 33 may 19th 2018.PNG" arWidth="1366" arHeight="768" duration="0" songTitle="" songArtist="" songAlbum="" songCopyrightUrl="" songArtistUrl="" songAudioFileUrl="" stabilizationMode="0" mediaItemType="2" />
    <MediaItem id="360" filePath="C:\Users\SeanPM\Desktop\My Life Story\My life story (Modern Journaling folder)\Milestone 4\Resources\Images\!!! all\daily desktop screenshots\First 365 days\daily desktop screenshot 362 April 13th 2019.png" arWidth="1365" arHeight="767" duration="0" songTitle="" songArtist="" songAlbum="" songCopyrightUrl="" songArtistUrl="" songAudioFileUrl="" stabilizationMode="0" mediaItemType="2" />
    <MediaItem id="197" filePath="C:\Users\SeanPM\Desktop\My Life Story\My life story (Modern Journaling folder)\Milestone 4\Resources\Images\!!! all\daily desktop screenshots\First 365 days\daily desktop screenshot 197 October 30th 2018.PNG" arWidth="1366" arHeight="768" duration="0" songTitle="" songArtist="" songAlbum="" songCopyrightUrl="" songArtistUrl="" songAudioFileUrl="" stabilizationMode="0" mediaItemType="2" />
    <MediaItem id="34" filePath="C:\Users\SeanPM\Desktop\My Life Story\My life story (Modern Journaling folder)\Milestone 4\Resources\Images\!!! all\daily desktop screenshots\First 365 days\daily desktop screenshot 34 may 20th 2018.PNG" arWidth="1366" arHeight="768" duration="0" songTitle="" songArtist="" songAlbum="" songCopyrightUrl="" songArtistUrl="" songAudioFileUrl="" stabilizationMode="0" mediaItemType="2" />
    <MediaItem id="361" filePath="C:\Users\SeanPM\Desktop\My Life Story\My life story (Modern Journaling folder)\Milestone 4\Resources\Images\!!! all\daily desktop screenshots\First 365 days\daily desktop screenshot 363 April 14th 2019.png" arWidth="1365" arHeight="767" duration="0" songTitle="" songArtist="" songAlbum="" songCopyrightUrl="" songArtistUrl="" songAudioFileUrl="" stabilizationMode="0" mediaItemType="2" />
    <MediaItem id="198" filePath="C:\Users\SeanPM\Desktop\My Life Story\My life story (Modern Journaling folder)\Milestone 4\Resources\Images\!!! all\daily desktop screenshots\First 365 days\daily desktop screenshot 198 October 31st 2018.PNG" arWidth="1366" arHeight="768" duration="0" songTitle="" songArtist="" songAlbum="" songCopyrightUrl="" songArtistUrl="" songAudioFileUrl="" stabilizationMode="0" mediaItemType="2" />
    <MediaItem id="35" filePath="C:\Users\SeanPM\Desktop\My Life Story\My life story (Modern Journaling folder)\Milestone 4\Resources\Images\!!! all\daily desktop screenshots\First 365 days\daily desktop screenshot 35 may 21st 2018.PNG" arWidth="1366" arHeight="768" duration="0" songTitle="" songArtist="" songAlbum="" songCopyrightUrl="" songArtistUrl="" songAudioFileUrl="" stabilizationMode="0" mediaItemType="2" />
    <MediaItem id="362" filePath="C:\Users\SeanPM\Desktop\My Life Story\My life story (Modern Journaling folder)\Milestone 4\Resources\Images\!!! all\daily desktop screenshots\First 365 days\daily desktop screenshot 364 April 15th 2019.png" arWidth="1365" arHeight="767" duration="0" songTitle="" songArtist="" songAlbum="" songCopyrightUrl="" songArtistUrl="" songAudioFileUrl="" stabilizationMode="0" mediaItemType="2" />
    <MediaItem id="199" filePath="C:\Users\SeanPM\Desktop\My Life Story\My life story (Modern Journaling folder)\Milestone 4\Resources\Images\!!! all\daily desktop screenshots\First 365 days\daily desktop screenshot 199 November 1st 2018.PNG" arWidth="1366" arHeight="768" duration="0" songTitle="" songArtist="" songAlbum="" songCopyrightUrl="" songArtistUrl="" songAudioFileUrl="" stabilizationMode="0" mediaItemType="2" />
    <MediaItem id="36" filePath="C:\Users\SeanPM\Desktop\My Life Story\My life story (Modern Journaling folder)\Milestone 4\Resources\Images\!!! all\daily desktop screenshots\First 365 days\daily desktop screenshot 36 may 22nd 2018.PNG" arWidth="1366" arHeight="768" duration="0" songTitle="" songArtist="" songAlbum="" songCopyrightUrl="" songArtistUrl="" songAudioFileUrl="" stabilizationMode="0" mediaItemType="2" />
    <MediaItem id="363" filePath="C:\Users\SeanPM\Desktop\My Life Story\My life story (Modern Journaling folder)\Milestone 4\Resources\Images\!!! all\daily desktop screenshots\First 365 days\daily desktop screenshot 364.1 April 16th 2019.png" arWidth="1365" arHeight="767" duration="0" songTitle="" songArtist="" songAlbum="" songCopyrightUrl="" songArtistUrl="" songAudioFileUrl="" stabilizationMode="0" mediaItemType="2" />
    <MediaItem id="200" filePath="C:\Users\SeanPM\Desktop\My Life Story\My life story (Modern Journaling folder)\Milestone 4\Resources\Images\!!! all\daily desktop screenshots\First 365 days\daily desktop screenshot 200 November 2nd 2018.PNG" arWidth="1366" arHeight="768" duration="0" songTitle="" songArtist="" songAlbum="" songCopyrightUrl="" songArtistUrl="" songAudioFileUrl="" stabilizationMode="0" mediaItemType="2" />
    <MediaItem id="37" filePath="C:\Users\SeanPM\Desktop\My Life Story\My life story (Modern Journaling folder)\Milestone 4\Resources\Images\!!! all\daily desktop screenshots\First 365 days\daily desktop screenshot 37 may 23rd 2018.PNG" arWidth="1366" arHeight="768" duration="0" songTitle="" songArtist="" songAlbum="" songCopyrightUrl="" songArtistUrl="" songAudioFileUrl="" stabilizationMode="0" mediaItemType="2" />
    <MediaItem id="364" filePath="C:\Users\SeanPM\Desktop\My Life Story\My life story (Modern Journaling folder)\Milestone 4\Resources\Images\!!! all\daily desktop screenshots\First 365 days\daily desktop screenshot 364.2 April 17th 2019.png" arWidth="1365" arHeight="767" duration="0" songTitle="" songArtist="" songAlbum="" songCopyrightUrl="" songArtistUrl="" songAudioFileUrl="" stabilizationMode="0" mediaItemType="2" />
    <MediaItem id="201" filePath="C:\Users\SeanPM\Desktop\My Life Story\My life story (Modern Journaling folder)\Milestone 4\Resources\Images\!!! all\daily desktop screenshots\First 365 days\daily desktop screenshot 201 November 3rd 2018.PNG" arWidth="1366" arHeight="768" duration="0" songTitle="" songArtist="" songAlbum="" songCopyrightUrl="" songArtistUrl="" songAudioFileUrl="" stabilizationMode="0" mediaItemType="2" />
    <MediaItem id="38" filePath="C:\Users\SeanPM\Desktop\My Life Story\My life story (Modern Journaling folder)\Milestone 4\Resources\Images\!!! all\daily desktop screenshots\First 365 days\daily desktop screenshot 38 may 24th 2018.PNG" arWidth="1366" arHeight="768" duration="0" songTitle="" songArtist="" songAlbum="" songCopyrightUrl="" songArtistUrl="" songAudioFileUrl="" stabilizationMode="0" mediaItemType="2" />
    <MediaItem id="365" filePath="C:\Users\SeanPM\Desktop\My Life Story\My life story (Modern Journaling folder)\Milestone 4\Resources\Images\!!! all\daily desktop screenshots\First 365 days\daily desktop screenshot 365 April 18th 2019.png" arWidth="1365" arHeight="767" duration="0" songTitle="" songArtist="" songAlbum="" songCopyrightUrl="" songArtistUrl="" songAudioFileUrl="" stabilizationMode="0" mediaItemType="2" />
    <MediaItem id="202" filePath="C:\Users\SeanPM\Desktop\My Life Story\My life story (Modern Journaling folder)\Milestone 4\Resources\Images\!!! all\daily desktop screenshots\First 365 days\daily desktop screenshot 202 November 4th 2018.PNG" arWidth="1366" arHeight="768" duration="0" songTitle="" songArtist="" songAlbum="" songCopyrightUrl="" songArtistUrl="" songAudioFileUrl="" stabilizationMode="0" mediaItemType="2" />
    <MediaItem id="39" filePath="C:\Users\SeanPM\Desktop\My Life Story\My life story (Modern Journaling folder)\Milestone 4\Resources\Images\!!! all\daily desktop screenshots\First 365 days\daily desktop screenshot 39 may 25th 2018.PNG" arWidth="1366" arHeight="768" duration="0" songTitle="" songArtist="" songAlbum="" songCopyrightUrl="" songArtistUrl="" songAudioFileUrl="" stabilizationMode="0" mediaItemType="2" />
    <MediaItem id="203" filePath="C:\Users\SeanPM\Desktop\My Life Story\My life story (Modern Journaling folder)\Milestone 4\Resources\Images\!!! all\daily desktop screenshots\First 365 days\daily desktop screenshot 203 November 5th 2018.PNG" arWidth="1366" arHeight="768" duration="0" songTitle="" songArtist="" songAlbum="" songCopyrightUrl="" songArtistUrl="" songAudioFileUrl="" stabilizationMode="0" mediaItemType="2" />
    <MediaItem id="40" filePath="C:\Users\SeanPM\Desktop\My Life Story\My life story (Modern Journaling folder)\Milestone 4\Resources\Images\!!! all\daily desktop screenshots\First 365 days\daily desktop screenshot 40 may 26th 2018.PNG" arWidth="1366" arHeight="768" duration="0" songTitle="" songArtist="" songAlbum="" songCopyrightUrl="" songArtistUrl="" songAudioFileUrl="" stabilizationMode="0" mediaItemType="2" />
    <MediaItem id="204" filePath="C:\Users\SeanPM\Desktop\My Life Story\My life story (Modern Journaling folder)\Milestone 4\Resources\Images\!!! all\daily desktop screenshots\First 365 days\daily desktop screenshot 204 November 6th 2018.PNG" arWidth="1365" arHeight="768" duration="0" songTitle="" songArtist="" songAlbum="" songCopyrightUrl="" songArtistUrl="" songAudioFileUrl="" stabilizationMode="0" mediaItemType="2" />
    <MediaItem id="41" filePath="C:\Users\SeanPM\Desktop\My Life Story\My life story (Modern Journaling folder)\Milestone 4\Resources\Images\!!! all\daily desktop screenshots\First 365 days\daily desktop screenshot 41 may 27th 2018.PNG" arWidth="1366" arHeight="768" duration="0" songTitle="" songArtist="" songAlbum="" songCopyrightUrl="" songArtistUrl="" songAudioFileUrl="" stabilizationMode="0" mediaItemType="2" />
    <MediaItem id="42" filePath="C:\Users\SeanPM\Desktop\My Life Story\My life story (Modern Journaling folder)\Milestone 4\Resources\Images\!!! all\daily desktop screenshots\First 365 days\daily desktop screenshot 42 may 28th 2018.PNG" arWidth="1366" arHeight="768" duration="0" songTitle="" songArtist="" songAlbum="" songCopyrightUrl="" songArtistUrl="" songAudioFileUrl="" stabilizationMode="0" mediaItemType="2" />
    <MediaItem id="205" filePath="C:\Users\SeanPM\Desktop\My Life Story\My life story (Modern Journaling folder)\Milestone 4\Resources\Images\!!! all\daily desktop screenshots\First 365 days\daily desktop screenshot 205 November 7th 2018.PNG" arWidth="1366" arHeight="766" duration="0" songTitle="" songArtist="" songAlbum="" songCopyrightUrl="" songArtistUrl="" songAudioFileUrl="" stabilizationMode="0" mediaItemType="2" />
    <MediaItem id="43" filePath="C:\Users\SeanPM\Desktop\My Life Story\My life story (Modern Journaling folder)\Milestone 4\Resources\Images\!!! all\daily desktop screenshots\First 365 days\daily desktop screenshot 43 may 29th 2018.PNG" arWidth="1366" arHeight="768" duration="0" songTitle="" songArtist="" songAlbum="" songCopyrightUrl="" songArtistUrl="" songAudioFileUrl="" stabilizationMode="0" mediaItemType="2" />
    <MediaItem id="206" filePath="C:\Users\SeanPM\Desktop\My Life Story\My life story (Modern Journaling folder)\Milestone 4\Resources\Images\!!! all\daily desktop screenshots\First 365 days\daily desktop screenshot 206 November 8th 2018.PNG" arWidth="1366" arHeight="768" duration="0" songTitle="" songArtist="" songAlbum="" songCopyrightUrl="" songArtistUrl="" songAudioFileUrl="" stabilizationMode="0" mediaItemType="2" />
    <MediaItem id="44" filePath="C:\Users\SeanPM\Desktop\My Life Story\My life story (Modern Journaling folder)\Milestone 4\Resources\Images\!!! all\daily desktop screenshots\First 365 days\daily desktop screenshot 44 may 30th 2018.PNG" arWidth="1366" arHeight="768" duration="0" songTitle="" songArtist="" songAlbum="" songCopyrightUrl="" songArtistUrl="" songAudioFileUrl="" stabilizationMode="0" mediaItemType="2" />
    <MediaItem id="207" filePath="C:\Users\SeanPM\Desktop\My Life Story\My life story (Modern Journaling folder)\Milestone 4\Resources\Images\!!! all\daily desktop screenshots\First 365 days\daily desktop screenshot 207 November 9th 2018.PNG" arWidth="1366" arHeight="768" duration="0" songTitle="" songArtist="" songAlbum="" songCopyrightUrl="" songArtistUrl="" songAudioFileUrl="" stabilizationMode="0" mediaItemType="2" />
    <MediaItem id="45" filePath="C:\Users\SeanPM\Desktop\My Life Story\My life story (Modern Journaling folder)\Milestone 4\Resources\Images\!!! all\daily desktop screenshots\First 365 days\daily desktop screenshot 45 may 31st 2018.PNG" arWidth="1366" arHeight="768" duration="0" songTitle="" songArtist="" songAlbum="" songCopyrightUrl="" songArtistUrl="" songAudioFileUrl="" stabilizationMode="0" mediaItemType="2" />
    <MediaItem id="208" filePath="C:\Users\SeanPM\Desktop\My Life Story\My life story (Modern Journaling folder)\Milestone 4\Resources\Images\!!! all\daily desktop screenshots\First 365 days\daily desktop screenshot 208 November 10th 2018.PNG" arWidth="1366" arHeight="768" duration="0" songTitle="" songArtist="" songAlbum="" songCopyrightUrl="" songArtistUrl="" songAudioFileUrl="" stabilizationMode="0" mediaItemType="2" />
    <MediaItem id="46" filePath="C:\Users\SeanPM\Desktop\My Life Story\My life story (Modern Journaling folder)\Milestone 4\Resources\Images\!!! all\daily desktop screenshots\First 365 days\daily desktop screenshot 46 june 1st 2018.PNG" arWidth="1366" arHeight="768" duration="0" songTitle="" songArtist="" songAlbum="" songCopyrightUrl="" songArtistUrl="" songAudioFileUrl="" stabilizationMode="0" mediaItemType="2" />
    <MediaItem id="209" filePath="C:\Users\SeanPM\Desktop\My Life Story\My life story (Modern Journaling folder)\Milestone 4\Resources\Images\!!! all\daily desktop screenshots\First 365 days\daily desktop screenshot 209 November 11th 2018.PNG" arWidth="1366" arHeight="768" duration="0" songTitle="" songArtist="" songAlbum="" songCopyrightUrl="" songArtistUrl="" songAudioFileUrl="" stabilizationMode="0" mediaItemType="2" />
    <MediaItem id="47" filePath="C:\Users\SeanPM\Desktop\My Life Story\My life story (Modern Journaling folder)\Milestone 4\Resources\Images\!!! all\daily desktop screenshots\First 365 days\daily desktop screenshot 47 june 2nd 2018.PNG" arWidth="1366" arHeight="768" duration="0" songTitle="" songArtist="" songAlbum="" songCopyrightUrl="" songArtistUrl="" songAudioFileUrl="" stabilizationMode="0" mediaItemType="2" />
    <MediaItem id="210" filePath="C:\Users\SeanPM\Desktop\My Life Story\My life story (Modern Journaling folder)\Milestone 4\Resources\Images\!!! all\daily desktop screenshots\First 365 days\daily desktop screenshot 210 November 12th 2018.PNG" arWidth="1366" arHeight="768" duration="0" songTitle="" songArtist="" songAlbum="" songCopyrightUrl="" songArtistUrl="" songAudioFileUrl="" stabilizationMode="0" mediaItemType="2" />
    <MediaItem id="48" filePath="C:\Users\SeanPM\Desktop\My Life Story\My life story (Modern Journaling folder)\Milestone 4\Resources\Images\!!! all\daily desktop screenshots\First 365 days\daily desktop screenshot 48 june 3rd 2018.PNG" arWidth="1366" arHeight="768" duration="0" songTitle="" songArtist="" songAlbum="" songCopyrightUrl="" songArtistUrl="" songAudioFileUrl="" stabilizationMode="0" mediaItemType="2" />
    <MediaItem id="211" filePath="C:\Users\SeanPM\Desktop\My Life Story\My life story (Modern Journaling folder)\Milestone 4\Resources\Images\!!! all\daily desktop screenshots\First 365 days\daily desktop screenshot 211 November 13th 2018.PNG" arWidth="1366" arHeight="768" duration="0" songTitle="" songArtist="" songAlbum="" songCopyrightUrl="" songArtistUrl="" songAudioFileUrl="" stabilizationMode="0" mediaItemType="2" />
    <MediaItem id="49" filePath="C:\Users\SeanPM\Desktop\My Life Story\My life story (Modern Journaling folder)\Milestone 4\Resources\Images\!!! all\daily desktop screenshots\First 365 days\daily desktop screenshot 49 june 4th 2018.PNG" arWidth="1366" arHeight="768" duration="0" songTitle="" songArtist="" songAlbum="" songCopyrightUrl="" songArtistUrl="" songAudioFileUrl="" stabilizationMode="0" mediaItemType="2" />
    <MediaItem id="212" filePath="C:\Users\SeanPM\Desktop\My Life Story\My life story (Modern Journaling folder)\Milestone 4\Resources\Images\!!! all\daily desktop screenshots\First 365 days\daily desktop screenshot 212 November 14th 2018.PNG" arWidth="1366" arHeight="767" duration="0" songTitle="" songArtist="" songAlbum="" songCopyrightUrl="" songArtistUrl="" songAudioFileUrl="" stabilizationMode="0" mediaItemType="2" />
    <MediaItem id="50" filePath="C:\Users\SeanPM\Desktop\My Life Story\My life story (Modern Journaling folder)\Milestone 4\Resources\Images\!!! all\daily desktop screenshots\First 365 days\daily desktop screenshot 50 june 5th 2018.PNG" arWidth="1366" arHeight="768" duration="0" songTitle="" songArtist="" songAlbum="" songCopyrightUrl="" songArtistUrl="" songAudioFileUrl="" stabilizationMode="0" mediaItemType="2" />
    <MediaItem id="213" filePath="C:\Users\SeanPM\Desktop\My Life Story\My life story (Modern Journaling folder)\Milestone 4\Resources\Images\!!! all\daily desktop screenshots\First 365 days\daily desktop screenshot 213 November 15th 2018.PNG" arWidth="1366" arHeight="768" duration="0" songTitle="" songArtist="" songAlbum="" songCopyrightUrl="" songArtistUrl="" songAudioFileUrl="" stabilizationMode="0" mediaItemType="2" />
    <MediaItem id="51" filePath="C:\Users\SeanPM\Desktop\My Life Story\My life story (Modern Journaling folder)\Milestone 4\Resources\Images\!!! all\daily desktop screenshots\First 365 days\daily desktop screenshot 51 june 6th 2018.PNG" arWidth="1366" arHeight="768" duration="0" songTitle="" songArtist="" songAlbum="" songCopyrightUrl="" songArtistUrl="" songAudioFileUrl="" stabilizationMode="0" mediaItemType="2" />
    <MediaItem id="214" filePath="C:\Users\SeanPM\Desktop\My Life Story\My life story (Modern Journaling folder)\Milestone 4\Resources\Images\!!! all\daily desktop screenshots\First 365 days\daily desktop screenshot 214 November 16th 2018.PNG" arWidth="1366" arHeight="768" duration="0" songTitle="" songArtist="" songAlbum="" songCopyrightUrl="" songArtistUrl="" songAudioFileUrl="" stabilizationMode="0" mediaItemType="2" />
    <MediaItem id="52" filePath="C:\Users\SeanPM\Desktop\My Life Story\My life story (Modern Journaling folder)\Milestone 4\Resources\Images\!!! all\daily desktop screenshots\First 365 days\daily desktop screenshot 52 june 7th 2018.PNG" arWidth="1366" arHeight="768" duration="0" songTitle="" songArtist="" songAlbum="" songCopyrightUrl="" songArtistUrl="" songAudioFileUrl="" stabilizationMode="0" mediaItemType="2" />
    <MediaItem id="215" filePath="C:\Users\SeanPM\Desktop\My Life Story\My life story (Modern Journaling folder)\Milestone 4\Resources\Images\!!! all\daily desktop screenshots\First 365 days\daily desktop screenshot 215 November 17th 2018.PNG" arWidth="1366" arHeight="768" duration="0" songTitle="" songArtist="" songAlbum="" songCopyrightUrl="" songArtistUrl="" songAudioFileUrl="" stabilizationMode="0" mediaItemType="2" />
    <MediaItem id="53" filePath="C:\Users\SeanPM\Desktop\My Life Story\My life story (Modern Journaling folder)\Milestone 4\Resources\Images\!!! all\daily desktop screenshots\First 365 days\daily desktop screenshot 53 june 8th 2018.PNG" arWidth="1366" arHeight="768" duration="0" songTitle="" songArtist="" songAlbum="" songCopyrightUrl="" songArtistUrl="" songAudioFileUrl="" stabilizationMode="0" mediaItemType="2" />
    <MediaItem id="216" filePath="C:\Users\SeanPM\Desktop\My Life Story\My life story (Modern Journaling folder)\Milestone 4\Resources\Images\!!! all\daily desktop screenshots\First 365 days\daily desktop screenshot 216 November 18th 2018.PNG" arWidth="1366" arHeight="762" duration="0" songTitle="" songArtist="" songAlbum="" songCopyrightUrl="" songArtistUrl="" songAudioFileUrl="" stabilizationMode="0" mediaItemType="2" />
    <MediaItem id="54" filePath="C:\Users\SeanPM\Desktop\My Life Story\My life story (Modern Journaling folder)\Milestone 4\Resources\Images\!!! all\daily desktop screenshots\First 365 days\daily desktop screenshot 54 june 9th 2018.PNG" arWidth="1366" arHeight="768" duration="0" songTitle="" songArtist="" songAlbum="" songCopyrightUrl="" songArtistUrl="" songAudioFileUrl="" stabilizationMode="0" mediaItemType="2" />
    <MediaItem id="217" filePath="C:\Users\SeanPM\Desktop\My Life Story\My life story (Modern Journaling folder)\Milestone 4\Resources\Images\!!! all\daily desktop screenshots\First 365 days\daily desktop screenshot 217 November 19th 2018.PNG" arWidth="1366" arHeight="768" duration="0" songTitle="" songArtist="" songAlbum="" songCopyrightUrl="" songArtistUrl="" songAudioFileUrl="" stabilizationMode="0" mediaItemType="2" />
    <MediaItem id="55" filePath="C:\Users\SeanPM\Desktop\My Life Story\My life story (Modern Journaling folder)\Milestone 4\Resources\Images\!!! all\daily desktop screenshots\First 365 days\daily desktop screenshot 55 june 10th 2018.PNG" arWidth="1366" arHeight="768" duration="0" songTitle="" songArtist="" songAlbum="" songCopyrightUrl="" songArtistUrl="" songAudioFileUrl="" stabilizationMode="0" mediaItemType="2" />
    <MediaItem id="218" filePath="C:\Users\SeanPM\Desktop\My Life Story\My life story (Modern Journaling folder)\Milestone 4\Resources\Images\!!! all\daily desktop screenshots\First 365 days\daily desktop screenshot 218 November 20th 2018.PNG" arWidth="1366" arHeight="768" duration="0" songTitle="" songArtist="" songAlbum="" songCopyrightUrl="" songArtistUrl="" songAudioFileUrl="" stabilizationMode="0" mediaItemType="2" />
    <MediaItem id="56" filePath="C:\Users\SeanPM\Desktop\My Life Story\My life story (Modern Journaling folder)\Milestone 4\Resources\Images\!!! all\daily desktop screenshots\First 365 days\daily desktop screenshot 56 june 11th 2018.PNG" arWidth="1366" arHeight="768" duration="0" songTitle="" songArtist="" songAlbum="" songCopyrightUrl="" songArtistUrl="" songAudioFileUrl="" stabilizationMode="0" mediaItemType="2" />
    <MediaItem id="219" filePath="C:\Users\SeanPM\Desktop\My Life Story\My life story (Modern Journaling folder)\Milestone 4\Resources\Images\!!! all\daily desktop screenshots\First 365 days\daily desktop screenshot 219 November 21st 2018.PNG" arWidth="1366" arHeight="768" duration="0" songTitle="" songArtist="" songAlbum="" songCopyrightUrl="" songArtistUrl="" songAudioFileUrl="" stabilizationMode="0" mediaItemType="2" />
    <MediaItem id="57" filePath="C:\Users\SeanPM\Desktop\My Life Story\My life story (Modern Journaling folder)\Milestone 4\Resources\Images\!!! all\daily desktop screenshots\First 365 days\daily desktop screenshot 57 june 12th 2018.PNG" arWidth="1366" arHeight="768" duration="0" songTitle="" songArtist="" songAlbum="" songCopyrightUrl="" songArtistUrl="" songAudioFileUrl="" stabilizationMode="0" mediaItemType="2" />
    <MediaItem id="220" filePath="C:\Users\SeanPM\Desktop\My Life Story\My life story (Modern Journaling folder)\Milestone 4\Resources\Images\!!! all\daily desktop screenshots\First 365 days\daily desktop screenshot 220 November 22nd 2018.PNG" arWidth="1366" arHeight="768" duration="0" songTitle="" songArtist="" songAlbum="" songCopyrightUrl="" songArtistUrl="" songAudioFileUrl="" stabilizationMode="0" mediaItemType="2" />
    <MediaItem id="58" filePath="C:\Users\SeanPM\Desktop\My Life Story\My life story (Modern Journaling folder)\Milestone 4\Resources\Images\!!! all\daily desktop screenshots\First 365 days\daily desktop screenshot 58 june 13th 2018.PNG" arWidth="1366" arHeight="768" duration="0" songTitle="" songArtist="" songAlbum="" songCopyrightUrl="" songArtistUrl="" songAudioFileUrl="" stabilizationMode="0" mediaItemType="2" />
    <MediaItem id="221" filePath="C:\Users\SeanPM\Desktop\My Life Story\My life story (Modern Journaling folder)\Milestone 4\Resources\Images\!!! all\daily desktop screenshots\First 365 days\daily desktop screenshot 221 November 23rd 2018.PNG" arWidth="1366" arHeight="768" duration="0" songTitle="" songArtist="" songAlbum="" songCopyrightUrl="" songArtistUrl="" songAudioFileUrl="" stabilizationMode="0" mediaItemType="2" />
    <MediaItem id="59" filePath="C:\Users\SeanPM\Desktop\My Life Story\My life story (Modern Journaling folder)\Milestone 4\Resources\Images\!!! all\daily desktop screenshots\First 365 days\daily desktop screenshot 59 june 14th 2018.PNG" arWidth="1366" arHeight="768" duration="0" songTitle="" songArtist="" songAlbum="" songCopyrightUrl="" songArtistUrl="" songAudioFileUrl="" stabilizationMode="0" mediaItemType="2" />
    <MediaItem id="222" filePath="C:\Users\SeanPM\Desktop\My Life Story\My life story (Modern Journaling folder)\Milestone 4\Resources\Images\!!! all\daily desktop screenshots\First 365 days\daily desktop screenshot 222 November 24th 2018.PNG" arWidth="1366" arHeight="768" duration="0" songTitle="" songArtist="" songAlbum="" songCopyrightUrl="" songArtistUrl="" songAudioFileUrl="" stabilizationMode="0" mediaItemType="2" />
    <MediaItem id="60" filePath="C:\Users\SeanPM\Desktop\My Life Story\My life story (Modern Journaling folder)\Milestone 4\Resources\Images\!!! all\daily desktop screenshots\First 365 days\daily desktop screenshot 60 june 15th 2018.PNG" arWidth="1366" arHeight="768" duration="0" songTitle="" songArtist="" songAlbum="" songCopyrightUrl="" songArtistUrl="" songAudioFileUrl="" stabilizationMode="0" mediaItemType="2" />
    <MediaItem id="223" filePath="C:\Users\SeanPM\Desktop\My Life Story\My life story (Modern Journaling folder)\Milestone 4\Resources\Images\!!! all\daily desktop screenshots\First 365 days\daily desktop screenshot 223 November 25th 2018.PNG" arWidth="1366" arHeight="768" duration="0" songTitle="" songArtist="" songAlbum="" songCopyrightUrl="" songArtistUrl="" songAudioFileUrl="" stabilizationMode="0" mediaItemType="2" />
    <MediaItem id="61" filePath="C:\Users\SeanPM\Desktop\My Life Story\My life story (Modern Journaling folder)\Milestone 4\Resources\Images\!!! all\daily desktop screenshots\First 365 days\daily desktop screenshot 61 june 16th 2018.PNG" arWidth="1366" arHeight="768" duration="0" songTitle="" songArtist="" songAlbum="" songCopyrightUrl="" songArtistUrl="" songAudioFileUrl="" stabilizationMode="0" mediaItemType="2" />
    <MediaItem id="224" filePath="C:\Users\SeanPM\Desktop\My Life Story\My life story (Modern Journaling folder)\Milestone 4\Resources\Images\!!! all\daily desktop screenshots\First 365 days\daily desktop screenshot 224 November 26th 2018.PNG" arWidth="1366" arHeight="768" duration="0" songTitle="" songArtist="" songAlbum="" songCopyrightUrl="" songArtistUrl="" songAudioFileUrl="" stabilizationMode="0" mediaItemType="2" />
    <MediaItem id="62" filePath="C:\Users\SeanPM\Desktop\My Life Story\My life story (Modern Journaling folder)\Milestone 4\Resources\Images\!!! all\daily desktop screenshots\First 365 days\daily desktop screenshot 62 june 17th 2018.PNG" arWidth="1366" arHeight="768" duration="0" songTitle="" songArtist="" songAlbum="" songCopyrightUrl="" songArtistUrl="" songAudioFileUrl="" stabilizationMode="0" mediaItemType="2" />
    <MediaItem id="225" filePath="C:\Users\SeanPM\Desktop\My Life Story\My life story (Modern Journaling folder)\Milestone 4\Resources\Images\!!! all\daily desktop screenshots\First 365 days\daily desktop screenshot 225 November 27th 2018.PNG" arWidth="1366" arHeight="768" duration="0" songTitle="" songArtist="" songAlbum="" songCopyrightUrl="" songArtistUrl="" songAudioFileUrl="" stabilizationMode="0" mediaItemType="2" />
    <MediaItem id="63" filePath="C:\Users\SeanPM\Desktop\My Life Story\My life story (Modern Journaling folder)\Milestone 4\Resources\Images\!!! all\daily desktop screenshots\First 365 days\daily desktop screenshot 63 june 18th 2018.PNG" arWidth="1366" arHeight="768" duration="0" songTitle="" songArtist="" songAlbum="" songCopyrightUrl="" songArtistUrl="" songAudioFileUrl="" stabilizationMode="0" mediaItemType="2" />
    <MediaItem id="226" filePath="C:\Users\SeanPM\Desktop\My Life Story\My life story (Modern Journaling folder)\Milestone 4\Resources\Images\!!! all\daily desktop screenshots\First 365 days\daily desktop screenshot 226 November 28th 2018.PNG" arWidth="1366" arHeight="768" duration="0" songTitle="" songArtist="" songAlbum="" songCopyrightUrl="" songArtistUrl="" songAudioFileUrl="" stabilizationMode="0" mediaItemType="2" />
    <MediaItem id="64" filePath="C:\Users\SeanPM\Desktop\My Life Story\My life story (Modern Journaling folder)\Milestone 4\Resources\Images\!!! all\daily desktop screenshots\First 365 days\daily desktop screenshot 64 june 19th 2018.PNG" arWidth="1366" arHeight="768" duration="0" songTitle="" songArtist="" songAlbum="" songCopyrightUrl="" songArtistUrl="" songAudioFileUrl="" stabilizationMode="0" mediaItemType="2" />
    <MediaItem id="227" filePath="C:\Users\SeanPM\Desktop\My Life Story\My life story (Modern Journaling folder)\Milestone 4\Resources\Images\!!! all\daily desktop screenshots\First 365 days\daily desktop screenshot 227 November 29th 2018.PNG" arWidth="1366" arHeight="768" duration="0" songTitle="" songArtist="" songAlbum="" songCopyrightUrl="" songArtistUrl="" songAudioFileUrl="" stabilizationMode="0" mediaItemType="2" />
    <MediaItem id="65" filePath="C:\Users\SeanPM\Desktop\My Life Story\My life story (Modern Journaling folder)\Milestone 4\Resources\Images\!!! all\daily desktop screenshots\First 365 days\daily desktop screenshot 65 june 20th 2018.PNG" arWidth="1366" arHeight="768" duration="0" songTitle="" songArtist="" songAlbum="" songCopyrightUrl="" songArtistUrl="" songAudioFileUrl="" stabilizationMode="0" mediaItemType="2" />
    <MediaItem id="228" filePath="C:\Users\SeanPM\Desktop\My Life Story\My life story (Modern Journaling folder)\Milestone 4\Resources\Images\!!! all\daily desktop screenshots\First 365 days\daily desktop screenshot 228 November 30th 2018.PNG" arWidth="1366" arHeight="768" duration="0" songTitle="" songArtist="" songAlbum="" songCopyrightUrl="" songArtistUrl="" songAudioFileUrl="" stabilizationMode="0" mediaItemType="2" />
    <MediaItem id="66" filePath="C:\Users\SeanPM\Desktop\My Life Story\My life story (Modern Journaling folder)\Milestone 4\Resources\Images\!!! all\daily desktop screenshots\First 365 days\daily desktop screenshot 66 june 21st 2018.PNG" arWidth="1366" arHeight="768" duration="0" songTitle="" songArtist="" songAlbum="" songCopyrightUrl="" songArtistUrl="" songAudioFileUrl="" stabilizationMode="0" mediaItemType="2" />
    <MediaItem id="229" filePath="C:\Users\SeanPM\Desktop\My Life Story\My life story (Modern Journaling folder)\Milestone 4\Resources\Images\!!! all\daily desktop screenshots\First 365 days\daily desktop screenshot 229 December 1st 2018.PNG" arWidth="1366" arHeight="768" duration="0" songTitle="" songArtist="" songAlbum="" songCopyrightUrl="" songArtistUrl="" songAudioFileUrl="" stabilizationMode="0" mediaItemType="2" />
    <MediaItem id="67" filePath="C:\Users\SeanPM\Desktop\My Life Story\My life story (Modern Journaling folder)\Milestone 4\Resources\Images\!!! all\daily desktop screenshots\First 365 days\daily desktop screenshot 67 june 22nd 2018.PNG" arWidth="1366" arHeight="768" duration="0" songTitle="" songArtist="" songAlbum="" songCopyrightUrl="" songArtistUrl="" songAudioFileUrl="" stabilizationMode="0" mediaItemType="2" />
    <MediaItem id="230" filePath="C:\Users\SeanPM\Desktop\My Life Story\My life story (Modern Journaling folder)\Milestone 4\Resources\Images\!!! all\daily desktop screenshots\First 365 days\daily desktop screenshot 230 December 2nd 2018.PNG" arWidth="1366" arHeight="768" duration="0" songTitle="" songArtist="" songAlbum="" songCopyrightUrl="" songArtistUrl="" songAudioFileUrl="" stabilizationMode="0" mediaItemType="2" />
    <MediaItem id="68" filePath="C:\Users\SeanPM\Desktop\My Life Story\My life story (Modern Journaling folder)\Milestone 4\Resources\Images\!!! all\daily desktop screenshots\First 365 days\daily desktop screenshot 68 june 23rd 2018.PNG" arWidth="1366" arHeight="768" duration="0" songTitle="" songArtist="" songAlbum="" songCopyrightUrl="" songArtistUrl="" songAudioFileUrl="" stabilizationMode="0" mediaItemType="2" />
    <MediaItem id="231" filePath="C:\Users\SeanPM\Desktop\My Life Story\My life story (Modern Journaling folder)\Milestone 4\Resources\Images\!!! all\daily desktop screenshots\First 365 days\daily desktop screenshot 231 December 3rd 2018.PNG" arWidth="1366" arHeight="768" duration="0" songTitle="" songArtist="" songAlbum="" songCopyrightUrl="" songArtistUrl="" songAudioFileUrl="" stabilizationMode="0" mediaItemType="2" />
    <MediaItem id="69" filePath="C:\Users\SeanPM\Desktop\My Life Story\My life story (Modern Journaling folder)\Milestone 4\Resources\Images\!!! all\daily desktop screenshots\First 365 days\daily desktop screenshot 69 june 24th 2018.PNG" arWidth="1366" arHeight="768" duration="0" songTitle="" songArtist="" songAlbum="" songCopyrightUrl="" songArtistUrl="" songAudioFileUrl="" stabilizationMode="0" mediaItemType="2" />
    <MediaItem id="232" filePath="C:\Users\SeanPM\Desktop\My Life Story\My life story (Modern Journaling folder)\Milestone 4\Resources\Images\!!! all\daily desktop screenshots\First 365 days\daily desktop screenshot 232 December 4th 2018.PNG" arWidth="1366" arHeight="768" duration="0" songTitle="" songArtist="" songAlbum="" songCopyrightUrl="" songArtistUrl="" songAudioFileUrl="" stabilizationMode="0" mediaItemType="2" />
    <MediaItem id="70" filePath="C:\Users\SeanPM\Desktop\My Life Story\My life story (Modern Journaling folder)\Milestone 4\Resources\Images\!!! all\daily desktop screenshots\First 365 days\daily desktop screenshot 70 june 25th 2018.PNG" arWidth="1366" arHeight="768" duration="0" songTitle="" songArtist="" songAlbum="" songCopyrightUrl="" songArtistUrl="" songAudioFileUrl="" stabilizationMode="0" mediaItemType="2" />
    <MediaItem id="233" filePath="C:\Users\SeanPM\Desktop\My Life Story\My life story (Modern Journaling folder)\Milestone 4\Resources\Images\!!! all\daily desktop screenshots\First 365 days\daily desktop screenshot 233 December 5th 2018.PNG" arWidth="1366" arHeight="768" duration="0" songTitle="" songArtist="" songAlbum="" songCopyrightUrl="" songArtistUrl="" songAudioFileUrl="" stabilizationMode="0" mediaItemType="2" />
    <MediaItem id="71" filePath="C:\Users\SeanPM\Desktop\My Life Story\My life story (Modern Journaling folder)\Milestone 4\Resources\Images\!!! all\daily desktop screenshots\First 365 days\daily desktop screenshot 71 june 26th 2018.PNG" arWidth="1366" arHeight="768" duration="0" songTitle="" songArtist="" songAlbum="" songCopyrightUrl="" songArtistUrl="" songAudioFileUrl="" stabilizationMode="0" mediaItemType="2" />
    <MediaItem id="234" filePath="C:\Users\SeanPM\Desktop\My Life Story\My life story (Modern Journaling folder)\Milestone 4\Resources\Images\!!! all\daily desktop screenshots\First 365 days\daily desktop screenshot 234 December 6th 2018.PNG" arWidth="1366" arHeight="768" duration="0" songTitle="" songArtist="" songAlbum="" songCopyrightUrl="" songArtistUrl="" songAudioFileUrl="" stabilizationMode="0" mediaItemType="2" />
    <MediaItem id="72" filePath="C:\Users\SeanPM\Desktop\My Life Story\My life story (Modern Journaling folder)\Milestone 4\Resources\Images\!!! all\daily desktop screenshots\First 365 days\daily desktop screenshot 72 june 27th 2018.PNG" arWidth="1366" arHeight="768" duration="0" songTitle="" songArtist="" songAlbum="" songCopyrightUrl="" songArtistUrl="" songAudioFileUrl="" stabilizationMode="0" mediaItemType="2" />
    <MediaItem id="235" filePath="C:\Users\SeanPM\Desktop\My Life Story\My life story (Modern Journaling folder)\Milestone 4\Resources\Images\!!! all\daily desktop screenshots\First 365 days\daily desktop screenshot 235 December 7th 2018.PNG" arWidth="1366" arHeight="768" duration="0" songTitle="" songArtist="" songAlbum="" songCopyrightUrl="" songArtistUrl="" songAudioFileUrl="" stabilizationMode="0" mediaItemType="2" />
    <MediaItem id="73" filePath="C:\Users\SeanPM\Desktop\My Life Story\My life story (Modern Journaling folder)\Milestone 4\Resources\Images\!!! all\daily desktop screenshots\First 365 days\daily desktop screenshot 73 June 28th 2018.PNG" arWidth="1366" arHeight="767" duration="0" songTitle="" songArtist="" songAlbum="" songCopyrightUrl="" songArtistUrl="" songAudioFileUrl="" stabilizationMode="0" mediaItemType="2" />
    <MediaItem id="236" filePath="C:\Users\SeanPM\Desktop\My Life Story\My life story (Modern Journaling folder)\Milestone 4\Resources\Images\!!! all\daily desktop screenshots\First 365 days\daily desktop screenshot 236 December 8th 2018.PNG" arWidth="1366" arHeight="768" duration="0" songTitle="" songArtist="" songAlbum="" songCopyrightUrl="" songArtistUrl="" songAudioFileUrl="" stabilizationMode="0" mediaItemType="2" />
    <MediaItem id="74" filePath="C:\Users\SeanPM\Desktop\My Life Story\My life story (Modern Journaling folder)\Milestone 4\Resources\Images\!!! all\daily desktop screenshots\First 365 days\daily desktop screenshot 74 June 29th 2018.PNG" arWidth="1366" arHeight="768" duration="0" songTitle="" songArtist="" songAlbum="" songCopyrightUrl="" songArtistUrl="" songAudioFileUrl="" stabilizationMode="0" mediaItemType="2" />
    <MediaItem id="237" filePath="C:\Users\SeanPM\Desktop\My Life Story\My life story (Modern Journaling folder)\Milestone 4\Resources\Images\!!! all\daily desktop screenshots\First 365 days\daily desktop screenshot 237 December 9th 2018.PNG" arWidth="1366" arHeight="768" duration="0" songTitle="" songArtist="" songAlbum="" songCopyrightUrl="" songArtistUrl="" songAudioFileUrl="" stabilizationMode="0" mediaItemType="2" />
    <MediaItem id="75" filePath="C:\Users\SeanPM\Desktop\My Life Story\My life story (Modern Journaling folder)\Milestone 4\Resources\Images\!!! all\daily desktop screenshots\First 365 days\daily desktop screenshot 75 June 30th 2018.PNG" arWidth="1366" arHeight="765" duration="0" songTitle="" songArtist="" songAlbum="" songCopyrightUrl="" songArtistUrl="" songAudioFileUrl="" stabilizationMode="0" mediaItemType="2" />
    <MediaItem id="238" filePath="C:\Users\SeanPM\Desktop\My Life Story\My life story (Modern Journaling folder)\Milestone 4\Resources\Images\!!! all\daily desktop screenshots\First 365 days\daily desktop screenshot 238 December 10th 2018.PNG" arWidth="1366" arHeight="768" duration="0" songTitle="" songArtist="" songAlbum="" songCopyrightUrl="" songArtistUrl="" songAudioFileUrl="" stabilizationMode="0" mediaItemType="2" />
    <MediaItem id="76" filePath="C:\Users\SeanPM\Desktop\My Life Story\My life story (Modern Journaling folder)\Milestone 4\Resources\Images\!!! all\daily desktop screenshots\First 365 days\daily desktop screenshot 76 July 1st 2018.PNG" arWidth="1366" arHeight="768" duration="0" songTitle="" songArtist="" songAlbum="" songCopyrightUrl="" songArtistUrl="" songAudioFileUrl="" stabilizationMode="0" mediaItemType="2" />
    <MediaItem id="239" filePath="C:\Users\SeanPM\Desktop\My Life Story\My life story (Modern Journaling folder)\Milestone 4\Resources\Images\!!! all\daily desktop screenshots\First 365 days\daily desktop screenshot 239 December 11th 2018.PNG" arWidth="1366" arHeight="768" duration="0" songTitle="" songArtist="" songAlbum="" songCopyrightUrl="" songArtistUrl="" songAudioFileUrl="" stabilizationMode="0" mediaItemType="2" />
    <MediaItem id="77" filePath="C:\Users\SeanPM\Desktop\My Life Story\My life story (Modern Journaling folder)\Milestone 4\Resources\Images\!!! all\daily desktop screenshots\First 365 days\daily desktop screenshot 77 July 2nd 2018.PNG" arWidth="1366" arHeight="768" duration="0" songTitle="" songArtist="" songAlbum="" songCopyrightUrl="" songArtistUrl="" songAudioFileUrl="" stabilizationMode="0" mediaItemType="2" />
    <MediaItem id="240" filePath="C:\Users\SeanPM\Desktop\My Life Story\My life story (Modern Journaling folder)\Milestone 4\Resources\Images\!!! all\daily desktop screenshots\First 365 days\daily desktop screenshot 240 December 12th 2018.PNG" arWidth="1366" arHeight="768" duration="0" songTitle="" songArtist="" songAlbum="" songCopyrightUrl="" songArtistUrl="" songAudioFileUrl="" stabilizationMode="0" mediaItemType="2" />
    <MediaItem id="78" filePath="C:\Users\SeanPM\Desktop\My Life Story\My life story (Modern Journaling folder)\Milestone 4\Resources\Images\!!! all\daily desktop screenshots\First 365 days\daily desktop screenshot 78 July 3rd 2018.PNG" arWidth="1366" arHeight="768" duration="0" songTitle="" songArtist="" songAlbum="" songCopyrightUrl="" songArtistUrl="" songAudioFileUrl="" stabilizationMode="0" mediaItemType="2" />
    <MediaItem id="241" filePath="C:\Users\SeanPM\Desktop\My Life Story\My life story (Modern Journaling folder)\Milestone 4\Resources\Images\!!! all\daily desktop screenshots\First 365 days\daily desktop screenshot 241 December 13th 2018.PNG" arWidth="1366" arHeight="768" duration="0" songTitle="" songArtist="" songAlbum="" songCopyrightUrl="" songArtistUrl="" songAudioFileUrl="" stabilizationMode="0" mediaItemType="2" />
    <MediaItem id="79" filePath="C:\Users\SeanPM\Desktop\My Life Story\My life story (Modern Journaling folder)\Milestone 4\Resources\Images\!!! all\daily desktop screenshots\First 365 days\daily desktop screenshot 79 July 4th 2018.PNG" arWidth="1366" arHeight="768" duration="0" songTitle="" songArtist="" songAlbum="" songCopyrightUrl="" songArtistUrl="" songAudioFileUrl="" stabilizationMode="0" mediaItemType="2" />
    <MediaItem id="242" filePath="C:\Users\SeanPM\Desktop\My Life Story\My life story (Modern Journaling folder)\Milestone 4\Resources\Images\!!! all\daily desktop screenshots\First 365 days\daily desktop screenshot 242 December 14th 2018.PNG" arWidth="1364" arHeight="768" duration="0" songTitle="" songArtist="" songAlbum="" songCopyrightUrl="" songArtistUrl="" songAudioFileUrl="" stabilizationMode="0" mediaItemType="2" />
    <MediaItem id="80" filePath="C:\Users\SeanPM\Desktop\My Life Story\My life story (Modern Journaling folder)\Milestone 4\Resources\Images\!!! all\daily desktop screenshots\First 365 days\daily desktop screenshot 80 July 5th 2018.PNG" arWidth="1366" arHeight="768" duration="0" songTitle="" songArtist="" songAlbum="" songCopyrightUrl="" songArtistUrl="" songAudioFileUrl="" stabilizationMode="0" mediaItemType="2" />
    <MediaItem id="243" filePath="C:\Users\SeanPM\Desktop\My Life Story\My life story (Modern Journaling folder)\Milestone 4\Resources\Images\!!! all\daily desktop screenshots\First 365 days\daily desktop screenshot 243.1 December 15th 2018.PNG" arWidth="1365" arHeight="768" duration="0" songTitle="" songArtist="" songAlbum="" songCopyrightUrl="" songArtistUrl="" songAudioFileUrl="" stabilizationMode="0" mediaItemType="2" />
    <MediaItem id="81" filePath="C:\Users\SeanPM\Desktop\My Life Story\My life story (Modern Journaling folder)\Milestone 4\Resources\Images\!!! all\daily desktop screenshots\First 365 days\daily desktop screenshot 81 July 6th 2018.PNG" arWidth="1366" arHeight="768" duration="0" songTitle="" songArtist="" songAlbum="" songCopyrightUrl="" songArtistUrl="" songAudioFileUrl="" stabilizationMode="0" mediaItemType="2" />
    <MediaItem id="244" filePath="C:\Users\SeanPM\Desktop\My Life Story\My life story (Modern Journaling folder)\Milestone 4\Resources\Images\!!! all\daily desktop screenshots\First 365 days\daily desktop screenshot 244 December 16th 2018.PNG" arWidth="1366" arHeight="768" duration="0" songTitle="" songArtist="" songAlbum="" songCopyrightUrl="" songArtistUrl="" songAudioFileUrl="" stabilizationMode="0" mediaItemType="2" />
    <MediaItem id="82" filePath="C:\Users\SeanPM\Desktop\My Life Story\My life story (Modern Journaling folder)\Milestone 4\Resources\Images\!!! all\daily desktop screenshots\First 365 days\daily desktop screenshot 82 July 7th 2018.PNG" arWidth="1366" arHeight="768" duration="0" songTitle="" songArtist="" songAlbum="" songCopyrightUrl="" songArtistUrl="" songAudioFileUrl="" stabilizationMode="0" mediaItemType="2" />
    <MediaItem id="245" filePath="C:\Users\SeanPM\Desktop\My Life Story\My life story (Modern Journaling folder)\Milestone 4\Resources\Images\!!! all\daily desktop screenshots\First 365 days\daily desktop screenshot 245 December 17th 2018.PNG" arWidth="1366" arHeight="768" duration="0" songTitle="" songArtist="" songAlbum="" songCopyrightUrl="" songArtistUrl="" songAudioFileUrl="" stabilizationMode="0" mediaItemType="2" />
    <MediaItem id="83" filePath="C:\Users\SeanPM\Desktop\My Life Story\My life story (Modern Journaling folder)\Milestone 4\Resources\Images\!!! all\daily desktop screenshots\First 365 days\daily desktop screenshot 83 July 8th 2018.PNG" arWidth="1366" arHeight="768" duration="0" songTitle="" songArtist="" songAlbum="" songCopyrightUrl="" songArtistUrl="" songAudioFileUrl="" stabilizationMode="0" mediaItemType="2" />
    <MediaItem id="246" filePath="C:\Users\SeanPM\Desktop\My Life Story\My life story (Modern Journaling folder)\Milestone 4\Resources\Images\!!! all\daily desktop screenshots\First 365 days\daily desktop screenshot 246 December 18th 2018.PNG" arWidth="1366" arHeight="766" duration="0" songTitle="" songArtist="" songAlbum="" songCopyrightUrl="" songArtistUrl="" songAudioFileUrl="" stabilizationMode="0" mediaItemType="2" />
    <MediaItem id="84" filePath="C:\Users\SeanPM\Desktop\My Life Story\My life story (Modern Journaling folder)\Milestone 4\Resources\Images\!!! all\daily desktop screenshots\First 365 days\daily desktop screenshot 84 July 9th 2018.PNG" arWidth="1366" arHeight="768" duration="0" songTitle="" songArtist="" songAlbum="" songCopyrightUrl="" songArtistUrl="" songAudioFileUrl="" stabilizationMode="0" mediaItemType="2" />
    <MediaItem id="247" filePath="C:\Users\SeanPM\Desktop\My Life Story\My life story (Modern Journaling folder)\Milestone 4\Resources\Images\!!! all\daily desktop screenshots\First 365 days\daily desktop screenshot 247 December 19th 2018.PNG" arWidth="1366" arHeight="768" duration="0" songTitle="" songArtist="" songAlbum="" songCopyrightUrl="" songArtistUrl="" songAudioFileUrl="" stabilizationMode="0" mediaItemType="2" />
    <MediaItem id="85" filePath="C:\Users\SeanPM\Desktop\My Life Story\My life story (Modern Journaling folder)\Milestone 4\Resources\Images\!!! all\daily desktop screenshots\First 365 days\daily desktop screenshot 85 July 10th 2018.PNG" arWidth="1366" arHeight="765" duration="0" songTitle="" songArtist="" songAlbum="" songCopyrightUrl="" songArtistUrl="" songAudioFileUrl="" stabilizationMode="0" mediaItemType="2" />
    <MediaItem id="248" filePath="C:\Users\SeanPM\Desktop\My Life Story\My life story (Modern Journaling folder)\Milestone 4\Resources\Images\!!! all\daily desktop screenshots\First 365 days\daily desktop screenshot 248 December 20th 2018.PNG" arWidth="1365" arHeight="766" duration="0" songTitle="" songArtist="" songAlbum="" songCopyrightUrl="" songArtistUrl="" songAudioFileUrl="" stabilizationMode="0" mediaItemType="2" />
    <MediaItem id="86" filePath="C:\Users\SeanPM\Desktop\My Life Story\My life story (Modern Journaling folder)\Milestone 4\Resources\Images\!!! all\daily desktop screenshots\First 365 days\daily desktop screenshot 86 July 11th 2018.PNG" arWidth="1366" arHeight="768" duration="0" songTitle="" songArtist="" songAlbum="" songCopyrightUrl="" songArtistUrl="" songAudioFileUrl="" stabilizationMode="0" mediaItemType="2" />
    <MediaItem id="249" filePath="C:\Users\SeanPM\Desktop\My Life Story\My life story (Modern Journaling folder)\Milestone 4\Resources\Images\!!! all\daily desktop screenshots\First 365 days\daily desktop screenshot 249 December 21st 2018.PNG" arWidth="1366" arHeight="768" duration="0" songTitle="" songArtist="" songAlbum="" songCopyrightUrl="" songArtistUrl="" songAudioFileUrl="" stabilizationMode="0" mediaItemType="2" />
    <MediaItem id="87" filePath="C:\Users\SeanPM\Desktop\My Life Story\My life story (Modern Journaling folder)\Milestone 4\Resources\Images\!!! all\daily desktop screenshots\First 365 days\daily desktop screenshot 87 July 12th 2018.PNG" arWidth="1366" arHeight="768" duration="0" songTitle="" songArtist="" songAlbum="" songCopyrightUrl="" songArtistUrl="" songAudioFileUrl="" stabilizationMode="0" mediaItemType="2" />
    <MediaItem id="250" filePath="C:\Users\SeanPM\Desktop\My Life Story\My life story (Modern Journaling folder)\Milestone 4\Resources\Images\!!! all\daily desktop screenshots\First 365 days\daily desktop screenshot 250 December 22nd 2018.PNG" arWidth="1366" arHeight="768" duration="0" songTitle="" songArtist="" songAlbum="" songCopyrightUrl="" songArtistUrl="" songAudioFileUrl="" stabilizationMode="0" mediaItemType="2" />
    <MediaItem id="88" filePath="C:\Users\SeanPM\Desktop\My Life Story\My life story (Modern Journaling folder)\Milestone 4\Resources\Images\!!! all\daily desktop screenshots\First 365 days\daily desktop screenshot 88 July 13th 2018.PNG" arWidth="1366" arHeight="768" duration="0" songTitle="" songArtist="" songAlbum="" songCopyrightUrl="" songArtistUrl="" songAudioFileUrl="" stabilizationMode="0" mediaItemType="2" />
    <MediaItem id="251" filePath="C:\Users\SeanPM\Desktop\My Life Story\My life story (Modern Journaling folder)\Milestone 4\Resources\Images\!!! all\daily desktop screenshots\First 365 days\daily desktop screenshot 251 December 23rd 2018.PNG" arWidth="1366" arHeight="768" duration="0" songTitle="" songArtist="" songAlbum="" songCopyrightUrl="" songArtistUrl="" songAudioFileUrl="" stabilizationMode="0" mediaItemType="2" />
    <MediaItem id="89" filePath="C:\Users\SeanPM\Desktop\My Life Story\My life story (Modern Journaling folder)\Milestone 4\Resources\Images\!!! all\daily desktop screenshots\First 365 days\daily desktop screenshot 89 July 14th 2018.PNG" arWidth="1366" arHeight="767" duration="0" songTitle="" songArtist="" songAlbum="" songCopyrightUrl="" songArtistUrl="" songAudioFileUrl="" stabilizationMode="0" mediaItemType="2" />
    <MediaItem id="252" filePath="C:\Users\SeanPM\Desktop\My Life Story\My life story (Modern Journaling folder)\Milestone 4\Resources\Images\!!! all\daily desktop screenshots\First 365 days\daily desktop screenshot 252 December 24th 2018.PNG" arWidth="1366" arHeight="768" duration="0" songTitle="" songArtist="" songAlbum="" songCopyrightUrl="" songArtistUrl="" songAudioFileUrl="" stabilizationMode="0" mediaItemType="2" />
    <MediaItem id="90" filePath="C:\Users\SeanPM\Desktop\My Life Story\My life story (Modern Journaling folder)\Milestone 4\Resources\Images\!!! all\daily desktop screenshots\First 365 days\daily desktop screenshot 90 July 15th 2018.PNG" arWidth="1366" arHeight="767" duration="0" songTitle="" songArtist="" songAlbum="" songCopyrightUrl="" songArtistUrl="" songAudioFileUrl="" stabilizationMode="0" mediaItemType="2" />
    <MediaItem id="253" filePath="C:\Users\SeanPM\Desktop\My Life Story\My life story (Modern Journaling folder)\Milestone 4\Resources\Images\!!! all\daily desktop screenshots\First 365 days\daily desktop screenshot 255 December 27th 2018.PNG" arWidth="1366" arHeight="768" duration="0" songTitle="" songArtist="" songAlbum="" songCopyrightUrl="" songArtistUrl="" songAudioFileUrl="" stabilizationMode="0" mediaItemType="2" />
    <MediaItem id="91" filePath="C:\Users\SeanPM\Desktop\My Life Story\My life story (Modern Journaling folder)\Milestone 4\Resources\Images\!!! all\daily desktop screenshots\First 365 days\daily desktop screenshot 91 July 16th 2018.PNG" arWidth="1366" arHeight="768" duration="0" songTitle="" songArtist="" songAlbum="" songCopyrightUrl="" songArtistUrl="" songAudioFileUrl="" stabilizationMode="0" mediaItemType="2" />
    <MediaItem id="254" filePath="C:\Users\SeanPM\Desktop\My Life Story\My life story (Modern Journaling folder)\Milestone 4\Resources\Images\!!! all\daily desktop screenshots\First 365 days\daily desktop screenshot 256 December 28th 2018.PNG" arWidth="1366" arHeight="768" duration="0" songTitle="" songArtist="" songAlbum="" songCopyrightUrl="" songArtistUrl="" songAudioFileUrl="" stabilizationMode="0" mediaItemType="2" />
    <MediaItem id="92" filePath="C:\Users\SeanPM\Desktop\My Life Story\My life story (Modern Journaling folder)\Milestone 4\Resources\Images\!!! all\daily desktop screenshots\First 365 days\daily desktop screenshot 92 July 17th 2018.PNG" arWidth="1366" arHeight="768" duration="0" songTitle="" songArtist="" songAlbum="" songCopyrightUrl="" songArtistUrl="" songAudioFileUrl="" stabilizationMode="0" mediaItemType="2" />
    <MediaItem id="255" filePath="C:\Users\SeanPM\Desktop\My Life Story\My life story (Modern Journaling folder)\Milestone 4\Resources\Images\!!! all\daily desktop screenshots\First 365 days\daily desktop screenshot 257 December 29th 2018.PNG" arWidth="1366" arHeight="768" duration="0" songTitle="" songArtist="" songAlbum="" songCopyrightUrl="" songArtistUrl="" songAudioFileUrl="" stabilizationMode="0" mediaItemType="2" />
    <MediaItem id="93" filePath="C:\Users\SeanPM\Desktop\My Life Story\My life story (Modern Journaling folder)\Milestone 4\Resources\Images\!!! all\daily desktop screenshots\First 365 days\daily desktop screenshot 93 July 18th 2018.PNG" arWidth="1366" arHeight="768" duration="0" songTitle="" songArtist="" songAlbum="" songCopyrightUrl="" songArtistUrl="" songAudioFileUrl="" stabilizationMode="0" mediaItemType="2" />
    <MediaItem id="256" filePath="C:\Users\SeanPM\Desktop\My Life Story\My life story (Modern Journaling folder)\Milestone 4\Resources\Images\!!! all\daily desktop screenshots\First 365 days\daily desktop screenshot 258 December 30th 2018.PNG" arWidth="1366" arHeight="768" duration="0" songTitle="" songArtist="" songAlbum="" songCopyrightUrl="" songArtistUrl="" songAudioFileUrl="" stabilizationMode="0" mediaItemType="2" />
    <MediaItem id="94" filePath="C:\Users\SeanPM\Desktop\My Life Story\My life story (Modern Journaling folder)\Milestone 4\Resources\Images\!!! all\daily desktop screenshots\First 365 days\daily desktop screenshot 94 July 19th 2018.PNG" arWidth="1366" arHeight="768" duration="0" songTitle="" songArtist="" songAlbum="" songCopyrightUrl="" songArtistUrl="" songAudioFileUrl="" stabilizationMode="0" mediaItemType="2" />
    <MediaItem id="257" filePath="C:\Users\SeanPM\Desktop\My Life Story\My life story (Modern Journaling folder)\Milestone 4\Resources\Images\!!! all\daily desktop screenshots\First 365 days\daily desktop screenshot 259 December 31st 2018.PNG" arWidth="1366" arHeight="768" duration="0" songTitle="" songArtist="" songAlbum="" songCopyrightUrl="" songArtistUrl="" songAudioFileUrl="" stabilizationMode="0" mediaItemType="2" />
    <MediaItem id="95" filePath="C:\Users\SeanPM\Desktop\My Life Story\My life story (Modern Journaling folder)\Milestone 4\Resources\Images\!!! all\daily desktop screenshots\First 365 days\daily desktop screenshot 95 July 20th 2018.PNG" arWidth="1366" arHeight="768" duration="0" songTitle="" songArtist="" songAlbum="" songCopyrightUrl="" songArtistUrl="" songAudioFileUrl="" stabilizationMode="0" mediaItemType="2" />
    <MediaItem id="258" filePath="C:\Users\SeanPM\Desktop\My Life Story\My life story (Modern Journaling folder)\Milestone 4\Resources\Images\!!! all\daily desktop screenshots\First 365 days\daily desktop screenshot 260 January 1st 2019.PNG" arWidth="1366" arHeight="768" duration="0" songTitle="" songArtist="" songAlbum="" songCopyrightUrl="" songArtistUrl="" songAudioFileUrl="" stabilizationMode="0" mediaItemType="2" />
    <MediaItem id="96" filePath="C:\Users\SeanPM\Desktop\My Life Story\My life story (Modern Journaling folder)\Milestone 4\Resources\Images\!!! all\daily desktop screenshots\First 365 days\daily desktop screenshot 96 July 21st 2018.PNG" arWidth="1366" arHeight="768" duration="0" songTitle="" songArtist="" songAlbum="" songCopyrightUrl="" songArtistUrl="" songAudioFileUrl="" stabilizationMode="0" mediaItemType="2" />
    <MediaItem id="259" filePath="C:\Users\SeanPM\Desktop\My Life Story\My life story (Modern Journaling folder)\Milestone 4\Resources\Images\!!! all\daily desktop screenshots\First 365 days\daily desktop screenshot 261 January 2nd 2019.PNG" arWidth="1366" arHeight="768" duration="0" songTitle="" songArtist="" songAlbum="" songCopyrightUrl="" songArtistUrl="" songAudioFileUrl="" stabilizationMode="0" mediaItemType="2" />
    <MediaItem id="97" filePath="C:\Users\SeanPM\Desktop\My Life Story\My life story (Modern Journaling folder)\Milestone 4\Resources\Images\!!! all\daily desktop screenshots\First 365 days\daily desktop screenshot 97 July 22nd 2018.PNG" arWidth="1366" arHeight="768" duration="0" songTitle="" songArtist="" songAlbum="" songCopyrightUrl="" songArtistUrl="" songAudioFileUrl="" stabilizationMode="0" mediaItemType="2" />
    <MediaItem id="260" filePath="C:\Users\SeanPM\Desktop\My Life Story\My life story (Modern Journaling folder)\Milestone 4\Resources\Images\!!! all\daily desktop screenshots\First 365 days\daily desktop screenshot 262 January 3rd 2019.PNG" arWidth="1366" arHeight="768" duration="0" songTitle="" songArtist="" songAlbum="" songCopyrightUrl="" songArtistUrl="" songAudioFileUrl="" stabilizationMode="0" mediaItemType="2" />
    <MediaItem id="98" filePath="C:\Users\SeanPM\Desktop\My Life Story\My life story (Modern Journaling folder)\Milestone 4\Resources\Images\!!! all\daily desktop screenshots\First 365 days\daily desktop screenshot 98 July 23rd 2018.PNG" arWidth="1366" arHeight="768" duration="0" songTitle="" songArtist="" songAlbum="" songCopyrightUrl="" songArtistUrl="" songAudioFileUrl="" stabilizationMode="0" mediaItemType="2" />
    <MediaItem id="261" filePath="C:\Users\SeanPM\Desktop\My Life Story\My life story (Modern Journaling folder)\Milestone 4\Resources\Images\!!! all\daily desktop screenshots\First 365 days\daily desktop screenshot 263 January 4th 2019.PNG" arWidth="1366" arHeight="768" duration="0" songTitle="" songArtist="" songAlbum="" songCopyrightUrl="" songArtistUrl="" songAudioFileUrl="" stabilizationMode="0" mediaItemType="2" />
    <MediaItem id="99" filePath="C:\Users\SeanPM\Desktop\My Life Story\My life story (Modern Journaling folder)\Milestone 4\Resources\Images\!!! all\daily desktop screenshots\First 365 days\daily desktop screenshot 99 July 24th 2018.PNG" arWidth="1366" arHeight="768" duration="0" songTitle="" songArtist="" songAlbum="" songCopyrightUrl="" songArtistUrl="" songAudioFileUrl="" stabilizationMode="0" mediaItemType="2" />
    <MediaItem id="262" filePath="C:\Users\SeanPM\Desktop\My Life Story\My life story (Modern Journaling folder)\Milestone 4\Resources\Images\!!! all\daily desktop screenshots\First 365 days\daily desktop screenshot 264 January 5th 2019.PNG" arWidth="1366" arHeight="768" duration="0" songTitle="" songArtist="" songAlbum="" songCopyrightUrl="" songArtistUrl="" songAudioFileUrl="" stabilizationMode="0" mediaItemType="2" />
    <MediaItem id="100" filePath="C:\Users\SeanPM\Desktop\My Life Story\My life story (Modern Journaling folder)\Milestone 4\Resources\Images\!!! all\daily desktop screenshots\First 365 days\daily desktop screenshot 100 July 25th 2018.PNG" arWidth="1366" arHeight="768" duration="0" songTitle="" songArtist="" songAlbum="" songCopyrightUrl="" songArtistUrl="" songAudioFileUrl="" stabilizationMode="0" mediaItemType="2" />
    <MediaItem id="263" filePath="C:\Users\SeanPM\Desktop\My Life Story\My life story (Modern Journaling folder)\Milestone 4\Resources\Images\!!! all\daily desktop screenshots\First 365 days\daily desktop screenshot 265 January 6th 2019.PNG" arWidth="1366" arHeight="768" duration="0" songTitle="" songArtist="" songAlbum="" songCopyrightUrl="" songArtistUrl="" songAudioFileUrl="" stabilizationMode="0" mediaItemType="2" />
    <MediaItem id="101" filePath="C:\Users\SeanPM\Desktop\My Life Story\My life story (Modern Journaling folder)\Milestone 4\Resources\Images\!!! all\daily desktop screenshots\First 365 days\daily desktop screenshot 101 July 26th 2018.PNG" arWidth="1366" arHeight="768" duration="0" songTitle="" songArtist="" songAlbum="" songCopyrightUrl="" songArtistUrl="" songAudioFileUrl="" stabilizationMode="0" mediaItemType="2" />
    <MediaItem id="264" filePath="C:\Users\SeanPM\Desktop\My Life Story\My life story (Modern Journaling folder)\Milestone 4\Resources\Images\!!! all\daily desktop screenshots\First 365 days\daily desktop screenshot 266 January 7th 2019.PNG" arWidth="1366" arHeight="768" duration="0" songTitle="" songArtist="" songAlbum="" songCopyrightUrl="" songArtistUrl="" songAudioFileUrl="" stabilizationMode="0" mediaItemType="2" />
    <MediaItem id="102" filePath="C:\Users\SeanPM\Desktop\My Life Story\My life story (Modern Journaling folder)\Milestone 4\Resources\Images\!!! all\daily desktop screenshots\First 365 days\daily desktop screenshot 102 July 27th 2018.PNG" arWidth="1366" arHeight="768" duration="0" songTitle="" songArtist="" songAlbum="" songCopyrightUrl="" songArtistUrl="" songAudioFileUrl="" stabilizationMode="0" mediaItemType="2" />
    <MediaItem id="265" filePath="C:\Users\SeanPM\Desktop\My Life Story\My life story (Modern Journaling folder)\Milestone 4\Resources\Images\!!! all\daily desktop screenshots\First 365 days\daily desktop screenshot 267 January 8th 2019.PNG" arWidth="1366" arHeight="768" duration="0" songTitle="" songArtist="" songAlbum="" songCopyrightUrl="" songArtistUrl="" songAudioFileUrl="" stabilizationMode="0" mediaItemType="2" />
    <MediaItem id="103" filePath="C:\Users\SeanPM\Desktop\My Life Story\My life story (Modern Journaling folder)\Milestone 4\Resources\Images\!!! all\daily desktop screenshots\First 365 days\daily desktop screenshot 103 July 28th 2018.PNG" arWidth="1366" arHeight="768" duration="0" songTitle="" songArtist="" songAlbum="" songCopyrightUrl="" songArtistUrl="" songAudioFileUrl="" stabilizationMode="0" mediaItemType="2" />
    <MediaItem id="266" filePath="C:\Users\SeanPM\Desktop\My Life Story\My life story (Modern Journaling folder)\Milestone 4\Resources\Images\!!! all\daily desktop screenshots\First 365 days\daily desktop screenshot 268 January 9th 2019.PNG" arWidth="1366" arHeight="768" duration="0" songTitle="" songArtist="" songAlbum="" songCopyrightUrl="" songArtistUrl="" songAudioFileUrl="" stabilizationMode="0" mediaItemType="2" />
    <MediaItem id="104" filePath="C:\Users\SeanPM\Desktop\My Life Story\My life story (Modern Journaling folder)\Milestone 4\Resources\Images\!!! all\daily desktop screenshots\First 365 days\daily desktop screenshot 104 July 29th 2018.PNG" arWidth="1366" arHeight="768" duration="0" songTitle="" songArtist="" songAlbum="" songCopyrightUrl="" songArtistUrl="" songAudioFileUrl="" stabilizationMode="0" mediaItemType="2" />
    <MediaItem id="267" filePath="C:\Users\SeanPM\Desktop\My Life Story\My life story (Modern Journaling folder)\Milestone 4\Resources\Images\!!! all\daily desktop screenshots\First 365 days\daily desktop screenshot 269 January 10th 2019.PNG" arWidth="1366" arHeight="768" duration="0" songTitle="" songArtist="" songAlbum="" songCopyrightUrl="" songArtistUrl="" songAudioFileUrl="" stabilizationMode="0" mediaItemType="2" />
    <MediaItem id="105" filePath="C:\Users\SeanPM\Desktop\My Life Story\My life story (Modern Journaling folder)\Milestone 4\Resources\Images\!!! all\daily desktop screenshots\First 365 days\daily desktop screenshot 105 July 30th 2018.PNG" arWidth="1366" arHeight="768" duration="0" songTitle="" songArtist="" songAlbum="" songCopyrightUrl="" songArtistUrl="" songAudioFileUrl="" stabilizationMode="0" mediaItemType="2" />
    <MediaItem id="268" filePath="C:\Users\SeanPM\Desktop\My Life Story\My life story (Modern Journaling folder)\Milestone 4\Resources\Images\!!! all\daily desktop screenshots\First 365 days\daily desktop screenshot 270 January 11th 2019.PNG" arWidth="1366" arHeight="768" duration="0" songTitle="" songArtist="" songAlbum="" songCopyrightUrl="" songArtistUrl="" songAudioFileUrl="" stabilizationMode="0" mediaItemType="2" />
    <MediaItem id="106" filePath="C:\Users\SeanPM\Desktop\My Life Story\My life story (Modern Journaling folder)\Milestone 4\Resources\Images\!!! all\daily desktop screenshots\First 365 days\daily desktop screenshot 106 July 31st 2018.PNG" arWidth="1366" arHeight="768" duration="0" songTitle="" songArtist="" songAlbum="" songCopyrightUrl="" songArtistUrl="" songAudioFileUrl="" stabilizationMode="0" mediaItemType="2" />
    <MediaItem id="269" filePath="C:\Users\SeanPM\Desktop\My Life Story\My life story (Modern Journaling folder)\Milestone 4\Resources\Images\!!! all\daily desktop screenshots\First 365 days\daily desktop screenshot 271 January 12th 2019.png" arWidth="1365" arHeight="767" duration="0" songTitle="" songArtist="" songAlbum="" songCopyrightUrl="" songArtistUrl="" songAudioFileUrl="" stabilizationMode="0" mediaItemType="2" />
    <MediaItem id="107" filePath="C:\Users\SeanPM\Desktop\My Life Story\My life story (Modern Journaling folder)\Milestone 4\Resources\Images\!!! all\daily desktop screenshots\First 365 days\daily desktop screenshot 107 August 1st 2018.PNG" arWidth="1366" arHeight="768" duration="0" songTitle="" songArtist="" songAlbum="" songCopyrightUrl="" songArtistUrl="" songAudioFileUrl="" stabilizationMode="0" mediaItemType="2" />
    <MediaItem id="270" filePath="C:\Users\SeanPM\Desktop\My Life Story\My life story (Modern Journaling folder)\Milestone 4\Resources\Images\!!! all\daily desktop screenshots\First 365 days\daily desktop screenshot 272 January 13th 2019.png" arWidth="1365" arHeight="767" duration="0" songTitle="" songArtist="" songAlbum="" songCopyrightUrl="" songArtistUrl="" songAudioFileUrl="" stabilizationMode="0" mediaItemType="2" />
    <MediaItem id="108" filePath="C:\Users\SeanPM\Desktop\My Life Story\My life story (Modern Journaling folder)\Milestone 4\Resources\Images\!!! all\daily desktop screenshots\First 365 days\daily desktop screenshot 108 August 2nd 2018.PNG" arWidth="1366" arHeight="768" duration="0" songTitle="" songArtist="" songAlbum="" songCopyrightUrl="" songArtistUrl="" songAudioFileUrl="" stabilizationMode="0" mediaItemType="2" />
    <MediaItem id="271" filePath="C:\Users\SeanPM\Desktop\My Life Story\My life story (Modern Journaling folder)\Milestone 4\Resources\Images\!!! all\daily desktop screenshots\First 365 days\daily desktop screenshot 273 January 14th 2019.png" arWidth="1365" arHeight="767" duration="0" songTitle="" songArtist="" songAlbum="" songCopyrightUrl="" songArtistUrl="" songAudioFileUrl="" stabilizationMode="0" mediaItemType="2" />
    <MediaItem id="109" filePath="C:\Users\SeanPM\Desktop\My Life Story\My life story (Modern Journaling folder)\Milestone 4\Resources\Images\!!! all\daily desktop screenshots\First 365 days\daily desktop screenshot 109 August 3rd 2018.PNG" arWidth="1366" arHeight="768" duration="0" songTitle="" songArtist="" songAlbum="" songCopyrightUrl="" songArtistUrl="" songAudioFileUrl="" stabilizationMode="0" mediaItemType="2" />
    <MediaItem id="272" filePath="C:\Users\SeanPM\Desktop\My Life Story\My life story (Modern Journaling folder)\Milestone 4\Resources\Images\!!! all\daily desktop screenshots\First 365 days\daily desktop screenshot 274 January 15th 2019.png" arWidth="1365" arHeight="767" duration="0" songTitle="" songArtist="" songAlbum="" songCopyrightUrl="" songArtistUrl="" songAudioFileUrl="" stabilizationMode="0" mediaItemType="2" />
    <MediaItem id="110" filePath="C:\Users\SeanPM\Desktop\My Life Story\My life story (Modern Journaling folder)\Milestone 4\Resources\Images\!!! all\daily desktop screenshots\First 365 days\daily desktop screenshot 110 August 4th 2018.PNG" arWidth="1366" arHeight="768" duration="0" songTitle="" songArtist="" songAlbum="" songCopyrightUrl="" songArtistUrl="" songAudioFileUrl="" stabilizationMode="0" mediaItemType="2" />
    <MediaItem id="273" filePath="C:\Users\SeanPM\Desktop\My Life Story\My life story (Modern Journaling folder)\Milestone 4\Resources\Images\!!! all\daily desktop screenshots\First 365 days\daily desktop screenshot 275 January 16th 2019.png" arWidth="1365" arHeight="767" duration="0" songTitle="" songArtist="" songAlbum="" songCopyrightUrl="" songArtistUrl="" songAudioFileUrl="" stabilizationMode="0" mediaItemType="2" />
    <MediaItem id="111" filePath="C:\Users\SeanPM\Desktop\My Life Story\My life story (Modern Journaling folder)\Milestone 4\Resources\Images\!!! all\daily desktop screenshots\First 365 days\daily desktop screenshot 111 August 5th 2018.PNG" arWidth="1366" arHeight="768" duration="0" songTitle="" songArtist="" songAlbum="" songCopyrightUrl="" songArtistUrl="" songAudioFileUrl="" stabilizationMode="0" mediaItemType="2" />
    <MediaItem id="274" filePath="C:\Users\SeanPM\Desktop\My Life Story\My life story (Modern Journaling folder)\Milestone 4\Resources\Images\!!! all\daily desktop screenshots\First 365 days\daily desktop screenshot 276 January 17th 2019.png" arWidth="1365" arHeight="767" duration="0" songTitle="" songArtist="" songAlbum="" songCopyrightUrl="" songArtistUrl="" songAudioFileUrl="" stabilizationMode="0" mediaItemType="2" />
    <MediaItem id="112" filePath="C:\Users\SeanPM\Desktop\My Life Story\My life story (Modern Journaling folder)\Milestone 4\Resources\Images\!!! all\daily desktop screenshots\First 365 days\daily desktop screenshot 112 August 6th 2018.PNG" arWidth="1366" arHeight="768" duration="0" songTitle="" songArtist="" songAlbum="" songCopyrightUrl="" songArtistUrl="" songAudioFileUrl="" stabilizationMode="0" mediaItemType="2" />
    <MediaItem id="275" filePath="C:\Users\SeanPM\Desktop\My Life Story\My life story (Modern Journaling folder)\Milestone 4\Resources\Images\!!! all\daily desktop screenshots\First 365 days\daily desktop screenshot 277 January 18th 2019.png" arWidth="1365" arHeight="767" duration="0" songTitle="" songArtist="" songAlbum="" songCopyrightUrl="" songArtistUrl="" songAudioFileUrl="" stabilizationMode="0" mediaItemType="2" />
    <MediaItem id="113" filePath="C:\Users\SeanPM\Desktop\My Life Story\My life story (Modern Journaling folder)\Milestone 4\Resources\Images\!!! all\daily desktop screenshots\First 365 days\daily desktop screenshot 113 August 7th 2018.PNG" arWidth="1366" arHeight="768" duration="0" songTitle="" songArtist="" songAlbum="" songCopyrightUrl="" songArtistUrl="" songAudioFileUrl="" stabilizationMode="0" mediaItemType="2" />
    <MediaItem id="276" filePath="C:\Users\SeanPM\Desktop\My Life Story\My life story (Modern Journaling folder)\Milestone 4\Resources\Images\!!! all\daily desktop screenshots\First 365 days\daily desktop screenshot 278 January 19th 2019.png" arWidth="1365" arHeight="767" duration="0" songTitle="" songArtist="" songAlbum="" songCopyrightUrl="" songArtistUrl="" songAudioFileUrl="" stabilizationMode="0" mediaItemType="2" />
    <MediaItem id="114" filePath="C:\Users\SeanPM\Desktop\My Life Story\My life story (Modern Journaling folder)\Milestone 4\Resources\Images\!!! all\daily desktop screenshots\First 365 days\daily desktop screenshot 114 August 8th 2018.PNG" arWidth="1366" arHeight="768" duration="0" songTitle="" songArtist="" songAlbum="" songCopyrightUrl="" songArtistUrl="" songAudioFileUrl="" stabilizationMode="0" mediaItemType="2" />
    <MediaItem id="277" filePath="C:\Users\SeanPM\Desktop\My Life Story\My life story (Modern Journaling folder)\Milestone 4\Resources\Images\!!! all\daily desktop screenshots\First 365 days\daily desktop screenshot 279 January 20th 2019.png" arWidth="1365" arHeight="767" duration="0" songTitle="" songArtist="" songAlbum="" songCopyrightUrl="" songArtistUrl="" songAudioFileUrl="" stabilizationMode="0" mediaItemType="2" />
    <MediaItem id="115" filePath="C:\Users\SeanPM\Desktop\My Life Story\My life story (Modern Journaling folder)\Milestone 4\Resources\Images\!!! all\daily desktop screenshots\First 365 days\daily desktop screenshot 115 August 9th 2018.PNG" arWidth="1366" arHeight="768" duration="0" songTitle="" songArtist="" songAlbum="" songCopyrightUrl="" songArtistUrl="" songAudioFileUrl="" stabilizationMode="0" mediaItemType="2" />
    <MediaItem id="278" filePath="C:\Users\SeanPM\Desktop\My Life Story\My life story (Modern Journaling folder)\Milestone 4\Resources\Images\!!! all\daily desktop screenshots\First 365 days\daily desktop screenshot 280 January 21st 2019.png" arWidth="1365" arHeight="767" duration="0" songTitle="" songArtist="" songAlbum="" songCopyrightUrl="" songArtistUrl="" songAudioFileUrl="" stabilizationMode="0" mediaItemType="2" />
    <MediaItem id="116" filePath="C:\Users\SeanPM\Desktop\My Life Story\My life story (Modern Journaling folder)\Milestone 4\Resources\Images\!!! all\daily desktop screenshots\First 365 days\daily desktop screenshot 116 August 10th 2018.PNG" arWidth="1366" arHeight="768" duration="0" songTitle="" songArtist="" songAlbum="" songCopyrightUrl="" songArtistUrl="" songAudioFileUrl="" stabilizationMode="0" mediaItemType="2" />
    <MediaItem id="279" filePath="C:\Users\SeanPM\Desktop\My Life Story\My life story (Modern Journaling folder)\Milestone 4\Resources\Images\!!! all\daily desktop screenshots\First 365 days\daily desktop screenshot 281 January 22nd 2019.png" arWidth="1365" arHeight="767" duration="0" songTitle="" songArtist="" songAlbum="" songCopyrightUrl="" songArtistUrl="" songAudioFileUrl="" stabilizationMode="0" mediaItemType="2" />
    <MediaItem id="117" filePath="C:\Users\SeanPM\Desktop\My Life Story\My life story (Modern Journaling folder)\Milestone 4\Resources\Images\!!! all\daily desktop screenshots\First 365 days\daily desktop screenshot 117 August 11th 2018.PNG" arWidth="1366" arHeight="768" duration="0" songTitle="" songArtist="" songAlbum="" songCopyrightUrl="" songArtistUrl="" songAudioFileUrl="" stabilizationMode="0" mediaItemType="2" />
    <MediaItem id="280" filePath="C:\Users\SeanPM\Desktop\My Life Story\My life story (Modern Journaling folder)\Milestone 4\Resources\Images\!!! all\daily desktop screenshots\First 365 days\daily desktop screenshot 282 January 23rd 2019.png" arWidth="1365" arHeight="767" duration="0" songTitle="" songArtist="" songAlbum="" songCopyrightUrl="" songArtistUrl="" songAudioFileUrl="" stabilizationMode="0" mediaItemType="2" />
    <MediaItem id="118" filePath="C:\Users\SeanPM\Desktop\My Life Story\My life story (Modern Journaling folder)\Milestone 4\Resources\Images\!!! all\daily desktop screenshots\First 365 days\daily desktop screenshot 118 August 12th 2018.PNG" arWidth="1366" arHeight="768" duration="0" songTitle="" songArtist="" songAlbum="" songCopyrightUrl="" songArtistUrl="" songAudioFileUrl="" stabilizationMode="0" mediaItemType="2" />
    <MediaItem id="281" filePath="C:\Users\SeanPM\Desktop\My Life Story\My life story (Modern Journaling folder)\Milestone 4\Resources\Images\!!! all\daily desktop screenshots\First 365 days\daily desktop screenshot 283 January 24th 2019.png" arWidth="1365" arHeight="767" duration="0" songTitle="" songArtist="" songAlbum="" songCopyrightUrl="" songArtistUrl="" songAudioFileUrl="" stabilizationMode="0" mediaItemType="2" />
    <MediaItem id="119" filePath="C:\Users\SeanPM\Desktop\My Life Story\My life story (Modern Journaling folder)\Milestone 4\Resources\Images\!!! all\daily desktop screenshots\First 365 days\daily desktop screenshot 119 August 13th 2018.PNG" arWidth="1366" arHeight="768" duration="0" songTitle="" songArtist="" songAlbum="" songCopyrightUrl="" songArtistUrl="" songAudioFileUrl="" stabilizationMode="0" mediaItemType="2" />
    <MediaItem id="282" filePath="C:\Users\SeanPM\Desktop\My Life Story\My life story (Modern Journaling folder)\Milestone 4\Resources\Images\!!! all\daily desktop screenshots\First 365 days\daily desktop screenshot 284 January 25th 2019.png" arWidth="1365" arHeight="767" duration="0" songTitle="" songArtist="" songAlbum="" songCopyrightUrl="" songArtistUrl="" songAudioFileUrl="" stabilizationMode="0" mediaItemType="2" />
    <MediaItem id="120" filePath="C:\Users\SeanPM\Desktop\My Life Story\My life story (Modern Journaling folder)\Milestone 4\Resources\Images\!!! all\daily desktop screenshots\First 365 days\daily desktop screenshot 120 August 14th 2018.PNG" arWidth="1366" arHeight="768" duration="0" songTitle="" songArtist="" songAlbum="" songCopyrightUrl="" songArtistUrl="" songAudioFileUrl="" stabilizationMode="0" mediaItemType="2" />
    <MediaItem id="283" filePath="C:\Users\SeanPM\Desktop\My Life Story\My life story (Modern Journaling folder)\Milestone 4\Resources\Images\!!! all\daily desktop screenshots\First 365 days\daily desktop screenshot 285 January 26th 2019.png" arWidth="1365" arHeight="767" duration="0" songTitle="" songArtist="" songAlbum="" songCopyrightUrl="" songArtistUrl="" songAudioFileUrl="" stabilizationMode="0" mediaItemType="2" />
    <MediaItem id="121" filePath="C:\Users\SeanPM\Desktop\My Life Story\My life story (Modern Journaling folder)\Milestone 4\Resources\Images\!!! all\daily desktop screenshots\First 365 days\daily desktop screenshot 121 August 15th 2018.PNG" arWidth="1366" arHeight="768" duration="0" songTitle="" songArtist="" songAlbum="" songCopyrightUrl="" songArtistUrl="" songAudioFileUrl="" stabilizationMode="0" mediaItemType="2" />
    <MediaItem id="284" filePath="C:\Users\SeanPM\Desktop\My Life Story\My life story (Modern Journaling folder)\Milestone 4\Resources\Images\!!! all\daily desktop screenshots\First 365 days\daily desktop screenshot 286 January 27th 2019.png" arWidth="1365" arHeight="766" duration="0" songTitle="" songArtist="" songAlbum="" songCopyrightUrl="" songArtistUrl="" songAudioFileUrl="" stabilizationMode="0" mediaItemType="2" />
    <MediaItem id="122" filePath="C:\Users\SeanPM\Desktop\My Life Story\My life story (Modern Journaling folder)\Milestone 4\Resources\Images\!!! all\daily desktop screenshots\First 365 days\daily desktop screenshot 122 August 16th 2018.PNG" arWidth="1366" arHeight="768" duration="0" songTitle="" songArtist="" songAlbum="" songCopyrightUrl="" songArtistUrl="" songAudioFileUrl="" stabilizationMode="0" mediaItemType="2" />
    <MediaItem id="285" filePath="C:\Users\SeanPM\Desktop\My Life Story\My life story (Modern Journaling folder)\Milestone 4\Resources\Images\!!! all\daily desktop screenshots\First 365 days\daily desktop screenshot 287 January 28th 2019.png" arWidth="1365" arHeight="767" duration="0" songTitle="" songArtist="" songAlbum="" songCopyrightUrl="" songArtistUrl="" songAudioFileUrl="" stabilizationMode="0" mediaItemType="2" />
    <MediaItem id="123" filePath="C:\Users\SeanPM\Desktop\My Life Story\My life story (Modern Journaling folder)\Milestone 4\Resources\Images\!!! all\daily desktop screenshots\First 365 days\daily desktop screenshot 123 August 17th 2018.PNG" arWidth="1366" arHeight="768" duration="0" songTitle="" songArtist="" songAlbum="" songCopyrightUrl="" songArtistUrl="" songAudioFileUrl="" stabilizationMode="0" mediaItemType="2" />
    <MediaItem id="286" filePath="C:\Users\SeanPM\Desktop\My Life Story\My life story (Modern Journaling folder)\Milestone 4\Resources\Images\!!! all\daily desktop screenshots\First 365 days\daily desktop screenshot 288 January 29th 2019.png" arWidth="1365" arHeight="767" duration="0" songTitle="" songArtist="" songAlbum="" songCopyrightUrl="" songArtistUrl="" songAudioFileUrl="" stabilizationMode="0" mediaItemType="2" />
    <MediaItem id="124" filePath="C:\Users\SeanPM\Desktop\My Life Story\My life story (Modern Journaling folder)\Milestone 4\Resources\Images\!!! all\daily desktop screenshots\First 365 days\daily desktop screenshot 124 August 18th 2018.PNG" arWidth="1366" arHeight="768" duration="0" songTitle="" songArtist="" songAlbum="" songCopyrightUrl="" songArtistUrl="" songAudioFileUrl="" stabilizationMode="0" mediaItemType="2" />
    <MediaItem id="287" filePath="C:\Users\SeanPM\Desktop\My Life Story\My life story (Modern Journaling folder)\Milestone 4\Resources\Images\!!! all\daily desktop screenshots\First 365 days\daily desktop screenshot 289 January 30th 2019.png" arWidth="1365" arHeight="767" duration="0" songTitle="" songArtist="" songAlbum="" songCopyrightUrl="" songArtistUrl="" songAudioFileUrl="" stabilizationMode="0" mediaItemType="2" />
    <MediaItem id="125" filePath="C:\Users\SeanPM\Desktop\My Life Story\My life story (Modern Journaling folder)\Milestone 4\Resources\Images\!!! all\daily desktop screenshots\First 365 days\daily desktop screenshot 125 August 19th 2018.PNG" arWidth="1366" arHeight="768" duration="0" songTitle="" songArtist="" songAlbum="" songCopyrightUrl="" songArtistUrl="" songAudioFileUrl="" stabilizationMode="0" mediaItemType="2" />
    <MediaItem id="288" filePath="C:\Users\SeanPM\Desktop\My Life Story\My life story (Modern Journaling folder)\Milestone 4\Resources\Images\!!! all\daily desktop screenshots\First 365 days\daily desktop screenshot 290 January 31st 2019.png" arWidth="1365" arHeight="756" duration="0" songTitle="" songArtist="" songAlbum="" songCopyrightUrl="" songArtistUrl="" songAudioFileUrl="" stabilizationMode="0" mediaItemType="2" />
    <MediaItem id="126" filePath="C:\Users\SeanPM\Desktop\My Life Story\My life story (Modern Journaling folder)\Milestone 4\Resources\Images\!!! all\daily desktop screenshots\First 365 days\daily desktop screenshot 126 August 20th 2018.PNG" arWidth="1366" arHeight="768" duration="0" songTitle="" songArtist="" songAlbum="" songCopyrightUrl="" songArtistUrl="" songAudioFileUrl="" stabilizationMode="0" mediaItemType="2" />
    <MediaItem id="289" filePath="C:\Users\SeanPM\Desktop\My Life Story\My life story (Modern Journaling folder)\Milestone 4\Resources\Images\!!! all\daily desktop screenshots\First 365 days\daily desktop screenshot 291 February 1st 2019.png" arWidth="1365" arHeight="767" duration="0" songTitle="" songArtist="" songAlbum="" songCopyrightUrl="" songArtistUrl="" songAudioFileUrl="" stabilizationMode="0" mediaItemType="2" />
    <MediaItem id="127" filePath="C:\Users\SeanPM\Desktop\My Life Story\My life story (Modern Journaling folder)\Milestone 4\Resources\Images\!!! all\daily desktop screenshots\First 365 days\daily desktop screenshot 127 August 21th 2018.PNG" arWidth="1366" arHeight="768" duration="0" songTitle="" songArtist="" songAlbum="" songCopyrightUrl="" songArtistUrl="" songAudioFileUrl="" stabilizationMode="0" mediaItemType="2" />
    <MediaItem id="290" filePath="C:\Users\SeanPM\Desktop\My Life Story\My life story (Modern Journaling folder)\Milestone 4\Resources\Images\!!! all\daily desktop screenshots\First 365 days\daily desktop screenshot 292 February 2nd 2019.png" arWidth="1365" arHeight="767" duration="0" songTitle="" songArtist="" songAlbum="" songCopyrightUrl="" songArtistUrl="" songAudioFileUrl="" stabilizationMode="0" mediaItemType="2" />
    <MediaItem id="128" filePath="C:\Users\SeanPM\Desktop\My Life Story\My life story (Modern Journaling folder)\Milestone 4\Resources\Images\!!! all\daily desktop screenshots\First 365 days\daily desktop screenshot 128 August 22nd 2018.PNG" arWidth="1366" arHeight="768" duration="0" songTitle="" songArtist="" songAlbum="" songCopyrightUrl="" songArtistUrl="" songAudioFileUrl="" stabilizationMode="0" mediaItemType="2" />
    <MediaItem id="291" filePath="C:\Users\SeanPM\Desktop\My Life Story\My life story (Modern Journaling folder)\Milestone 4\Resources\Images\!!! all\daily desktop screenshots\First 365 days\daily desktop screenshot 293 February 3rd 2019.png" arWidth="1365" arHeight="767" duration="0" songTitle="" songArtist="" songAlbum="" songCopyrightUrl="" songArtistUrl="" songAudioFileUrl="" stabilizationMode="0" mediaItemType="2" />
    <MediaItem id="129" filePath="C:\Users\SeanPM\Desktop\My Life Story\My life story (Modern Journaling folder)\Milestone 4\Resources\Images\!!! all\daily desktop screenshots\First 365 days\daily desktop screenshot 129 August 23rd 2018.PNG" arWidth="1366" arHeight="768" duration="0" songTitle="" songArtist="" songAlbum="" songCopyrightUrl="" songArtistUrl="" songAudioFileUrl="" stabilizationMode="0" mediaItemType="2" />
    <MediaItem id="292" filePath="C:\Users\SeanPM\Desktop\My Life Story\My life story (Modern Journaling folder)\Milestone 4\Resources\Images\!!! all\daily desktop screenshots\First 365 days\daily desktop screenshot 294 February 4th 2019.png" arWidth="1365" arHeight="767" duration="0" songTitle="" songArtist="" songAlbum="" songCopyrightUrl="" songArtistUrl="" songAudioFileUrl="" stabilizationMode="0" mediaItemType="2" />
    <MediaItem id="130" filePath="C:\Users\SeanPM\Desktop\My Life Story\My life story (Modern Journaling folder)\Milestone 4\Resources\Images\!!! all\daily desktop screenshots\First 365 days\daily desktop screenshot 130 August 24th 2018.PNG" arWidth="1366" arHeight="767" duration="0" songTitle="" songArtist="" songAlbum="" songCopyrightUrl="" songArtistUrl="" songAudioFileUrl="" stabilizationMode="0" mediaItemType="2" />
    <MediaItem id="293" filePath="C:\Users\SeanPM\Desktop\My Life Story\My life story (Modern Journaling folder)\Milestone 4\Resources\Images\!!! all\daily desktop screenshots\First 365 days\daily desktop screenshot 295 February 5th 2019.png" arWidth="1365" arHeight="767" duration="0" songTitle="" songArtist="" songAlbum="" songCopyrightUrl="" songArtistUrl="" songAudioFileUrl="" stabilizationMode="0" mediaItemType="2" />
    <MediaItem id="131" filePath="C:\Users\SeanPM\Desktop\My Life Story\My life story (Modern Journaling folder)\Milestone 4\Resources\Images\!!! all\daily desktop screenshots\First 365 days\daily desktop screenshot 131 August 25th 2018.PNG" arWidth="1366" arHeight="767" duration="0" songTitle="" songArtist="" songAlbum="" songCopyrightUrl="" songArtistUrl="" songAudioFileUrl="" stabilizationMode="0" mediaItemType="2" />
    <MediaItem id="294" filePath="C:\Users\SeanPM\Desktop\My Life Story\My life story (Modern Journaling folder)\Milestone 4\Resources\Images\!!! all\daily desktop screenshots\First 365 days\daily desktop screenshot 296 February 6th 2019.png" arWidth="1365" arHeight="762" duration="0" songTitle="" songArtist="" songAlbum="" songCopyrightUrl="" songArtistUrl="" songAudioFileUrl="" stabilizationMode="0" mediaItemType="2" />
    <MediaItem id="132" filePath="C:\Users\SeanPM\Desktop\My Life Story\My life story (Modern Journaling folder)\Milestone 4\Resources\Images\!!! all\daily desktop screenshots\First 365 days\daily desktop screenshot 132 August 26th 2018.PNG" arWidth="1366" arHeight="768" duration="0" songTitle="" songArtist="" songAlbum="" songCopyrightUrl="" songArtistUrl="" songAudioFileUrl="" stabilizationMode="0" mediaItemType="2" />
    <MediaItem id="295" filePath="C:\Users\SeanPM\Desktop\My Life Story\My life story (Modern Journaling folder)\Milestone 4\Resources\Images\!!! all\daily desktop screenshots\First 365 days\daily desktop screenshot 297 February 7th 2019.png" arWidth="1365" arHeight="767" duration="0" songTitle="" songArtist="" songAlbum="" songCopyrightUrl="" songArtistUrl="" songAudioFileUrl="" stabilizationMode="0" mediaItemType="2" />
    <MediaItem id="133" filePath="C:\Users\SeanPM\Desktop\My Life Story\My life story (Modern Journaling folder)\Milestone 4\Resources\Images\!!! all\daily desktop screenshots\First 365 days\daily desktop screenshot 133 August 27th 2018.PNG" arWidth="1366" arHeight="768" duration="0" songTitle="" songArtist="" songAlbum="" songCopyrightUrl="" songArtistUrl="" songAudioFileUrl="" stabilizationMode="0" mediaItemType="2" />
    <MediaItem id="296" filePath="C:\Users\SeanPM\Desktop\My Life Story\My life story (Modern Journaling folder)\Milestone 4\Resources\Images\!!! all\daily desktop screenshots\First 365 days\daily desktop screenshot 298 February 8th 2019.png" arWidth="1365" arHeight="767" duration="0" songTitle="" songArtist="" songAlbum="" songCopyrightUrl="" songArtistUrl="" songAudioFileUrl="" stabilizationMode="0" mediaItemType="2" />
    <MediaItem id="134" filePath="C:\Users\SeanPM\Desktop\My Life Story\My life story (Modern Journaling folder)\Milestone 4\Resources\Images\!!! all\daily desktop screenshots\First 365 days\daily desktop screenshot 134 August 28th 2018.PNG" arWidth="1366" arHeight="768" duration="0" songTitle="" songArtist="" songAlbum="" songCopyrightUrl="" songArtistUrl="" songAudioFileUrl="" stabilizationMode="0" mediaItemType="2" />
    <MediaItem id="297" filePath="C:\Users\SeanPM\Desktop\My Life Story\My life story (Modern Journaling folder)\Milestone 4\Resources\Images\!!! all\daily desktop screenshots\First 365 days\daily desktop screenshot 299 February 9th 2019.png" arWidth="1365" arHeight="767" duration="0" songTitle="" songArtist="" songAlbum="" songCopyrightUrl="" songArtistUrl="" songAudioFileUrl="" stabilizationMode="0" mediaItemType="2" />
    <MediaItem id="135" filePath="C:\Users\SeanPM\Desktop\My Life Story\My life story (Modern Journaling folder)\Milestone 4\Resources\Images\!!! all\daily desktop screenshots\First 365 days\daily desktop screenshot 135 August 29th 2018.PNG" arWidth="1366" arHeight="768" duration="0" songTitle="" songArtist="" songAlbum="" songCopyrightUrl="" songArtistUrl="" songAudioFileUrl="" stabilizationMode="0" mediaItemType="2" />
    <MediaItem id="298" filePath="C:\Users\SeanPM\Desktop\My Life Story\My life story (Modern Journaling folder)\Milestone 4\Resources\Images\!!! all\daily desktop screenshots\First 365 days\daily desktop screenshot 300 February 10th 2019.png" arWidth="1365" arHeight="767" duration="0" songTitle="" songArtist="" songAlbum="" songCopyrightUrl="" songArtistUrl="" songAudioFileUrl="" stabilizationMode="0" mediaItemType="2" />
    <MediaItem id="136" filePath="C:\Users\SeanPM\Desktop\My Life Story\My life story (Modern Journaling folder)\Milestone 4\Resources\Images\!!! all\daily desktop screenshots\First 365 days\daily desktop screenshot 136 August 30th 2018.PNG" arWidth="1366" arHeight="768" duration="0" songTitle="" songArtist="" songAlbum="" songCopyrightUrl="" songArtistUrl="" songAudioFileUrl="" stabilizationMode="0" mediaItemType="2" />
    <MediaItem id="299" filePath="C:\Users\SeanPM\Desktop\My Life Story\My life story (Modern Journaling folder)\Milestone 4\Resources\Images\!!! all\daily desktop screenshots\First 365 days\daily desktop screenshot 301 February 11th 2019.png" arWidth="1365" arHeight="767" duration="0" songTitle="" songArtist="" songAlbum="" songCopyrightUrl="" songArtistUrl="" songAudioFileUrl="" stabilizationMode="0" mediaItemType="2" />
    <MediaItem id="137" filePath="C:\Users\SeanPM\Desktop\My Life Story\My life story (Modern Journaling folder)\Milestone 4\Resources\Images\!!! all\daily desktop screenshots\First 365 days\daily desktop screenshot 137 August 31st 2018.PNG" arWidth="1366" arHeight="768" duration="0" songTitle="" songArtist="" songAlbum="" songCopyrightUrl="" songArtistUrl="" songAudioFileUrl="" stabilizationMode="0" mediaItemType="2" />
    <MediaItem id="300" filePath="C:\Users\SeanPM\Desktop\My Life Story\My life story (Modern Journaling folder)\Milestone 4\Resources\Images\!!! all\daily desktop screenshots\First 365 days\daily desktop screenshot 302 February 12th 2019.png" arWidth="1365" arHeight="767" duration="0" songTitle="" songArtist="" songAlbum="" songCopyrightUrl="" songArtistUrl="" songAudioFileUrl="" stabilizationMode="0" mediaItemType="2" />
    <MediaItem id="138" filePath="C:\Users\SeanPM\Desktop\My Life Story\My life story (Modern Journaling folder)\Milestone 4\Resources\Images\!!! all\daily desktop screenshots\First 365 days\daily desktop screenshot 138 September 1st 2018.PNG" arWidth="1365" arHeight="768" duration="0" songTitle="" songArtist="" songAlbum="" songCopyrightUrl="" songArtistUrl="" songAudioFileUrl="" stabilizationMode="0" mediaItemType="2" />
    <MediaItem id="301" filePath="C:\Users\SeanPM\Desktop\My Life Story\My life story (Modern Journaling folder)\Milestone 4\Resources\Images\!!! all\daily desktop screenshots\First 365 days\daily desktop screenshot 303 February 13th 2019.png" arWidth="1365" arHeight="767" duration="0" songTitle="" songArtist="" songAlbum="" songCopyrightUrl="" songArtistUrl="" songAudioFileUrl="" stabilizationMode="0" mediaItemType="2" />
    <MediaItem id="139" filePath="C:\Users\SeanPM\Desktop\My Life Story\My life story (Modern Journaling folder)\Milestone 4\Resources\Images\!!! all\daily desktop screenshots\First 365 days\daily desktop screenshot 139 September 2nd 2018.PNG" arWidth="1366" arHeight="768" duration="0" songTitle="" songArtist="" songAlbum="" songCopyrightUrl="" songArtistUrl="" songAudioFileUrl="" stabilizationMode="0" mediaItemType="2" />
    <MediaItem id="302" filePath="C:\Users\SeanPM\Desktop\My Life Story\My life story (Modern Journaling folder)\Milestone 4\Resources\Images\!!! all\daily desktop screenshots\First 365 days\daily desktop screenshot 304 February 14th 2019.png" arWidth="1365" arHeight="767" duration="0" songTitle="" songArtist="" songAlbum="" songCopyrightUrl="" songArtistUrl="" songAudioFileUrl="" stabilizationMode="0" mediaItemType="2" />
    <MediaItem id="140" filePath="C:\Users\SeanPM\Desktop\My Life Story\My life story (Modern Journaling folder)\Milestone 4\Resources\Images\!!! all\daily desktop screenshots\First 365 days\daily desktop screenshot 140 September 3rd 2018.PNG" arWidth="1366" arHeight="768" duration="0" songTitle="" songArtist="" songAlbum="" songCopyrightUrl="" songArtistUrl="" songAudioFileUrl="" stabilizationMode="0" mediaItemType="2" />
    <MediaItem id="303" filePath="C:\Users\SeanPM\Desktop\My Life Story\My life story (Modern Journaling folder)\Milestone 4\Resources\Images\!!! all\daily desktop screenshots\First 365 days\daily desktop screenshot 305 February 15th 2019.png" arWidth="1365" arHeight="767" duration="0" songTitle="" songArtist="" songAlbum="" songCopyrightUrl="" songArtistUrl="" songAudioFileUrl="" stabilizationMode="0" mediaItemType="2" />
    <MediaItem id="141" filePath="C:\Users\SeanPM\Desktop\My Life Story\My life story (Modern Journaling folder)\Milestone 4\Resources\Images\!!! all\daily desktop screenshots\First 365 days\daily desktop screenshot 141 September 4th 2018.PNG" arWidth="1366" arHeight="768" duration="0" songTitle="" songArtist="" songAlbum="" songCopyrightUrl="" songArtistUrl="" songAudioFileUrl="" stabilizationMode="0" mediaItemType="2" />
    <MediaItem id="304" filePath="C:\Users\SeanPM\Desktop\My Life Story\My life story (Modern Journaling folder)\Milestone 4\Resources\Images\!!! all\daily desktop screenshots\First 365 days\daily desktop screenshot 306 February 16th 2019.png" arWidth="1365" arHeight="767" duration="0" songTitle="" songArtist="" songAlbum="" songCopyrightUrl="" songArtistUrl="" songAudioFileUrl="" stabilizationMode="0" mediaItemType="2" />
    <MediaItem id="142" filePath="C:\Users\SeanPM\Desktop\My Life Story\My life story (Modern Journaling folder)\Milestone 4\Resources\Images\!!! all\daily desktop screenshots\First 365 days\daily desktop screenshot 142 September 5th 2018.PNG" arWidth="1366" arHeight="768" duration="0" songTitle="" songArtist="" songAlbum="" songCopyrightUrl="" songArtistUrl="" songAudioFileUrl="" stabilizationMode="0" mediaItemType="2" />
    <MediaItem id="305" filePath="C:\Users\SeanPM\Desktop\My Life Story\My life story (Modern Journaling folder)\Milestone 4\Resources\Images\!!! all\daily desktop screenshots\First 365 days\daily desktop screenshot 307 February 17th 2019.png" arWidth="1365" arHeight="767" duration="0" songTitle="" songArtist="" songAlbum="" songCopyrightUrl="" songArtistUrl="" songAudioFileUrl="" stabilizationMode="0" mediaItemType="2" />
    <MediaItem id="143" filePath="C:\Users\SeanPM\Desktop\My Life Story\My life story (Modern Journaling folder)\Milestone 4\Resources\Images\!!! all\daily desktop screenshots\First 365 days\daily desktop screenshot 143 September 6th 2018.PNG" arWidth="1366" arHeight="768" duration="0" songTitle="" songArtist="" songAlbum="" songCopyrightUrl="" songArtistUrl="" songAudioFileUrl="" stabilizationMode="0" mediaItemType="2" />
    <MediaItem id="306" filePath="C:\Users\SeanPM\Desktop\My Life Story\My life story (Modern Journaling folder)\Milestone 4\Resources\Images\!!! all\daily desktop screenshots\First 365 days\daily desktop screenshot 308 February 18th 2019.png" arWidth="1365" arHeight="767" duration="0" songTitle="" songArtist="" songAlbum="" songCopyrightUrl="" songArtistUrl="" songAudioFileUrl="" stabilizationMode="0" mediaItemType="2" />
    <MediaItem id="144" filePath="C:\Users\SeanPM\Desktop\My Life Story\My life story (Modern Journaling folder)\Milestone 4\Resources\Images\!!! all\daily desktop screenshots\First 365 days\daily desktop screenshot 144 September 7th 2018.PNG" arWidth="1366" arHeight="768" duration="0" songTitle="" songArtist="" songAlbum="" songCopyrightUrl="" songArtistUrl="" songAudioFileUrl="" stabilizationMode="0" mediaItemType="2" />
    <MediaItem id="307" filePath="C:\Users\SeanPM\Desktop\My Life Story\My life story (Modern Journaling folder)\Milestone 4\Resources\Images\!!! all\daily desktop screenshots\First 365 days\daily desktop screenshot 309 February 19th 2019.png" arWidth="1365" arHeight="767" duration="0" songTitle="" songArtist="" songAlbum="" songCopyrightUrl="" songArtistUrl="" songAudioFileUrl="" stabilizationMode="0" mediaItemType="2" />
    <MediaItem id="145" filePath="C:\Users\SeanPM\Desktop\My Life Story\My life story (Modern Journaling folder)\Milestone 4\Resources\Images\!!! all\daily desktop screenshots\First 365 days\daily desktop screenshot 145 September 8th 2018.PNG" arWidth="1366" arHeight="768" duration="0" songTitle="" songArtist="" songAlbum="" songCopyrightUrl="" songArtistUrl="" songAudioFileUrl="" stabilizationMode="0" mediaItemType="2" />
    <MediaItem id="308" filePath="C:\Users\SeanPM\Desktop\My Life Story\My life story (Modern Journaling folder)\Milestone 4\Resources\Images\!!! all\daily desktop screenshots\First 365 days\daily desktop screenshot 310 February 20th 2019.png" arWidth="1365" arHeight="767" duration="0" songTitle="" songArtist="" songAlbum="" songCopyrightUrl="" songArtistUrl="" songAudioFileUrl="" stabilizationMode="0" mediaItemType="2" />
    <MediaItem id="146" filePath="C:\Users\SeanPM\Desktop\My Life Story\My life story (Modern Journaling folder)\Milestone 4\Resources\Images\!!! all\daily desktop screenshots\First 365 days\daily desktop screenshot 146 September 9th 2018.PNG" arWidth="1366" arHeight="768" duration="0" songTitle="" songArtist="" songAlbum="" songCopyrightUrl="" songArtistUrl="" songAudioFileUrl="" stabilizationMode="0" mediaItemType="2" />
    <MediaItem id="309" filePath="C:\Users\SeanPM\Desktop\My Life Story\My life story (Modern Journaling folder)\Milestone 4\Resources\Images\!!! all\daily desktop screenshots\First 365 days\daily desktop screenshot 311 February 21st 2019.png" arWidth="1365" arHeight="767" duration="0" songTitle="" songArtist="" songAlbum="" songCopyrightUrl="" songArtistUrl="" songAudioFileUrl="" stabilizationMode="0" mediaItemType="2" />
    <MediaItem id="147" filePath="C:\Users\SeanPM\Desktop\My Life Story\My life story (Modern Journaling folder)\Milestone 4\Resources\Images\!!! all\daily desktop screenshots\First 365 days\daily desktop screenshot 147 September 10th 2018.PNG" arWidth="1366" arHeight="768" duration="0" songTitle="" songArtist="" songAlbum="" songCopyrightUrl="" songArtistUrl="" songAudioFileUrl="" stabilizationMode="0" mediaItemType="2" />
    <MediaItem id="310" filePath="C:\Users\SeanPM\Desktop\My Life Story\My life story (Modern Journaling folder)\Milestone 4\Resources\Images\!!! all\daily desktop screenshots\First 365 days\daily desktop screenshot 312 February 22nd 2019.png" arWidth="1365" arHeight="767" duration="0" songTitle="" songArtist="" songAlbum="" songCopyrightUrl="" songArtistUrl="" songAudioFileUrl="" stabilizationMode="0" mediaItemType="2" />
    <MediaItem id="148" filePath="C:\Users\SeanPM\Desktop\My Life Story\My life story (Modern Journaling folder)\Milestone 4\Resources\Images\!!! all\daily desktop screenshots\First 365 days\daily desktop screenshot 148 September 11th 2018.PNG" arWidth="1366" arHeight="768" duration="0" songTitle="" songArtist="" songAlbum="" songCopyrightUrl="" songArtistUrl="" songAudioFileUrl="" stabilizationMode="0" mediaItemType="2" />
    <MediaItem id="311" filePath="C:\Users\SeanPM\Desktop\My Life Story\My life story (Modern Journaling folder)\Milestone 4\Resources\Images\!!! all\daily desktop screenshots\First 365 days\daily desktop screenshot 313 February 23rd 2019.png" arWidth="1365" arHeight="767" duration="0" songTitle="" songArtist="" songAlbum="" songCopyrightUrl="" songArtistUrl="" songAudioFileUrl="" stabilizationMode="0" mediaItemType="2" />
    <MediaItem id="149" filePath="C:\Users\SeanPM\Desktop\My Life Story\My life story (Modern Journaling folder)\Milestone 4\Resources\Images\!!! all\daily desktop screenshots\First 365 days\daily desktop screenshot 149 September 12th 2018.PNG" arWidth="1366" arHeight="768" duration="0" songTitle="" songArtist="" songAlbum="" songCopyrightUrl="" songArtistUrl="" songAudioFileUrl="" stabilizationMode="0" mediaItemType="2" />
    <MediaItem id="312" filePath="C:\Users\SeanPM\Desktop\My Life Story\My life story (Modern Journaling folder)\Milestone 4\Resources\Images\!!! all\daily desktop screenshots\First 365 days\daily desktop screenshot 314 February 24th 2019.png" arWidth="1365" arHeight="767" duration="0" songTitle="" songArtist="" songAlbum="" songCopyrightUrl="" songArtistUrl="" songAudioFileUrl="" stabilizationMode="0" mediaItemType="2" />
    <MediaItem id="150" filePath="C:\Users\SeanPM\Desktop\My Life Story\My life story (Modern Journaling folder)\Milestone 4\Resources\Images\!!! all\daily desktop screenshots\First 365 days\daily desktop screenshot 150 September 13th 2018.PNG" arWidth="1366" arHeight="768" duration="0" songTitle="" songArtist="" songAlbum="" songCopyrightUrl="" songArtistUrl="" songAudioFileUrl="" stabilizationMode="0" mediaItemType="2" />
    <MediaItem id="313" filePath="C:\Users\SeanPM\Desktop\My Life Story\My life story (Modern Journaling folder)\Milestone 4\Resources\Images\!!! all\daily desktop screenshots\First 365 days\daily desktop screenshot 315 February 25th 2019.png" arWidth="1365" arHeight="767" duration="0" songTitle="" songArtist="" songAlbum="" songCopyrightUrl="" songArtistUrl="" songAudioFileUrl="" stabilizationMode="0" mediaItemType="2" />
    <MediaItem id="151" filePath="C:\Users\SeanPM\Desktop\My Life Story\My life story (Modern Journaling folder)\Milestone 4\Resources\Images\!!! all\daily desktop screenshots\First 365 days\daily desktop screenshot 151 September 14th 2018.PNG" arWidth="1366" arHeight="768" duration="0" songTitle="" songArtist="" songAlbum="" songCopyrightUrl="" songArtistUrl="" songAudioFileUrl="" stabilizationMode="0" mediaItemType="2" />
    <MediaItem id="314" filePath="C:\Users\SeanPM\Desktop\My Life Story\My life story (Modern Journaling folder)\Milestone 4\Resources\Images\!!! all\daily desktop screenshots\First 365 days\daily desktop screenshot 316 February 26th 2019.png" arWidth="1365" arHeight="767" duration="0" songTitle="" songArtist="" songAlbum="" songCopyrightUrl="" songArtistUrl="" songAudioFileUrl="" stabilizationMode="0" mediaItemType="2" />
    <MediaItem id="152" filePath="C:\Users\SeanPM\Desktop\My Life Story\My life story (Modern Journaling folder)\Milestone 4\Resources\Images\!!! all\daily desktop screenshots\First 365 days\daily desktop screenshot 152 September 15th 2018.PNG" arWidth="1366" arHeight="768" duration="0" songTitle="" songArtist="" songAlbum="" songCopyrightUrl="" songArtistUrl="" songAudioFileUrl="" stabilizationMode="0" mediaItemType="2" />
    <MediaItem id="315" filePath="C:\Users\SeanPM\Desktop\My Life Story\My life story (Modern Journaling folder)\Milestone 4\Resources\Images\!!! all\daily desktop screenshots\First 365 days\daily desktop screenshot 317 February 27th 2019.png" arWidth="1365" arHeight="767" duration="0" songTitle="" songArtist="" songAlbum="" songCopyrightUrl="" songArtistUrl="" songAudioFileUrl="" stabilizationMode="0" mediaItemType="2" />
    <MediaItem id="153" filePath="C:\Users\SeanPM\Desktop\My Life Story\My life story (Modern Journaling folder)\Milestone 4\Resources\Images\!!! all\daily desktop screenshots\First 365 days\daily desktop screenshot 153 September 16th 2018.PNG" arWidth="1366" arHeight="768" duration="0" songTitle="" songArtist="" songAlbum="" songCopyrightUrl="" songArtistUrl="" songAudioFileUrl="" stabilizationMode="0" mediaItemType="2" />
    <MediaItem id="316" filePath="C:\Users\SeanPM\Desktop\My Life Story\My life story (Modern Journaling folder)\Milestone 4\Resources\Images\!!! all\daily desktop screenshots\First 365 days\daily desktop screenshot 318 February 28th 2019.png" arWidth="1365" arHeight="767" duration="0" songTitle="" songArtist="" songAlbum="" songCopyrightUrl="" songArtistUrl="" songAudioFileUrl="" stabilizationMode="0" mediaItemType="2" />
    <MediaItem id="154" filePath="C:\Users\SeanPM\Desktop\My Life Story\My life story (Modern Journaling folder)\Milestone 4\Resources\Images\!!! all\daily desktop screenshots\First 365 days\daily desktop screenshot 154 September 17th 2018.PNG" arWidth="1366" arHeight="768" duration="0" songTitle="" songArtist="" songAlbum="" songCopyrightUrl="" songArtistUrl="" songAudioFileUrl="" stabilizationMode="0" mediaItemType="2" />
    <MediaItem id="317" filePath="C:\Users\SeanPM\Desktop\My Life Story\My life story (Modern Journaling folder)\Milestone 4\Resources\Images\!!! all\daily desktop screenshots\First 365 days\daily desktop screenshot 319 March 1st 2019.png" arWidth="1365" arHeight="763" duration="0" songTitle="" songArtist="" songAlbum="" songCopyrightUrl="" songArtistUrl="" songAudioFileUrl="" stabilizationMode="0" mediaItemType="2" />
    <MediaItem id="155" filePath="C:\Users\SeanPM\Desktop\My Life Story\My life story (Modern Journaling folder)\Milestone 4\Resources\Images\!!! all\daily desktop screenshots\First 365 days\daily desktop screenshot 155 September 18th 2018.PNG" arWidth="1366" arHeight="768" duration="0" songTitle="" songArtist="" songAlbum="" songCopyrightUrl="" songArtistUrl="" songAudioFileUrl="" stabilizationMode="0" mediaItemType="2" />
    <MediaItem id="318" filePath="C:\Users\SeanPM\Desktop\My Life Story\My life story (Modern Journaling folder)\Milestone 4\Resources\Images\!!! all\daily desktop screenshots\First 365 days\daily desktop screenshot 320 March 2nd 2019.png" arWidth="1365" arHeight="767" duration="0" songTitle="" songArtist="" songAlbum="" songCopyrightUrl="" songArtistUrl="" songAudioFileUrl="" stabilizationMode="0" mediaItemType="2" />
    <MediaItem id="156" filePath="C:\Users\SeanPM\Desktop\My Life Story\My life story (Modern Journaling folder)\Milestone 4\Resources\Images\!!! all\daily desktop screenshots\First 365 days\daily desktop screenshot 156 September 19th 2018.PNG" arWidth="1366" arHeight="768" duration="0" songTitle="" songArtist="" songAlbum="" songCopyrightUrl="" songArtistUrl="" songAudioFileUrl="" stabilizationMode="0" mediaItemType="2" />
    <MediaItem id="319" filePath="C:\Users\SeanPM\Desktop\My Life Story\My life story (Modern Journaling folder)\Milestone 4\Resources\Images\!!! all\daily desktop screenshots\First 365 days\daily desktop screenshot 321 March 3rd 2019.png" arWidth="1365" arHeight="767" duration="0" songTitle="" songArtist="" songAlbum="" songCopyrightUrl="" songArtistUrl="" songAudioFileUrl="" stabilizationMode="0" mediaItemType="2" />
    <MediaItem id="157" filePath="C:\Users\SeanPM\Desktop\My Life Story\My life story (Modern Journaling folder)\Milestone 4\Resources\Images\!!! all\daily desktop screenshots\First 365 days\daily desktop screenshot 157 September 20th 2018.PNG" arWidth="1366" arHeight="768" duration="0" songTitle="" songArtist="" songAlbum="" songCopyrightUrl="" songArtistUrl="" songAudioFileUrl="" stabilizationMode="0" mediaItemType="2" />
    <MediaItem id="320" filePath="C:\Users\SeanPM\Desktop\My Life Story\My life story (Modern Journaling folder)\Milestone 4\Resources\Images\!!! all\daily desktop screenshots\First 365 days\daily desktop screenshot 322 March 4th 2019.png" arWidth="1365" arHeight="767" duration="0" songTitle="" songArtist="" songAlbum="" songCopyrightUrl="" songArtistUrl="" songAudioFileUrl="" stabilizationMode="0" mediaItemType="2" />
    <MediaItem id="158" filePath="C:\Users\SeanPM\Desktop\My Life Story\My life story (Modern Journaling folder)\Milestone 4\Resources\Images\!!! all\daily desktop screenshots\First 365 days\daily desktop screenshot 158 September 21st 2018.PNG" arWidth="1366" arHeight="768" duration="0" songTitle="" songArtist="" songAlbum="" songCopyrightUrl="" songArtistUrl="" songAudioFileUrl="" stabilizationMode="0" mediaItemType="2" />
    <MediaItem id="321" filePath="C:\Users\SeanPM\Desktop\My Life Story\My life story (Modern Journaling folder)\Milestone 4\Resources\Images\!!! all\daily desktop screenshots\First 365 days\daily desktop screenshot 323 March 5th 2019.png" arWidth="1365" arHeight="767" duration="0" songTitle="" songArtist="" songAlbum="" songCopyrightUrl="" songArtistUrl="" songAudioFileUrl="" stabilizationMode="0" mediaItemType="2" />
    <MediaItem id="159" filePath="C:\Users\SeanPM\Desktop\My Life Story\My life story (Modern Journaling folder)\Milestone 4\Resources\Images\!!! all\daily desktop screenshots\First 365 days\daily desktop screenshot 159 September 22nd 2018.PNG" arWidth="1366" arHeight="768" duration="0" songTitle="" songArtist="" songAlbum="" songCopyrightUrl="" songArtistUrl="" songAudioFileUrl="" stabilizationMode="0" mediaItemType="2" />
    <MediaItem id="322" filePath="C:\Users\SeanPM\Desktop\My Life Story\My life story (Modern Journaling folder)\Milestone 4\Resources\Images\!!! all\daily desktop screenshots\First 365 days\daily desktop screenshot 324 March 6th 2019.png" arWidth="1365" arHeight="767" duration="0" songTitle="" songArtist="" songAlbum="" songCopyrightUrl="" songArtistUrl="" songAudioFileUrl="" stabilizationMode="0" mediaItemType="2" />
    <MediaItem id="160" filePath="C:\Users\SeanPM\Desktop\My Life Story\My life story (Modern Journaling folder)\Milestone 4\Resources\Images\!!! all\daily desktop screenshots\First 365 days\daily desktop screenshot 160 September 23rd 2018.PNG" arWidth="1366" arHeight="768" duration="0" songTitle="" songArtist="" songAlbum="" songCopyrightUrl="" songArtistUrl="" songAudioFileUrl="" stabilizationMode="0" mediaItemType="2" />
    <MediaItem id="323" filePath="C:\Users\SeanPM\Desktop\My Life Story\My life story (Modern Journaling folder)\Milestone 4\Resources\Images\!!! all\daily desktop screenshots\First 365 days\daily desktop screenshot 325 March 7th 2019.png" arWidth="1365" arHeight="766" duration="0" songTitle="" songArtist="" songAlbum="" songCopyrightUrl="" songArtistUrl="" songAudioFileUrl="" stabilizationMode="0" mediaItemType="2" />
    <MediaItem id="161" filePath="C:\Users\SeanPM\Desktop\My Life Story\My life story (Modern Journaling folder)\Milestone 4\Resources\Images\!!! all\daily desktop screenshots\First 365 days\daily desktop screenshot 161 September 24th 2018.PNG" arWidth="1366" arHeight="768" duration="0" songTitle="" songArtist="" songAlbum="" songCopyrightUrl="" songArtistUrl="" songAudioFileUrl="" stabilizationMode="0" mediaItemType="2" />
    <MediaItem id="324" filePath="C:\Users\SeanPM\Desktop\My Life Story\My life story (Modern Journaling folder)\Milestone 4\Resources\Images\!!! all\daily desktop screenshots\First 365 days\daily desktop screenshot 326 March 8th 2019.png" arWidth="1365" arHeight="767" duration="0" songTitle="" songArtist="" songAlbum="" songCopyrightUrl="" songArtistUrl="" songAudioFileUrl="" stabilizationMode="0" mediaItemType="2" />
    <MediaItem id="162" filePath="C:\Users\SeanPM\Desktop\My Life Story\My life story (Modern Journaling folder)\Milestone 4\Resources\Images\!!! all\daily desktop screenshots\First 365 days\daily desktop screenshot 162 September 25th 2018.PNG" arWidth="1366" arHeight="768" duration="0" songTitle="" songArtist="" songAlbum="" songCopyrightUrl="" songArtistUrl="" songAudioFileUrl="" stabilizationMode="0" mediaItemType="2" />
    <MediaItem id="325" filePath="C:\Users\SeanPM\Desktop\My Life Story\My life story (Modern Journaling folder)\Milestone 4\Resources\Images\!!! all\daily desktop screenshots\First 365 days\daily desktop screenshot 327 March 9th 2019.png" arWidth="1365" arHeight="767" duration="0" songTitle="" songArtist="" songAlbum="" songCopyrightUrl="" songArtistUrl="" songAudioFileUrl="" stabilizationMode="0" mediaItemType="2" />
  </MediaItems>
  <Extents>
    <ImageClip extentID="5" gapBefore="0" mediaItemID="1" duration="3">
      <Effects />
      <Transitions />
      <BoundProperties>
        <BoundPropertyInt Name="rotateStepNinety" Value="0" />
      </BoundProperties>
    </ImageClip>
    <ImageClip extentID="6" gapBefore="0" mediaItemID="2" duration="3">
      <Effects />
      <Transitions />
      <BoundProperties>
        <BoundPropertyInt Name="rotateStepNinety" Value="0" />
      </BoundProperties>
    </ImageClip>
    <ImageClip extentID="7" gapBefore="0" mediaItemID="3" duration="3">
      <Effects />
      <Transitions />
      <BoundProperties>
        <BoundPropertyInt Name="rotateStepNinety" Value="0" />
      </BoundProperties>
    </ImageClip>
    <ImageClip extentID="8" gapBefore="0" mediaItemID="4" duration="3">
      <Effects />
      <Transitions />
      <BoundProperties>
        <BoundPropertyInt Name="rotateStepNinety" Value="0" />
      </BoundProperties>
    </ImageClip>
    <ImageClip extentID="9" gapBefore="0" mediaItemID="5" duration="3">
      <Effects />
      <Transitions />
      <BoundProperties>
        <BoundPropertyInt Name="rotateStepNinety" Value="0" />
      </BoundProperties>
    </ImageClip>
    <ImageClip extentID="10" gapBefore="0" mediaItemID="6" duration="3">
      <Effects />
      <Transitions />
      <BoundProperties>
        <BoundPropertyInt Name="rotateStepNinety" Value="0" />
      </BoundProperties>
    </ImageClip>
    <ImageClip extentID="11" gapBefore="0" mediaItemID="7" duration="3">
      <Effects />
      <Transitions />
      <BoundProperties>
        <BoundPropertyInt Name="rotateStepNinety" Value="0" />
      </BoundProperties>
    </ImageClip>
    <ImageClip extentID="12" gapBefore="0" mediaItemID="8" duration="3">
      <Effects />
      <Transitions />
      <BoundProperties>
        <BoundPropertyInt Name="rotateStepNinety" Value="0" />
      </BoundProperties>
    </ImageClip>
    <ImageClip extentID="13" gapBefore="0" mediaItemID="9" duration="3">
      <Effects />
      <Transitions />
      <BoundProperties>
        <BoundPropertyInt Name="rotateStepNinety" Value="0" />
      </BoundProperties>
    </ImageClip>
    <ImageClip extentID="14" gapBefore="0" mediaItemID="10" duration="3">
      <Effects />
      <Transitions />
      <BoundProperties>
        <BoundPropertyInt Name="rotateStepNinety" Value="0" />
      </BoundProperties>
    </ImageClip>
    <ImageClip extentID="15" gapBefore="0" mediaItemID="11" duration="3">
      <Effects />
      <Transitions />
      <BoundProperties>
        <BoundPropertyInt Name="rotateStepNinety" Value="0" />
      </BoundProperties>
    </ImageClip>
    <ImageClip extentID="16" gapBefore="0" mediaItemID="12" duration="3">
      <Effects />
      <Transitions />
      <BoundProperties>
        <BoundPropertyInt Name="rotateStepNinety" Value="0" />
      </BoundProperties>
    </ImageClip>
    <ImageClip extentID="17" gapBefore="0" mediaItemID="13" duration="3">
      <Effects />
      <Transitions />
      <BoundProperties>
        <BoundPropertyInt Name="rotateStepNinety" Value="0" />
      </BoundProperties>
    </ImageClip>
    <ImageClip extentID="18" gapBefore="0" mediaItemID="14" duration="3">
      <Effects />
      <Transitions />
      <BoundProperties>
        <BoundPropertyInt Name="rotateStepNinety" Value="0" />
      </BoundProperties>
    </ImageClip>
    <ImageClip extentID="19" gapBefore="0" mediaItemID="15" duration="3">
      <Effects />
      <Transitions />
      <BoundProperties>
        <BoundPropertyInt Name="rotateStepNinety" Value="0" />
      </BoundProperties>
    </ImageClip>
    <ImageClip extentID="20" gapBefore="0" mediaItemID="16" duration="3">
      <Effects />
      <Transitions />
      <BoundProperties>
        <BoundPropertyInt Name="rotateStepNinety" Value="0" />
      </BoundProperties>
    </ImageClip>
    <ImageClip extentID="21" gapBefore="0" mediaItemID="17" duration="3">
      <Effects />
      <Transitions />
      <BoundProperties>
        <BoundPropertyInt Name="rotateStepNinety" Value="0" />
      </BoundProperties>
    </ImageClip>
    <ImageClip extentID="22" gapBefore="0" mediaItemID="18" duration="3">
      <Effects />
      <Transitions />
      <BoundProperties>
        <BoundPropertyInt Name="rotateStepNinety" Value="0" />
      </BoundProperties>
    </ImageClip>
    <ImageClip extentID="23" gapBefore="0" mediaItemID="19" duration="3">
      <Effects />
      <Transitions />
      <BoundProperties>
        <BoundPropertyInt Name="rotateStepNinety" Value="0" />
      </BoundProperties>
    </ImageClip>
    <ImageClip extentID="24" gapBefore="0" mediaItemID="20" duration="3">
      <Effects />
      <Transitions />
      <BoundProperties>
        <BoundPropertyInt Name="rotateStepNinety" Value="0" />
      </BoundProperties>
    </ImageClip>
    <ImageClip extentID="25" gapBefore="0" mediaItemID="21" duration="3">
      <Effects />
      <Transitions />
      <BoundProperties>
        <BoundPropertyInt Name="rotateStepNinety" Value="0" />
      </BoundProperties>
    </ImageClip>
    <ImageClip extentID="26" gapBefore="0" mediaItemID="22" duration="3">
      <Effects />
      <Transitions />
      <BoundProperties>
        <BoundPropertyInt Name="rotateStepNinety" Value="0" />
      </BoundProperties>
    </ImageClip>
    <ImageClip extentID="27" gapBefore="0" mediaItemID="23" duration="3">
      <Effects />
      <Transitions />
      <BoundProperties>
        <BoundPropertyInt Name="rotateStepNinety" Value="0" />
      </BoundProperties>
    </ImageClip>
    <ImageClip extentID="28" gapBefore="0" mediaItemID="24" duration="3">
      <Effects />
      <Transitions />
      <BoundProperties>
        <BoundPropertyInt Name="rotateStepNinety" Value="0" />
      </BoundProperties>
    </ImageClip>
    <ImageClip extentID="29" gapBefore="0" mediaItemID="25" duration="3">
      <Effects />
      <Transitions />
      <BoundProperties>
        <BoundPropertyInt Name="rotateStepNinety" Value="0" />
      </BoundProperties>
    </ImageClip>
    <ImageClip extentID="30" gapBefore="0" mediaItemID="26" duration="3">
      <Effects />
      <Transitions />
      <BoundProperties>
        <BoundPropertyInt Name="rotateStepNinety" Value="0" />
      </BoundProperties>
    </ImageClip>
    <ImageClip extentID="31" gapBefore="0" mediaItemID="27" duration="3">
      <Effects />
      <Transitions />
      <BoundProperties>
        <BoundPropertyInt Name="rotateStepNinety" Value="0" />
      </BoundProperties>
    </ImageClip>
    <ImageClip extentID="32" gapBefore="0" mediaItemID="28" duration="3">
      <Effects />
      <Transitions />
      <BoundProperties>
        <BoundPropertyInt Name="rotateStepNinety" Value="0" />
      </BoundProperties>
    </ImageClip>
    <ImageClip extentID="33" gapBefore="0" mediaItemID="29" duration="3">
      <Effects />
      <Transitions />
      <BoundProperties>
        <BoundPropertyInt Name="rotateStepNinety" Value="0" />
      </BoundProperties>
    </ImageClip>
    <ImageClip extentID="34" gapBefore="0" mediaItemID="30" duration="3">
      <Effects />
      <Transitions />
      <BoundProperties>
        <BoundPropertyInt Name="rotateStepNinety" Value="0" />
      </BoundProperties>
    </ImageClip>
    <ImageClip extentID="35" gapBefore="0" mediaItemID="31" duration="3">
      <Effects />
      <Transitions />
      <BoundProperties>
        <BoundPropertyInt Name="rotateStepNinety" Value="0" />
      </BoundProperties>
    </ImageClip>
    <ImageClip extentID="36" gapBefore="0" mediaItemID="32" duration="3">
      <Effects />
      <Transitions />
      <BoundProperties>
        <BoundPropertyInt Name="rotateStepNinety" Value="0" />
      </BoundProperties>
    </ImageClip>
    <ImageClip extentID="37" gapBefore="0" mediaItemID="33" duration="3">
      <Effects />
      <Transitions />
      <BoundProperties>
        <BoundPropertyInt Name="rotateStepNinety" Value="0" />
      </BoundProperties>
    </ImageClip>
    <ImageClip extentID="38" gapBefore="0" mediaItemID="34" duration="3">
      <Effects />
      <Transitions />
      <BoundProperties>
        <BoundPropertyInt Name="rotateStepNinety" Value="0" />
      </BoundProperties>
    </ImageClip>
    <ImageClip extentID="39" gapBefore="0" mediaItemID="35" duration="3">
      <Effects />
      <Transitions />
      <BoundProperties>
        <BoundPropertyInt Name="rotateStepNinety" Value="0" />
      </BoundProperties>
    </ImageClip>
    <ImageClip extentID="40" gapBefore="0" mediaItemID="36" duration="3">
      <Effects />
      <Transitions />
      <BoundProperties>
        <BoundPropertyInt Name="rotateStepNinety" Value="0" />
      </BoundProperties>
    </ImageClip>
    <ImageClip extentID="41" gapBefore="0" mediaItemID="37" duration="3">
      <Effects />
      <Transitions />
      <BoundProperties>
        <BoundPropertyInt Name="rotateStepNinety" Value="0" />
      </BoundProperties>
    </ImageClip>
    <ImageClip extentID="42" gapBefore="0" mediaItemID="38" duration="3">
      <Effects />
      <Transitions />
      <BoundProperties>
        <BoundPropertyInt Name="rotateStepNinety" Value="0" />
      </BoundProperties>
    </ImageClip>
    <ImageClip extentID="43" gapBefore="0" mediaItemID="39" duration="3">
      <Effects />
      <Transitions />
      <BoundProperties>
        <BoundPropertyInt Name="rotateStepNinety" Value="0" />
      </BoundProperties>
    </ImageClip>
    <ImageClip extentID="44" gapBefore="0" mediaItemID="40" duration="3">
      <Effects />
      <Transitions />
      <BoundProperties>
        <BoundPropertyInt Name="rotateStepNinety" Value="0" />
      </BoundProperties>
    </ImageClip>
    <ImageClip extentID="45" gapBefore="0" mediaItemID="41" duration="3">
      <Effects />
      <Transitions />
      <BoundProperties>
        <BoundPropertyInt Name="rotateStepNinety" Value="0" />
      </BoundProperties>
    </ImageClip>
    <ImageClip extentID="46" gapBefore="0" mediaItemID="42" duration="3">
      <Effects />
      <Transitions />
      <BoundProperties>
        <BoundPropertyInt Name="rotateStepNinety" Value="0" />
      </BoundProperties>
    </ImageClip>
    <ImageClip extentID="47" gapBefore="0" mediaItemID="43" duration="3">
      <Effects />
      <Transitions />
      <BoundProperties>
        <BoundPropertyInt Name="rotateStepNinety" Value="0" />
      </BoundProperties>
    </ImageClip>
    <ImageClip extentID="48" gapBefore="0" mediaItemID="44" duration="3">
      <Effects />
      <Transitions />
      <BoundProperties>
        <BoundPropertyInt Name="rotateStepNinety" Value="0" />
      </BoundProperties>
    </ImageClip>
    <ImageClip extentID="49" gapBefore="0" mediaItemID="45" duration="3">
      <Effects />
      <Transitions />
      <BoundProperties>
        <BoundPropertyInt Name="rotateStepNinety" Value="0" />
      </BoundProperties>
    </ImageClip>
    <ImageClip extentID="50" gapBefore="0" mediaItemID="46" duration="3">
      <Effects />
      <Transitions />
      <BoundProperties>
        <BoundPropertyInt Name="rotateStepNinety" Value="0" />
      </BoundProperties>
    </ImageClip>
    <ImageClip extentID="51" gapBefore="0" mediaItemID="47" duration="3">
      <Effects />
      <Transitions />
      <BoundProperties>
        <BoundPropertyInt Name="rotateStepNinety" Value="0" />
      </BoundProperties>
    </ImageClip>
    <ImageClip extentID="52" gapBefore="0" mediaItemID="48" duration="3">
      <Effects />
      <Transitions />
      <BoundProperties>
        <BoundPropertyInt Name="rotateStepNinety" Value="0" />
      </BoundProperties>
    </ImageClip>
    <ImageClip extentID="53" gapBefore="0" mediaItemID="49" duration="3">
      <Effects />
      <Transitions />
      <BoundProperties>
        <BoundPropertyInt Name="rotateStepNinety" Value="0" />
      </BoundProperties>
    </ImageClip>
    <ImageClip extentID="54" gapBefore="0" mediaItemID="50" duration="3">
      <Effects />
      <Transitions />
      <BoundProperties>
        <BoundPropertyInt Name="rotateStepNinety" Value="0" />
      </BoundProperties>
    </ImageClip>
    <ImageClip extentID="55" gapBefore="0" mediaItemID="51" duration="3">
      <Effects />
      <Transitions />
      <BoundProperties>
        <BoundPropertyInt Name="rotateStepNinety" Value="0" />
      </BoundProperties>
    </ImageClip>
    <ImageClip extentID="56" gapBefore="0" mediaItemID="52" duration="3">
      <Effects />
      <Transitions />
      <BoundProperties>
        <BoundPropertyInt Name="rotateStepNinety" Value="0" />
      </BoundProperties>
    </ImageClip>
    <ImageClip extentID="57" gapBefore="0" mediaItemID="53" duration="3">
      <Effects />
      <Transitions />
      <BoundProperties>
        <BoundPropertyInt Name="rotateStepNinety" Value="0" />
      </BoundProperties>
    </ImageClip>
    <ImageClip extentID="58" gapBefore="0" mediaItemID="54" duration="3">
      <Effects />
      <Transitions />
      <BoundProperties>
        <BoundPropertyInt Name="rotateStepNinety" Value="0" />
      </BoundProperties>
    </ImageClip>
    <ImageClip extentID="59" gapBefore="0" mediaItemID="55" duration="3">
      <Effects />
      <Transitions />
      <BoundProperties>
        <BoundPropertyInt Name="rotateStepNinety" Value="0" />
      </BoundProperties>
    </ImageClip>
    <ImageClip extentID="60" gapBefore="0" mediaItemID="56" duration="3">
      <Effects />
      <Transitions />
      <BoundProperties>
        <BoundPropertyInt Name="rotateStepNinety" Value="0" />
      </BoundProperties>
    </ImageClip>
    <ImageClip extentID="61" gapBefore="0" mediaItemID="57" duration="3">
      <Effects />
      <Transitions />
      <BoundProperties>
        <BoundPropertyInt Name="rotateStepNinety" Value="0" />
      </BoundProperties>
    </ImageClip>
    <ImageClip extentID="62" gapBefore="0" mediaItemID="58" duration="3">
      <Effects />
      <Transitions />
      <BoundProperties>
        <BoundPropertyInt Name="rotateStepNinety" Value="0" />
      </BoundProperties>
    </ImageClip>
    <ImageClip extentID="63" gapBefore="0" mediaItemID="59" duration="3">
      <Effects />
      <Transitions />
      <BoundProperties>
        <BoundPropertyInt Name="rotateStepNinety" Value="0" />
      </BoundProperties>
    </ImageClip>
    <ImageClip extentID="64" gapBefore="0" mediaItemID="60" duration="3">
      <Effects />
      <Transitions />
      <BoundProperties>
        <BoundPropertyInt Name="rotateStepNinety" Value="0" />
      </BoundProperties>
    </ImageClip>
    <ImageClip extentID="65" gapBefore="0" mediaItemID="61" duration="3">
      <Effects />
      <Transitions />
      <BoundProperties>
        <BoundPropertyInt Name="rotateStepNinety" Value="0" />
      </BoundProperties>
    </ImageClip>
    <ImageClip extentID="66" gapBefore="0" mediaItemID="62" duration="3">
      <Effects />
      <Transitions />
      <BoundProperties>
        <BoundPropertyInt Name="rotateStepNinety" Value="0" />
      </BoundProperties>
    </ImageClip>
    <ImageClip extentID="67" gapBefore="0" mediaItemID="63" duration="3">
      <Effects />
      <Transitions />
      <BoundProperties>
        <BoundPropertyInt Name="rotateStepNinety" Value="0" />
      </BoundProperties>
    </ImageClip>
    <ImageClip extentID="68" gapBefore="0" mediaItemID="64" duration="3">
      <Effects />
      <Transitions />
      <BoundProperties>
        <BoundPropertyInt Name="rotateStepNinety" Value="0" />
      </BoundProperties>
    </ImageClip>
    <ImageClip extentID="69" gapBefore="0" mediaItemID="65" duration="3">
      <Effects />
      <Transitions />
      <BoundProperties>
        <BoundPropertyInt Name="rotateStepNinety" Value="0" />
      </BoundProperties>
    </ImageClip>
    <ImageClip extentID="70" gapBefore="0" mediaItemID="66" duration="3">
      <Effects />
      <Transitions />
      <BoundProperties>
        <BoundPropertyInt Name="rotateStepNinety" Value="0" />
      </BoundProperties>
    </ImageClip>
    <ImageClip extentID="71" gapBefore="0" mediaItemID="67" duration="3">
      <Effects />
      <Transitions />
      <BoundProperties>
        <BoundPropertyInt Name="rotateStepNinety" Value="0" />
      </BoundProperties>
    </ImageClip>
    <ImageClip extentID="72" gapBefore="0" mediaItemID="68" duration="3">
      <Effects />
      <Transitions />
      <BoundProperties>
        <BoundPropertyInt Name="rotateStepNinety" Value="0" />
      </BoundProperties>
    </ImageClip>
    <ImageClip extentID="73" gapBefore="0" mediaItemID="69" duration="3">
      <Effects />
      <Transitions />
      <BoundProperties>
        <BoundPropertyInt Name="rotateStepNinety" Value="0" />
      </BoundProperties>
    </ImageClip>
    <ImageClip extentID="74" gapBefore="0" mediaItemID="70" duration="3">
      <Effects />
      <Transitions />
      <BoundProperties>
        <BoundPropertyInt Name="rotateStepNinety" Value="0" />
      </BoundProperties>
    </ImageClip>
    <ImageClip extentID="75" gapBefore="0" mediaItemID="71" duration="3">
      <Effects />
      <Transitions />
      <BoundProperties>
        <BoundPropertyInt Name="rotateStepNinety" Value="0" />
      </BoundProperties>
    </ImageClip>
    <ImageClip extentID="76" gapBefore="0" mediaItemID="72" duration="3">
      <Effects />
      <Transitions />
      <BoundProperties>
        <BoundPropertyInt Name="rotateStepNinety" Value="0" />
      </BoundProperties>
    </ImageClip>
    <ImageClip extentID="77" gapBefore="0" mediaItemID="73" duration="3">
      <Effects />
      <Transitions />
      <BoundProperties>
        <BoundPropertyInt Name="rotateStepNinety" Value="0" />
      </BoundProperties>
    </ImageClip>
    <ImageClip extentID="78" gapBefore="0" mediaItemID="74" duration="3">
      <Effects />
      <Transitions />
      <BoundProperties>
        <BoundPropertyInt Name="rotateStepNinety" Value="0" />
      </BoundProperties>
    </ImageClip>
    <ImageClip extentID="79" gapBefore="0" mediaItemID="75" duration="3">
      <Effects />
      <Transitions />
      <BoundProperties>
        <BoundPropertyInt Name="rotateStepNinety" Value="0" />
      </BoundProperties>
    </ImageClip>
    <ImageClip extentID="80" gapBefore="0" mediaItemID="76" duration="3">
      <Effects />
      <Transitions />
      <BoundProperties>
        <BoundPropertyInt Name="rotateStepNinety" Value="0" />
      </BoundProperties>
    </ImageClip>
    <ImageClip extentID="81" gapBefore="0" mediaItemID="77" duration="3">
      <Effects />
      <Transitions />
      <BoundProperties>
        <BoundPropertyInt Name="rotateStepNinety" Value="0" />
      </BoundProperties>
    </ImageClip>
    <ImageClip extentID="82" gapBefore="0" mediaItemID="78" duration="3">
      <Effects />
      <Transitions />
      <BoundProperties>
        <BoundPropertyInt Name="rotateStepNinety" Value="0" />
      </BoundProperties>
    </ImageClip>
    <ImageClip extentID="83" gapBefore="0" mediaItemID="79" duration="3">
      <Effects />
      <Transitions />
      <BoundProperties>
        <BoundPropertyInt Name="rotateStepNinety" Value="0" />
      </BoundProperties>
    </ImageClip>
    <ImageClip extentID="84" gapBefore="0" mediaItemID="80" duration="3">
      <Effects />
      <Transitions />
      <BoundProperties>
        <BoundPropertyInt Name="rotateStepNinety" Value="0" />
      </BoundProperties>
    </ImageClip>
    <ImageClip extentID="85" gapBefore="0" mediaItemID="81" duration="3">
      <Effects />
      <Transitions />
      <BoundProperties>
        <BoundPropertyInt Name="rotateStepNinety" Value="0" />
      </BoundProperties>
    </ImageClip>
    <ImageClip extentID="86" gapBefore="0" mediaItemID="82" duration="3">
      <Effects />
      <Transitions />
      <BoundProperties>
        <BoundPropertyInt Name="rotateStepNinety" Value="0" />
      </BoundProperties>
    </ImageClip>
    <ImageClip extentID="87" gapBefore="0" mediaItemID="83" duration="3">
      <Effects />
      <Transitions />
      <BoundProperties>
        <BoundPropertyInt Name="rotateStepNinety" Value="0" />
      </BoundProperties>
    </ImageClip>
    <ImageClip extentID="88" gapBefore="0" mediaItemID="84" duration="3">
      <Effects />
      <Transitions />
      <BoundProperties>
        <BoundPropertyInt Name="rotateStepNinety" Value="0" />
      </BoundProperties>
    </ImageClip>
    <ImageClip extentID="89" gapBefore="0" mediaItemID="85" duration="3">
      <Effects />
      <Transitions />
      <BoundProperties>
        <BoundPropertyInt Name="rotateStepNinety" Value="0" />
      </BoundProperties>
    </ImageClip>
    <ImageClip extentID="90" gapBefore="0" mediaItemID="86" duration="3">
      <Effects />
      <Transitions />
      <BoundProperties>
        <BoundPropertyInt Name="rotateStepNinety" Value="0" />
      </BoundProperties>
    </ImageClip>
    <ImageClip extentID="91" gapBefore="0" mediaItemID="87" duration="3">
      <Effects />
      <Transitions />
      <BoundProperties>
        <BoundPropertyInt Name="rotateStepNinety" Value="0" />
      </BoundProperties>
    </ImageClip>
    <ImageClip extentID="92" gapBefore="0" mediaItemID="88" duration="3">
      <Effects />
      <Transitions />
      <BoundProperties>
        <BoundPropertyInt Name="rotateStepNinety" Value="0" />
      </BoundProperties>
    </ImageClip>
    <ImageClip extentID="93" gapBefore="0" mediaItemID="89" duration="3">
      <Effects />
      <Transitions />
      <BoundProperties>
        <BoundPropertyInt Name="rotateStepNinety" Value="0" />
      </BoundProperties>
    </ImageClip>
    <ImageClip extentID="94" gapBefore="0" mediaItemID="90" duration="3">
      <Effects />
      <Transitions />
      <BoundProperties>
        <BoundPropertyInt Name="rotateStepNinety" Value="0" />
      </BoundProperties>
    </ImageClip>
    <ImageClip extentID="95" gapBefore="0" mediaItemID="91" duration="3">
      <Effects />
      <Transitions />
      <BoundProperties>
        <BoundPropertyInt Name="rotateStepNinety" Value="0" />
      </BoundProperties>
    </ImageClip>
    <ImageClip extentID="96" gapBefore="0" mediaItemID="92" duration="3">
      <Effects />
      <Transitions />
      <BoundProperties>
        <BoundPropertyInt Name="rotateStepNinety" Value="0" />
      </BoundProperties>
    </ImageClip>
    <ImageClip extentID="97" gapBefore="0" mediaItemID="93" duration="3">
      <Effects />
      <Transitions />
      <BoundProperties>
        <BoundPropertyInt Name="rotateStepNinety" Value="0" />
      </BoundProperties>
    </ImageClip>
    <ImageClip extentID="98" gapBefore="0" mediaItemID="94" duration="3">
      <Effects />
      <Transitions />
      <BoundProperties>
        <BoundPropertyInt Name="rotateStepNinety" Value="0" />
      </BoundProperties>
    </ImageClip>
    <ImageClip extentID="99" gapBefore="0" mediaItemID="95" duration="3">
      <Effects />
      <Transitions />
      <BoundProperties>
        <BoundPropertyInt Name="rotateStepNinety" Value="0" />
      </BoundProperties>
    </ImageClip>
    <ImageClip extentID="100" gapBefore="0" mediaItemID="96" duration="3">
      <Effects />
      <Transitions />
      <BoundProperties>
        <BoundPropertyInt Name="rotateStepNinety" Value="0" />
      </BoundProperties>
    </ImageClip>
    <ImageClip extentID="101" gapBefore="0" mediaItemID="97" duration="3">
      <Effects />
      <Transitions />
      <BoundProperties>
        <BoundPropertyInt Name="rotateStepNinety" Value="0" />
      </BoundProperties>
    </ImageClip>
    <ImageClip extentID="102" gapBefore="0" mediaItemID="98" duration="3">
      <Effects />
      <Transitions />
      <BoundProperties>
        <BoundPropertyInt Name="rotateStepNinety" Value="0" />
      </BoundProperties>
    </ImageClip>
    <ImageClip extentID="103" gapBefore="0" mediaItemID="99" duration="3">
      <Effects />
      <Transitions />
      <BoundProperties>
        <BoundPropertyInt Name="rotateStepNinety" Value="0" />
      </BoundProperties>
    </ImageClip>
    <ImageClip extentID="104" gapBefore="0" mediaItemID="100" duration="3">
      <Effects />
      <Transitions />
      <BoundProperties>
        <BoundPropertyInt Name="rotateStepNinety" Value="0" />
      </BoundProperties>
    </ImageClip>
    <ImageClip extentID="105" gapBefore="0" mediaItemID="101" duration="3">
      <Effects />
      <Transitions />
      <BoundProperties>
        <BoundPropertyInt Name="rotateStepNinety" Value="0" />
      </BoundProperties>
    </ImageClip>
    <ImageClip extentID="106" gapBefore="0" mediaItemID="102" duration="3">
      <Effects />
      <Transitions />
      <BoundProperties>
        <BoundPropertyInt Name="rotateStepNinety" Value="0" />
      </BoundProperties>
    </ImageClip>
    <ImageClip extentID="107" gapBefore="0" mediaItemID="103" duration="3">
      <Effects />
      <Transitions />
      <BoundProperties>
        <BoundPropertyInt Name="rotateStepNinety" Value="0" />
      </BoundProperties>
    </ImageClip>
    <ImageClip extentID="108" gapBefore="0" mediaItemID="104" duration="3">
      <Effects />
      <Transitions />
      <BoundProperties>
        <BoundPropertyInt Name="rotateStepNinety" Value="0" />
      </BoundProperties>
    </ImageClip>
    <ImageClip extentID="109" gapBefore="0" mediaItemID="105" duration="3">
      <Effects />
      <Transitions />
      <BoundProperties>
        <BoundPropertyInt Name="rotateStepNinety" Value="0" />
      </BoundProperties>
    </ImageClip>
    <ImageClip extentID="110" gapBefore="0" mediaItemID="106" duration="3">
      <Effects />
      <Transitions />
      <BoundProperties>
        <BoundPropertyInt Name="rotateStepNinety" Value="0" />
      </BoundProperties>
    </ImageClip>
    <ImageClip extentID="111" gapBefore="0" mediaItemID="107" duration="3">
      <Effects />
      <Transitions />
      <BoundProperties>
        <BoundPropertyInt Name="rotateStepNinety" Value="0" />
      </BoundProperties>
    </ImageClip>
    <ImageClip extentID="112" gapBefore="0" mediaItemID="108" duration="3">
      <Effects />
      <Transitions />
      <BoundProperties>
        <BoundPropertyInt Name="rotateStepNinety" Value="0" />
      </BoundProperties>
    </ImageClip>
    <ImageClip extentID="113" gapBefore="0" mediaItemID="109" duration="3">
      <Effects />
      <Transitions />
      <BoundProperties>
        <BoundPropertyInt Name="rotateStepNinety" Value="0" />
      </BoundProperties>
    </ImageClip>
    <ImageClip extentID="114" gapBefore="0" mediaItemID="110" duration="3">
      <Effects />
      <Transitions />
      <BoundProperties>
        <BoundPropertyInt Name="rotateStepNinety" Value="0" />
      </BoundProperties>
    </ImageClip>
    <ImageClip extentID="115" gapBefore="0" mediaItemID="111" duration="3">
      <Effects />
      <Transitions />
      <BoundProperties>
        <BoundPropertyInt Name="rotateStepNinety" Value="0" />
      </BoundProperties>
    </ImageClip>
    <ImageClip extentID="116" gapBefore="0" mediaItemID="112" duration="3">
      <Effects />
      <Transitions />
      <BoundProperties>
        <BoundPropertyInt Name="rotateStepNinety" Value="0" />
      </BoundProperties>
    </ImageClip>
    <ImageClip extentID="117" gapBefore="0" mediaItemID="113" duration="3">
      <Effects />
      <Transitions />
      <BoundProperties>
        <BoundPropertyInt Name="rotateStepNinety" Value="0" />
      </BoundProperties>
    </ImageClip>
    <ImageClip extentID="118" gapBefore="0" mediaItemID="114" duration="3">
      <Effects />
      <Transitions />
      <BoundProperties>
        <BoundPropertyInt Name="rotateStepNinety" Value="0" />
      </BoundProperties>
    </ImageClip>
    <ImageClip extentID="119" gapBefore="0" mediaItemID="115" duration="3">
      <Effects />
      <Transitions />
      <BoundProperties>
        <BoundPropertyInt Name="rotateStepNinety" Value="0" />
      </BoundProperties>
    </ImageClip>
    <ImageClip extentID="120" gapBefore="0" mediaItemID="116" duration="3">
      <Effects />
      <Transitions />
      <BoundProperties>
        <BoundPropertyInt Name="rotateStepNinety" Value="0" />
      </BoundProperties>
    </ImageClip>
    <ImageClip extentID="121" gapBefore="0" mediaItemID="117" duration="3">
      <Effects />
      <Transitions />
      <BoundProperties>
        <BoundPropertyInt Name="rotateStepNinety" Value="0" />
      </BoundProperties>
    </ImageClip>
    <ImageClip extentID="122" gapBefore="0" mediaItemID="118" duration="3">
      <Effects />
      <Transitions />
      <BoundProperties>
        <BoundPropertyInt Name="rotateStepNinety" Value="0" />
      </BoundProperties>
    </ImageClip>
    <ImageClip extentID="123" gapBefore="0" mediaItemID="119" duration="3">
      <Effects />
      <Transitions />
      <BoundProperties>
        <BoundPropertyInt Name="rotateStepNinety" Value="0" />
      </BoundProperties>
    </ImageClip>
    <ImageClip extentID="124" gapBefore="0" mediaItemID="120" duration="3">
      <Effects />
      <Transitions />
      <BoundProperties>
        <BoundPropertyInt Name="rotateStepNinety" Value="0" />
      </BoundProperties>
    </ImageClip>
    <ImageClip extentID="125" gapBefore="0" mediaItemID="121" duration="3">
      <Effects />
      <Transitions />
      <BoundProperties>
        <BoundPropertyInt Name="rotateStepNinety" Value="0" />
      </BoundProperties>
    </ImageClip>
    <ImageClip extentID="126" gapBefore="0" mediaItemID="122" duration="3">
      <Effects />
      <Transitions />
      <BoundProperties>
        <BoundPropertyInt Name="rotateStepNinety" Value="0" />
      </BoundProperties>
    </ImageClip>
    <ImageClip extentID="127" gapBefore="0" mediaItemID="123" duration="3">
      <Effects />
      <Transitions />
      <BoundProperties>
        <BoundPropertyInt Name="rotateStepNinety" Value="0" />
      </BoundProperties>
    </ImageClip>
    <ImageClip extentID="128" gapBefore="0" mediaItemID="124" duration="3">
      <Effects />
      <Transitions />
      <BoundProperties>
        <BoundPropertyInt Name="rotateStepNinety" Value="0" />
      </BoundProperties>
    </ImageClip>
    <ImageClip extentID="129" gapBefore="0" mediaItemID="125" duration="3">
      <Effects />
      <Transitions />
      <BoundProperties>
        <BoundPropertyInt Name="rotateStepNinety" Value="0" />
      </BoundProperties>
    </ImageClip>
    <ImageClip extentID="130" gapBefore="0" mediaItemID="126" duration="3">
      <Effects />
      <Transitions />
      <BoundProperties>
        <BoundPropertyInt Name="rotateStepNinety" Value="0" />
      </BoundProperties>
    </ImageClip>
    <ImageClip extentID="131" gapBefore="0" mediaItemID="127" duration="3">
      <Effects />
      <Transitions />
      <BoundProperties>
        <BoundPropertyInt Name="rotateStepNinety" Value="0" />
      </BoundProperties>
    </ImageClip>
    <ImageClip extentID="132" gapBefore="0" mediaItemID="128" duration="3">
      <Effects />
      <Transitions />
      <BoundProperties>
        <BoundPropertyInt Name="rotateStepNinety" Value="0" />
      </BoundProperties>
    </ImageClip>
    <ImageClip extentID="133" gapBefore="0" mediaItemID="129" duration="3">
      <Effects />
      <Transitions />
      <BoundProperties>
        <BoundPropertyInt Name="rotateStepNinety" Value="0" />
      </BoundProperties>
    </ImageClip>
    <ImageClip extentID="134" gapBefore="0" mediaItemID="130" duration="3">
      <Effects />
      <Transitions />
      <BoundProperties>
        <BoundPropertyInt Name="rotateStepNinety" Value="0" />
      </BoundProperties>
    </ImageClip>
    <ImageClip extentID="135" gapBefore="0" mediaItemID="131" duration="3">
      <Effects />
      <Transitions />
      <BoundProperties>
        <BoundPropertyInt Name="rotateStepNinety" Value="0" />
      </BoundProperties>
    </ImageClip>
    <ImageClip extentID="136" gapBefore="0" mediaItemID="132" duration="3">
      <Effects />
      <Transitions />
      <BoundProperties>
        <BoundPropertyInt Name="rotateStepNinety" Value="0" />
      </BoundProperties>
    </ImageClip>
    <ImageClip extentID="137" gapBefore="0" mediaItemID="133" duration="3">
      <Effects />
      <Transitions />
      <BoundProperties>
        <BoundPropertyInt Name="rotateStepNinety" Value="0" />
      </BoundProperties>
    </ImageClip>
    <ImageClip extentID="138" gapBefore="0" mediaItemID="134" duration="3">
      <Effects />
      <Transitions />
      <BoundProperties>
        <BoundPropertyInt Name="rotateStepNinety" Value="0" />
      </BoundProperties>
    </ImageClip>
    <ImageClip extentID="139" gapBefore="0" mediaItemID="135" duration="3">
      <Effects />
      <Transitions />
      <BoundProperties>
        <BoundPropertyInt Name="rotateStepNinety" Value="0" />
      </BoundProperties>
    </ImageClip>
    <ImageClip extentID="140" gapBefore="0" mediaItemID="136" duration="3">
      <Effects />
      <Transitions />
      <BoundProperties>
        <BoundPropertyInt Name="rotateStepNinety" Value="0" />
      </BoundProperties>
    </ImageClip>
    <ImageClip extentID="141" gapBefore="0" mediaItemID="137" duration="3">
      <Effects />
      <Transitions />
      <BoundProperties>
        <BoundPropertyInt Name="rotateStepNinety" Value="0" />
      </BoundProperties>
    </ImageClip>
    <ImageClip extentID="142" gapBefore="0" mediaItemID="138" duration="3">
      <Effects />
      <Transitions />
      <BoundProperties>
        <BoundPropertyInt Name="rotateStepNinety" Value="0" />
      </BoundProperties>
    </ImageClip>
    <ImageClip extentID="143" gapBefore="0" mediaItemID="139" duration="3">
      <Effects />
      <Transitions />
      <BoundProperties>
        <BoundPropertyInt Name="rotateStepNinety" Value="0" />
      </BoundProperties>
    </ImageClip>
    <ImageClip extentID="144" gapBefore="0" mediaItemID="140" duration="3">
      <Effects />
      <Transitions />
      <BoundProperties>
        <BoundPropertyInt Name="rotateStepNinety" Value="0" />
      </BoundProperties>
    </ImageClip>
    <ImageClip extentID="145" gapBefore="0" mediaItemID="141" duration="3">
      <Effects />
      <Transitions />
      <BoundProperties>
        <BoundPropertyInt Name="rotateStepNinety" Value="0" />
      </BoundProperties>
    </ImageClip>
    <ImageClip extentID="146" gapBefore="0" mediaItemID="142" duration="3">
      <Effects />
      <Transitions />
      <BoundProperties>
        <BoundPropertyInt Name="rotateStepNinety" Value="0" />
      </BoundProperties>
    </ImageClip>
    <ImageClip extentID="147" gapBefore="0" mediaItemID="143" duration="3">
      <Effects />
      <Transitions />
      <BoundProperties>
        <BoundPropertyInt Name="rotateStepNinety" Value="0" />
      </BoundProperties>
    </ImageClip>
    <ImageClip extentID="148" gapBefore="0" mediaItemID="144" duration="3">
      <Effects />
      <Transitions />
      <BoundProperties>
        <BoundPropertyInt Name="rotateStepNinety" Value="0" />
      </BoundProperties>
    </ImageClip>
    <ImageClip extentID="149" gapBefore="0" mediaItemID="145" duration="3">
      <Effects />
      <Transitions />
      <BoundProperties>
        <BoundPropertyInt Name="rotateStepNinety" Value="0" />
      </BoundProperties>
    </ImageClip>
    <ImageClip extentID="150" gapBefore="0" mediaItemID="146" duration="3">
      <Effects />
      <Transitions />
      <BoundProperties>
        <BoundPropertyInt Name="rotateStepNinety" Value="0" />
      </BoundProperties>
    </ImageClip>
    <ImageClip extentID="151" gapBefore="0" mediaItemID="147" duration="3">
      <Effects />
      <Transitions />
      <BoundProperties>
        <BoundPropertyInt Name="rotateStepNinety" Value="0" />
      </BoundProperties>
    </ImageClip>
    <ImageClip extentID="152" gapBefore="0" mediaItemID="148" duration="3">
      <Effects />
      <Transitions />
      <BoundProperties>
        <BoundPropertyInt Name="rotateStepNinety" Value="0" />
      </BoundProperties>
    </ImageClip>
    <ImageClip extentID="153" gapBefore="0" mediaItemID="149" duration="3">
      <Effects />
      <Transitions />
      <BoundProperties>
        <BoundPropertyInt Name="rotateStepNinety" Value="0" />
      </BoundProperties>
    </ImageClip>
    <ImageClip extentID="154" gapBefore="0" mediaItemID="150" duration="3">
      <Effects />
      <Transitions />
      <BoundProperties>
        <BoundPropertyInt Name="rotateStepNinety" Value="0" />
      </BoundProperties>
    </ImageClip>
    <ImageClip extentID="155" gapBefore="0" mediaItemID="151" duration="3">
      <Effects />
      <Transitions />
      <BoundProperties>
        <BoundPropertyInt Name="rotateStepNinety" Value="0" />
      </BoundProperties>
    </ImageClip>
    <ImageClip extentID="156" gapBefore="0" mediaItemID="152" duration="3">
      <Effects />
      <Transitions />
      <BoundProperties>
        <BoundPropertyInt Name="rotateStepNinety" Value="0" />
      </BoundProperties>
    </ImageClip>
    <ImageClip extentID="157" gapBefore="0" mediaItemID="153" duration="3">
      <Effects />
      <Transitions />
      <BoundProperties>
        <BoundPropertyInt Name="rotateStepNinety" Value="0" />
      </BoundProperties>
    </ImageClip>
    <ImageClip extentID="158" gapBefore="0" mediaItemID="154" duration="3">
      <Effects />
      <Transitions />
      <BoundProperties>
        <BoundPropertyInt Name="rotateStepNinety" Value="0" />
      </BoundProperties>
    </ImageClip>
    <ImageClip extentID="159" gapBefore="0" mediaItemID="155" duration="3">
      <Effects />
      <Transitions />
      <BoundProperties>
        <BoundPropertyInt Name="rotateStepNinety" Value="0" />
      </BoundProperties>
    </ImageClip>
    <ImageClip extentID="160" gapBefore="0" mediaItemID="156" duration="3">
      <Effects />
      <Transitions />
      <BoundProperties>
        <BoundPropertyInt Name="rotateStepNinety" Value="0" />
      </BoundProperties>
    </ImageClip>
    <ImageClip extentID="161" gapBefore="0" mediaItemID="157" duration="3">
      <Effects />
      <Transitions />
      <BoundProperties>
        <BoundPropertyInt Name="rotateStepNinety" Value="0" />
      </BoundProperties>
    </ImageClip>
    <ImageClip extentID="162" gapBefore="0" mediaItemID="158" duration="3">
      <Effects />
      <Transitions />
      <BoundProperties>
        <BoundPropertyInt Name="rotateStepNinety" Value="0" />
      </BoundProperties>
    </ImageClip>
    <ImageClip extentID="163" gapBefore="0" mediaItemID="159" duration="3">
      <Effects />
      <Transitions />
      <BoundProperties>
        <BoundPropertyInt Name="rotateStepNinety" Value="0" />
      </BoundProperties>
    </ImageClip>
    <ImageClip extentID="164" gapBefore="0" mediaItemID="160" duration="3">
      <Effects />
      <Transitions />
      <BoundProperties>
        <BoundPropertyInt Name="rotateStepNinety" Value="0" />
      </BoundProperties>
    </ImageClip>
    <ImageClip extentID="165" gapBefore="0" mediaItemID="161" duration="3">
      <Effects />
      <Transitions />
      <BoundProperties>
        <BoundPropertyInt Name="rotateStepNinety" Value="0" />
      </BoundProperties>
    </ImageClip>
    <ImageClip extentID="166" gapBefore="0" mediaItemID="162" duration="3">
      <Effects />
      <Transitions />
      <BoundProperties>
        <BoundPropertyInt Name="rotateStepNinety" Value="0" />
      </BoundProperties>
    </ImageClip>
    <ImageClip extentID="167" gapBefore="0" mediaItemID="163" duration="3">
      <Effects />
      <Transitions />
      <BoundProperties>
        <BoundPropertyInt Name="rotateStepNinety" Value="0" />
      </BoundProperties>
    </ImageClip>
    <ImageClip extentID="168" gapBefore="0" mediaItemID="164" duration="3">
      <Effects />
      <Transitions />
      <BoundProperties>
        <BoundPropertyInt Name="rotateStepNinety" Value="0" />
      </BoundProperties>
    </ImageClip>
    <ImageClip extentID="169" gapBefore="0" mediaItemID="165" duration="3">
      <Effects />
      <Transitions />
      <BoundProperties>
        <BoundPropertyInt Name="rotateStepNinety" Value="0" />
      </BoundProperties>
    </ImageClip>
    <ImageClip extentID="170" gapBefore="0" mediaItemID="166" duration="3">
      <Effects />
      <Transitions />
      <BoundProperties>
        <BoundPropertyInt Name="rotateStepNinety" Value="0" />
      </BoundProperties>
    </ImageClip>
    <ImageClip extentID="171" gapBefore="0" mediaItemID="167" duration="3">
      <Effects />
      <Transitions />
      <BoundProperties>
        <BoundPropertyInt Name="rotateStepNinety" Value="0" />
      </BoundProperties>
    </ImageClip>
    <ImageClip extentID="172" gapBefore="0" mediaItemID="168" duration="3">
      <Effects />
      <Transitions />
      <BoundProperties>
        <BoundPropertyInt Name="rotateStepNinety" Value="0" />
      </BoundProperties>
    </ImageClip>
    <ImageClip extentID="173" gapBefore="0" mediaItemID="169" duration="3">
      <Effects />
      <Transitions />
      <BoundProperties>
        <BoundPropertyInt Name="rotateStepNinety" Value="0" />
      </BoundProperties>
    </ImageClip>
    <ImageClip extentID="174" gapBefore="0" mediaItemID="170" duration="3">
      <Effects />
      <Transitions />
      <BoundProperties>
        <BoundPropertyInt Name="rotateStepNinety" Value="0" />
      </BoundProperties>
    </ImageClip>
    <ImageClip extentID="175" gapBefore="0" mediaItemID="171" duration="3">
      <Effects />
      <Transitions />
      <BoundProperties>
        <BoundPropertyInt Name="rotateStepNinety" Value="0" />
      </BoundProperties>
    </ImageClip>
    <ImageClip extentID="176" gapBefore="0" mediaItemID="172" duration="3">
      <Effects />
      <Transitions />
      <BoundProperties>
        <BoundPropertyInt Name="rotateStepNinety" Value="0" />
      </BoundProperties>
    </ImageClip>
    <ImageClip extentID="177" gapBefore="0" mediaItemID="173" duration="3">
      <Effects />
      <Transitions />
      <BoundProperties>
        <BoundPropertyInt Name="rotateStepNinety" Value="0" />
      </BoundProperties>
    </ImageClip>
    <ImageClip extentID="178" gapBefore="0" mediaItemID="174" duration="3">
      <Effects />
      <Transitions />
      <BoundProperties>
        <BoundPropertyInt Name="rotateStepNinety" Value="0" />
      </BoundProperties>
    </ImageClip>
    <ImageClip extentID="179" gapBefore="0" mediaItemID="175" duration="3">
      <Effects />
      <Transitions />
      <BoundProperties>
        <BoundPropertyInt Name="rotateStepNinety" Value="0" />
      </BoundProperties>
    </ImageClip>
    <ImageClip extentID="180" gapBefore="0" mediaItemID="176" duration="3">
      <Effects />
      <Transitions />
      <BoundProperties>
        <BoundPropertyInt Name="rotateStepNinety" Value="0" />
      </BoundProperties>
    </ImageClip>
    <ImageClip extentID="181" gapBefore="0" mediaItemID="177" duration="3">
      <Effects />
      <Transitions />
      <BoundProperties>
        <BoundPropertyInt Name="rotateStepNinety" Value="0" />
      </BoundProperties>
    </ImageClip>
    <ImageClip extentID="182" gapBefore="0" mediaItemID="178" duration="3">
      <Effects />
      <Transitions />
      <BoundProperties>
        <BoundPropertyInt Name="rotateStepNinety" Value="0" />
      </BoundProperties>
    </ImageClip>
    <ImageClip extentID="183" gapBefore="0" mediaItemID="179" duration="3">
      <Effects />
      <Transitions />
      <BoundProperties>
        <BoundPropertyInt Name="rotateStepNinety" Value="0" />
      </BoundProperties>
    </ImageClip>
    <ImageClip extentID="184" gapBefore="0" mediaItemID="180" duration="3">
      <Effects />
      <Transitions />
      <BoundProperties>
        <BoundPropertyInt Name="rotateStepNinety" Value="0" />
      </BoundProperties>
    </ImageClip>
    <ImageClip extentID="185" gapBefore="0" mediaItemID="181" duration="3">
      <Effects />
      <Transitions />
      <BoundProperties>
        <BoundPropertyInt Name="rotateStepNinety" Value="0" />
      </BoundProperties>
    </ImageClip>
    <ImageClip extentID="186" gapBefore="0" mediaItemID="182" duration="3">
      <Effects />
      <Transitions />
      <BoundProperties>
        <BoundPropertyInt Name="rotateStepNinety" Value="0" />
      </BoundProperties>
    </ImageClip>
    <ImageClip extentID="187" gapBefore="0" mediaItemID="183" duration="3">
      <Effects />
      <Transitions />
      <BoundProperties>
        <BoundPropertyInt Name="rotateStepNinety" Value="0" />
      </BoundProperties>
    </ImageClip>
    <ImageClip extentID="188" gapBefore="0" mediaItemID="184" duration="3">
      <Effects />
      <Transitions />
      <BoundProperties>
        <BoundPropertyInt Name="rotateStepNinety" Value="0" />
      </BoundProperties>
    </ImageClip>
    <ImageClip extentID="189" gapBefore="0" mediaItemID="185" duration="3">
      <Effects />
      <Transitions />
      <BoundProperties>
        <BoundPropertyInt Name="rotateStepNinety" Value="0" />
      </BoundProperties>
    </ImageClip>
    <ImageClip extentID="190" gapBefore="0" mediaItemID="186" duration="3">
      <Effects />
      <Transitions />
      <BoundProperties>
        <BoundPropertyInt Name="rotateStepNinety" Value="0" />
      </BoundProperties>
    </ImageClip>
    <ImageClip extentID="191" gapBefore="0" mediaItemID="187" duration="3">
      <Effects />
      <Transitions />
      <BoundProperties>
        <BoundPropertyInt Name="rotateStepNinety" Value="0" />
      </BoundProperties>
    </ImageClip>
    <ImageClip extentID="192" gapBefore="0" mediaItemID="188" duration="3">
      <Effects />
      <Transitions />
      <BoundProperties>
        <BoundPropertyInt Name="rotateStepNinety" Value="0" />
      </BoundProperties>
    </ImageClip>
    <ImageClip extentID="193" gapBefore="0" mediaItemID="189" duration="3">
      <Effects />
      <Transitions />
      <BoundProperties>
        <BoundPropertyInt Name="rotateStepNinety" Value="0" />
      </BoundProperties>
    </ImageClip>
    <ImageClip extentID="194" gapBefore="0" mediaItemID="190" duration="3">
      <Effects />
      <Transitions />
      <BoundProperties>
        <BoundPropertyInt Name="rotateStepNinety" Value="0" />
      </BoundProperties>
    </ImageClip>
    <ImageClip extentID="195" gapBefore="0" mediaItemID="191" duration="3">
      <Effects />
      <Transitions />
      <BoundProperties>
        <BoundPropertyInt Name="rotateStepNinety" Value="0" />
      </BoundProperties>
    </ImageClip>
    <ImageClip extentID="196" gapBefore="0" mediaItemID="192" duration="3">
      <Effects />
      <Transitions />
      <BoundProperties>
        <BoundPropertyInt Name="rotateStepNinety" Value="0" />
      </BoundProperties>
    </ImageClip>
    <ImageClip extentID="197" gapBefore="0" mediaItemID="193" duration="3">
      <Effects />
      <Transitions />
      <BoundProperties>
        <BoundPropertyInt Name="rotateStepNinety" Value="0" />
      </BoundProperties>
    </ImageClip>
    <ImageClip extentID="198" gapBefore="0" mediaItemID="194" duration="3">
      <Effects />
      <Transitions />
      <BoundProperties>
        <BoundPropertyInt Name="rotateStepNinety" Value="0" />
      </BoundProperties>
    </ImageClip>
    <ImageClip extentID="199" gapBefore="0" mediaItemID="195" duration="3">
      <Effects />
      <Transitions />
      <BoundProperties>
        <BoundPropertyInt Name="rotateStepNinety" Value="0" />
      </BoundProperties>
    </ImageClip>
    <ImageClip extentID="200" gapBefore="0" mediaItemID="196" duration="3">
      <Effects />
      <Transitions />
      <BoundProperties>
        <BoundPropertyInt Name="rotateStepNinety" Value="0" />
      </BoundProperties>
    </ImageClip>
    <ImageClip extentID="201" gapBefore="0" mediaItemID="197" duration="3">
      <Effects />
      <Transitions />
      <BoundProperties>
        <BoundPropertyInt Name="rotateStepNinety" Value="0" />
      </BoundProperties>
    </ImageClip>
    <ImageClip extentID="202" gapBefore="0" mediaItemID="198" duration="3">
      <Effects />
      <Transitions />
      <BoundProperties>
        <BoundPropertyInt Name="rotateStepNinety" Value="0" />
      </BoundProperties>
    </ImageClip>
    <ImageClip extentID="203" gapBefore="0" mediaItemID="199" duration="3">
      <Effects />
      <Transitions />
      <BoundProperties>
        <BoundPropertyInt Name="rotateStepNinety" Value="0" />
      </BoundProperties>
    </ImageClip>
    <ImageClip extentID="204" gapBefore="0" mediaItemID="200" duration="3">
      <Effects />
      <Transitions />
      <BoundProperties>
        <BoundPropertyInt Name="rotateStepNinety" Value="0" />
      </BoundProperties>
    </ImageClip>
    <ImageClip extentID="205" gapBefore="0" mediaItemID="201" duration="3">
      <Effects />
      <Transitions />
      <BoundProperties>
        <BoundPropertyInt Name="rotateStepNinety" Value="0" />
      </BoundProperties>
    </ImageClip>
    <ImageClip extentID="206" gapBefore="0" mediaItemID="202" duration="3">
      <Effects />
      <Transitions />
      <BoundProperties>
        <BoundPropertyInt Name="rotateStepNinety" Value="0" />
      </BoundProperties>
    </ImageClip>
    <ImageClip extentID="207" gapBefore="0" mediaItemID="203" duration="3">
      <Effects />
      <Transitions />
      <BoundProperties>
        <BoundPropertyInt Name="rotateStepNinety" Value="0" />
      </BoundProperties>
    </ImageClip>
    <ImageClip extentID="208" gapBefore="0" mediaItemID="204" duration="3">
      <Effects />
      <Transitions />
      <BoundProperties>
        <BoundPropertyInt Name="rotateStepNinety" Value="0" />
      </BoundProperties>
    </ImageClip>
    <ImageClip extentID="209" gapBefore="0" mediaItemID="205" duration="3">
      <Effects />
      <Transitions />
      <BoundProperties>
        <BoundPropertyInt Name="rotateStepNinety" Value="0" />
      </BoundProperties>
    </ImageClip>
    <ImageClip extentID="210" gapBefore="0" mediaItemID="206" duration="3">
      <Effects />
      <Transitions />
      <BoundProperties>
        <BoundPropertyInt Name="rotateStepNinety" Value="0" />
      </BoundProperties>
    </ImageClip>
    <ImageClip extentID="211" gapBefore="0" mediaItemID="207" duration="3">
      <Effects />
      <Transitions />
      <BoundProperties>
        <BoundPropertyInt Name="rotateStepNinety" Value="0" />
      </BoundProperties>
    </ImageClip>
    <ImageClip extentID="212" gapBefore="0" mediaItemID="208" duration="3">
      <Effects />
      <Transitions />
      <BoundProperties>
        <BoundPropertyInt Name="rotateStepNinety" Value="0" />
      </BoundProperties>
    </ImageClip>
    <ImageClip extentID="213" gapBefore="0" mediaItemID="209" duration="3">
      <Effects />
      <Transitions />
      <BoundProperties>
        <BoundPropertyInt Name="rotateStepNinety" Value="0" />
      </BoundProperties>
    </ImageClip>
    <ImageClip extentID="214" gapBefore="0" mediaItemID="210" duration="3">
      <Effects />
      <Transitions />
      <BoundProperties>
        <BoundPropertyInt Name="rotateStepNinety" Value="0" />
      </BoundProperties>
    </ImageClip>
    <ImageClip extentID="215" gapBefore="0" mediaItemID="211" duration="3">
      <Effects />
      <Transitions />
      <BoundProperties>
        <BoundPropertyInt Name="rotateStepNinety" Value="0" />
      </BoundProperties>
    </ImageClip>
    <ImageClip extentID="216" gapBefore="0" mediaItemID="212" duration="3">
      <Effects />
      <Transitions />
      <BoundProperties>
        <BoundPropertyInt Name="rotateStepNinety" Value="0" />
      </BoundProperties>
    </ImageClip>
    <ImageClip extentID="217" gapBefore="0" mediaItemID="213" duration="3">
      <Effects />
      <Transitions />
      <BoundProperties>
        <BoundPropertyInt Name="rotateStepNinety" Value="0" />
      </BoundProperties>
    </ImageClip>
    <ImageClip extentID="218" gapBefore="0" mediaItemID="214" duration="3">
      <Effects />
      <Transitions />
      <BoundProperties>
        <BoundPropertyInt Name="rotateStepNinety" Value="0" />
      </BoundProperties>
    </ImageClip>
    <ImageClip extentID="219" gapBefore="0" mediaItemID="215" duration="3">
      <Effects />
      <Transitions />
      <BoundProperties>
        <BoundPropertyInt Name="rotateStepNinety" Value="0" />
      </BoundProperties>
    </ImageClip>
    <ImageClip extentID="220" gapBefore="0" mediaItemID="216" duration="3">
      <Effects />
      <Transitions />
      <BoundProperties>
        <BoundPropertyInt Name="rotateStepNinety" Value="0" />
      </BoundProperties>
    </ImageClip>
    <ImageClip extentID="221" gapBefore="0" mediaItemID="217" duration="3">
      <Effects />
      <Transitions />
      <BoundProperties>
        <BoundPropertyInt Name="rotateStepNinety" Value="0" />
      </BoundProperties>
    </ImageClip>
    <ImageClip extentID="222" gapBefore="0" mediaItemID="218" duration="3">
      <Effects />
      <Transitions />
      <BoundProperties>
        <BoundPropertyInt Name="rotateStepNinety" Value="0" />
      </BoundProperties>
    </ImageClip>
    <ImageClip extentID="223" gapBefore="0" mediaItemID="219" duration="3">
      <Effects />
      <Transitions />
      <BoundProperties>
        <BoundPropertyInt Name="rotateStepNinety" Value="0" />
      </BoundProperties>
    </ImageClip>
    <ImageClip extentID="224" gapBefore="0" mediaItemID="220" duration="3">
      <Effects />
      <Transitions />
      <BoundProperties>
        <BoundPropertyInt Name="rotateStepNinety" Value="0" />
      </BoundProperties>
    </ImageClip>
    <ImageClip extentID="225" gapBefore="0" mediaItemID="221" duration="3">
      <Effects />
      <Transitions />
      <BoundProperties>
        <BoundPropertyInt Name="rotateStepNinety" Value="0" />
      </BoundProperties>
    </ImageClip>
    <ImageClip extentID="226" gapBefore="0" mediaItemID="222" duration="3">
      <Effects />
      <Transitions />
      <BoundProperties>
        <BoundPropertyInt Name="rotateStepNinety" Value="0" />
      </BoundProperties>
    </ImageClip>
    <ImageClip extentID="227" gapBefore="0" mediaItemID="223" duration="3">
      <Effects />
      <Transitions />
      <BoundProperties>
        <BoundPropertyInt Name="rotateStepNinety" Value="0" />
      </BoundProperties>
    </ImageClip>
    <ImageClip extentID="228" gapBefore="0" mediaItemID="224" duration="3">
      <Effects />
      <Transitions />
      <BoundProperties>
        <BoundPropertyInt Name="rotateStepNinety" Value="0" />
      </BoundProperties>
    </ImageClip>
    <ImageClip extentID="229" gapBefore="0" mediaItemID="225" duration="3">
      <Effects />
      <Transitions />
      <BoundProperties>
        <BoundPropertyInt Name="rotateStepNinety" Value="0" />
      </BoundProperties>
    </ImageClip>
    <ImageClip extentID="230" gapBefore="0" mediaItemID="226" duration="3">
      <Effects />
      <Transitions />
      <BoundProperties>
        <BoundPropertyInt Name="rotateStepNinety" Value="0" />
      </BoundProperties>
    </ImageClip>
    <ImageClip extentID="231" gapBefore="0" mediaItemID="227" duration="3">
      <Effects />
      <Transitions />
      <BoundProperties>
        <BoundPropertyInt Name="rotateStepNinety" Value="0" />
      </BoundProperties>
    </ImageClip>
    <ImageClip extentID="232" gapBefore="0" mediaItemID="228" duration="3">
      <Effects />
      <Transitions />
      <BoundProperties>
        <BoundPropertyInt Name="rotateStepNinety" Value="0" />
      </BoundProperties>
    </ImageClip>
    <ImageClip extentID="233" gapBefore="0" mediaItemID="229" duration="3">
      <Effects />
      <Transitions />
      <BoundProperties>
        <BoundPropertyInt Name="rotateStepNinety" Value="0" />
      </BoundProperties>
    </ImageClip>
    <ImageClip extentID="234" gapBefore="0" mediaItemID="230" duration="3">
      <Effects />
      <Transitions />
      <BoundProperties>
        <BoundPropertyInt Name="rotateStepNinety" Value="0" />
      </BoundProperties>
    </ImageClip>
    <ImageClip extentID="235" gapBefore="0" mediaItemID="231" duration="3">
      <Effects />
      <Transitions />
      <BoundProperties>
        <BoundPropertyInt Name="rotateStepNinety" Value="0" />
      </BoundProperties>
    </ImageClip>
    <ImageClip extentID="236" gapBefore="0" mediaItemID="232" duration="3">
      <Effects />
      <Transitions />
      <BoundProperties>
        <BoundPropertyInt Name="rotateStepNinety" Value="0" />
      </BoundProperties>
    </ImageClip>
    <ImageClip extentID="237" gapBefore="0" mediaItemID="233" duration="3">
      <Effects />
      <Transitions />
      <BoundProperties>
        <BoundPropertyInt Name="rotateStepNinety" Value="0" />
      </BoundProperties>
    </ImageClip>
    <ImageClip extentID="238" gapBefore="0" mediaItemID="234" duration="3">
      <Effects />
      <Transitions />
      <BoundProperties>
        <BoundPropertyInt Name="rotateStepNinety" Value="0" />
      </BoundProperties>
    </ImageClip>
    <ImageClip extentID="239" gapBefore="0" mediaItemID="235" duration="3">
      <Effects />
      <Transitions />
      <BoundProperties>
        <BoundPropertyInt Name="rotateStepNinety" Value="0" />
      </BoundProperties>
    </ImageClip>
    <ImageClip extentID="240" gapBefore="0" mediaItemID="236" duration="3">
      <Effects />
      <Transitions />
      <BoundProperties>
        <BoundPropertyInt Name="rotateStepNinety" Value="0" />
      </BoundProperties>
    </ImageClip>
    <ImageClip extentID="241" gapBefore="0" mediaItemID="237" duration="3">
      <Effects />
      <Transitions />
      <BoundProperties>
        <BoundPropertyInt Name="rotateStepNinety" Value="0" />
      </BoundProperties>
    </ImageClip>
    <ImageClip extentID="242" gapBefore="0" mediaItemID="238" duration="3">
      <Effects />
      <Transitions />
      <BoundProperties>
        <BoundPropertyInt Name="rotateStepNinety" Value="0" />
      </BoundProperties>
    </ImageClip>
    <ImageClip extentID="243" gapBefore="0" mediaItemID="239" duration="3">
      <Effects />
      <Transitions />
      <BoundProperties>
        <BoundPropertyInt Name="rotateStepNinety" Value="0" />
      </BoundProperties>
    </ImageClip>
    <ImageClip extentID="244" gapBefore="0" mediaItemID="240" duration="3">
      <Effects />
      <Transitions />
      <BoundProperties>
        <BoundPropertyInt Name="rotateStepNinety" Value="0" />
      </BoundProperties>
    </ImageClip>
    <ImageClip extentID="245" gapBefore="0" mediaItemID="241" duration="3">
      <Effects />
      <Transitions />
      <BoundProperties>
        <BoundPropertyInt Name="rotateStepNinety" Value="0" />
      </BoundProperties>
    </ImageClip>
    <ImageClip extentID="246" gapBefore="0" mediaItemID="242" duration="3">
      <Effects />
      <Transitions />
      <BoundProperties>
        <BoundPropertyInt Name="rotateStepNinety" Value="0" />
      </BoundProperties>
    </ImageClip>
    <ImageClip extentID="247" gapBefore="0" mediaItemID="243" duration="3">
      <Effects />
      <Transitions />
      <BoundProperties>
        <BoundPropertyInt Name="rotateStepNinety" Value="0" />
      </BoundProperties>
    </ImageClip>
    <ImageClip extentID="248" gapBefore="0" mediaItemID="244" duration="3">
      <Effects />
      <Transitions />
      <BoundProperties>
        <BoundPropertyInt Name="rotateStepNinety" Value="0" />
      </BoundProperties>
    </ImageClip>
    <ImageClip extentID="249" gapBefore="0" mediaItemID="245" duration="3">
      <Effects />
      <Transitions />
      <BoundProperties>
        <BoundPropertyInt Name="rotateStepNinety" Value="0" />
      </BoundProperties>
    </ImageClip>
    <ImageClip extentID="250" gapBefore="0" mediaItemID="246" duration="3">
      <Effects />
      <Transitions />
      <BoundProperties>
        <BoundPropertyInt Name="rotateStepNinety" Value="0" />
      </BoundProperties>
    </ImageClip>
    <ImageClip extentID="251" gapBefore="0" mediaItemID="247" duration="3">
      <Effects />
      <Transitions />
      <BoundProperties>
        <BoundPropertyInt Name="rotateStepNinety" Value="0" />
      </BoundProperties>
    </ImageClip>
    <ImageClip extentID="252" gapBefore="0" mediaItemID="248" duration="3">
      <Effects />
      <Transitions />
      <BoundProperties>
        <BoundPropertyInt Name="rotateStepNinety" Value="0" />
      </BoundProperties>
    </ImageClip>
    <ImageClip extentID="253" gapBefore="0" mediaItemID="249" duration="3">
      <Effects />
      <Transitions />
      <BoundProperties>
        <BoundPropertyInt Name="rotateStepNinety" Value="0" />
      </BoundProperties>
    </ImageClip>
    <ImageClip extentID="254" gapBefore="0" mediaItemID="250" duration="3">
      <Effects />
      <Transitions />
      <BoundProperties>
        <BoundPropertyInt Name="rotateStepNinety" Value="0" />
      </BoundProperties>
    </ImageClip>
    <ImageClip extentID="255" gapBefore="0" mediaItemID="251" duration="3">
      <Effects />
      <Transitions />
      <BoundProperties>
        <BoundPropertyInt Name="rotateStepNinety" Value="0" />
      </BoundProperties>
    </ImageClip>
    <ImageClip extentID="256" gapBefore="0" mediaItemID="252" duration="3">
      <Effects />
      <Transitions />
      <BoundProperties>
        <BoundPropertyInt Name="rotateStepNinety" Value="0" />
      </BoundProperties>
    </ImageClip>
    <ImageClip extentID="257" gapBefore="0" mediaItemID="253" duration="3">
      <Effects />
      <Transitions />
      <BoundProperties>
        <BoundPropertyInt Name="rotateStepNinety" Value="0" />
      </BoundProperties>
    </ImageClip>
    <ImageClip extentID="258" gapBefore="0" mediaItemID="254" duration="3">
      <Effects />
      <Transitions />
      <BoundProperties>
        <BoundPropertyInt Name="rotateStepNinety" Value="0" />
      </BoundProperties>
    </ImageClip>
    <ImageClip extentID="259" gapBefore="0" mediaItemID="255" duration="3">
      <Effects />
      <Transitions />
      <BoundProperties>
        <BoundPropertyInt Name="rotateStepNinety" Value="0" />
      </BoundProperties>
    </ImageClip>
    <ImageClip extentID="260" gapBefore="0" mediaItemID="256" duration="3">
      <Effects />
      <Transitions />
      <BoundProperties>
        <BoundPropertyInt Name="rotateStepNinety" Value="0" />
      </BoundProperties>
    </ImageClip>
    <ImageClip extentID="261" gapBefore="0" mediaItemID="257" duration="3">
      <Effects />
      <Transitions />
      <BoundProperties>
        <BoundPropertyInt Name="rotateStepNinety" Value="0" />
      </BoundProperties>
    </ImageClip>
    <ImageClip extentID="262" gapBefore="0" mediaItemID="258" duration="3">
      <Effects />
      <Transitions />
      <BoundProperties>
        <BoundPropertyInt Name="rotateStepNinety" Value="0" />
      </BoundProperties>
    </ImageClip>
    <ImageClip extentID="263" gapBefore="0" mediaItemID="259" duration="3">
      <Effects />
      <Transitions />
      <BoundProperties>
        <BoundPropertyInt Name="rotateStepNinety" Value="0" />
      </BoundProperties>
    </ImageClip>
    <ImageClip extentID="264" gapBefore="0" mediaItemID="260" duration="3">
      <Effects />
      <Transitions />
      <BoundProperties>
        <BoundPropertyInt Name="rotateStepNinety" Value="0" />
      </BoundProperties>
    </ImageClip>
    <ImageClip extentID="265" gapBefore="0" mediaItemID="261" duration="3">
      <Effects />
      <Transitions />
      <BoundProperties>
        <BoundPropertyInt Name="rotateStepNinety" Value="0" />
      </BoundProperties>
    </ImageClip>
    <ImageClip extentID="266" gapBefore="0" mediaItemID="262" duration="3">
      <Effects />
      <Transitions />
      <BoundProperties>
        <BoundPropertyInt Name="rotateStepNinety" Value="0" />
      </BoundProperties>
    </ImageClip>
    <ImageClip extentID="267" gapBefore="0" mediaItemID="263" duration="3">
      <Effects />
      <Transitions />
      <BoundProperties>
        <BoundPropertyInt Name="rotateStepNinety" Value="0" />
      </BoundProperties>
    </ImageClip>
    <ImageClip extentID="268" gapBefore="0" mediaItemID="264" duration="3">
      <Effects />
      <Transitions />
      <BoundProperties>
        <BoundPropertyInt Name="rotateStepNinety" Value="0" />
      </BoundProperties>
    </ImageClip>
    <ImageClip extentID="269" gapBefore="0" mediaItemID="265" duration="3">
      <Effects />
      <Transitions />
      <BoundProperties>
        <BoundPropertyInt Name="rotateStepNinety" Value="0" />
      </BoundProperties>
    </ImageClip>
    <ImageClip extentID="270" gapBefore="0" mediaItemID="266" duration="3">
      <Effects />
      <Transitions />
      <BoundProperties>
        <BoundPropertyInt Name="rotateStepNinety" Value="0" />
      </BoundProperties>
    </ImageClip>
    <ImageClip extentID="271" gapBefore="0" mediaItemID="267" duration="3">
      <Effects />
      <Transitions />
      <BoundProperties>
        <BoundPropertyInt Name="rotateStepNinety" Value="0" />
      </BoundProperties>
    </ImageClip>
    <ImageClip extentID="272" gapBefore="0" mediaItemID="268" duration="3">
      <Effects />
      <Transitions />
      <BoundProperties>
        <BoundPropertyInt Name="rotateStepNinety" Value="0" />
      </BoundProperties>
    </ImageClip>
    <ImageClip extentID="273" gapBefore="0" mediaItemID="269" duration="3">
      <Effects />
      <Transitions />
      <BoundProperties>
        <BoundPropertyInt Name="rotateStepNinety" Value="0" />
      </BoundProperties>
    </ImageClip>
    <ImageClip extentID="274" gapBefore="0" mediaItemID="270" duration="3">
      <Effects />
      <Transitions />
      <BoundProperties>
        <BoundPropertyInt Name="rotateStepNinety" Value="0" />
      </BoundProperties>
    </ImageClip>
    <ImageClip extentID="275" gapBefore="0" mediaItemID="271" duration="3">
      <Effects />
      <Transitions />
      <BoundProperties>
        <BoundPropertyInt Name="rotateStepNinety" Value="0" />
      </BoundProperties>
    </ImageClip>
    <ImageClip extentID="276" gapBefore="0" mediaItemID="272" duration="3">
      <Effects />
      <Transitions />
      <BoundProperties>
        <BoundPropertyInt Name="rotateStepNinety" Value="0" />
      </BoundProperties>
    </ImageClip>
    <ImageClip extentID="277" gapBefore="0" mediaItemID="273" duration="3">
      <Effects />
      <Transitions />
      <BoundProperties>
        <BoundPropertyInt Name="rotateStepNinety" Value="0" />
      </BoundProperties>
    </ImageClip>
    <ImageClip extentID="278" gapBefore="0" mediaItemID="274" duration="3">
      <Effects />
      <Transitions />
      <BoundProperties>
        <BoundPropertyInt Name="rotateStepNinety" Value="0" />
      </BoundProperties>
    </ImageClip>
    <ImageClip extentID="279" gapBefore="0" mediaItemID="275" duration="3">
      <Effects />
      <Transitions />
      <BoundProperties>
        <BoundPropertyInt Name="rotateStepNinety" Value="0" />
      </BoundProperties>
    </ImageClip>
    <ImageClip extentID="280" gapBefore="0" mediaItemID="276" duration="3">
      <Effects />
      <Transitions />
      <BoundProperties>
        <BoundPropertyInt Name="rotateStepNinety" Value="0" />
      </BoundProperties>
    </ImageClip>
    <ImageClip extentID="281" gapBefore="0" mediaItemID="277" duration="3">
      <Effects />
      <Transitions />
      <BoundProperties>
        <BoundPropertyInt Name="rotateStepNinety" Value="0" />
      </BoundProperties>
    </ImageClip>
    <ImageClip extentID="282" gapBefore="0" mediaItemID="278" duration="3">
      <Effects />
      <Transitions />
      <BoundProperties>
        <BoundPropertyInt Name="rotateStepNinety" Value="0" />
      </BoundProperties>
    </ImageClip>
    <ImageClip extentID="283" gapBefore="0" mediaItemID="279" duration="3">
      <Effects />
      <Transitions />
      <BoundProperties>
        <BoundPropertyInt Name="rotateStepNinety" Value="0" />
      </BoundProperties>
    </ImageClip>
    <ImageClip extentID="284" gapBefore="0" mediaItemID="280" duration="3">
      <Effects />
      <Transitions />
      <BoundProperties>
        <BoundPropertyInt Name="rotateStepNinety" Value="0" />
      </BoundProperties>
    </ImageClip>
    <ImageClip extentID="285" gapBefore="0" mediaItemID="281" duration="3">
      <Effects />
      <Transitions />
      <BoundProperties>
        <BoundPropertyInt Name="rotateStepNinety" Value="0" />
      </BoundProperties>
    </ImageClip>
    <ImageClip extentID="286" gapBefore="0" mediaItemID="282" duration="3">
      <Effects />
      <Transitions />
      <BoundProperties>
        <BoundPropertyInt Name="rotateStepNinety" Value="0" />
      </BoundProperties>
    </ImageClip>
    <ImageClip extentID="287" gapBefore="0" mediaItemID="283" duration="3">
      <Effects />
      <Transitions />
      <BoundProperties>
        <BoundPropertyInt Name="rotateStepNinety" Value="0" />
      </BoundProperties>
    </ImageClip>
    <ImageClip extentID="288" gapBefore="0" mediaItemID="284" duration="3">
      <Effects />
      <Transitions />
      <BoundProperties>
        <BoundPropertyInt Name="rotateStepNinety" Value="0" />
      </BoundProperties>
    </ImageClip>
    <ImageClip extentID="289" gapBefore="0" mediaItemID="285" duration="3">
      <Effects />
      <Transitions />
      <BoundProperties>
        <BoundPropertyInt Name="rotateStepNinety" Value="0" />
      </BoundProperties>
    </ImageClip>
    <ImageClip extentID="290" gapBefore="0" mediaItemID="286" duration="3">
      <Effects />
      <Transitions />
      <BoundProperties>
        <BoundPropertyInt Name="rotateStepNinety" Value="0" />
      </BoundProperties>
    </ImageClip>
    <ImageClip extentID="291" gapBefore="0" mediaItemID="287" duration="3">
      <Effects />
      <Transitions />
      <BoundProperties>
        <BoundPropertyInt Name="rotateStepNinety" Value="0" />
      </BoundProperties>
    </ImageClip>
    <ImageClip extentID="292" gapBefore="0" mediaItemID="288" duration="3">
      <Effects />
      <Transitions />
      <BoundProperties>
        <BoundPropertyInt Name="rotateStepNinety" Value="0" />
      </BoundProperties>
    </ImageClip>
    <ImageClip extentID="293" gapBefore="0" mediaItemID="289" duration="3">
      <Effects />
      <Transitions />
      <BoundProperties>
        <BoundPropertyInt Name="rotateStepNinety" Value="0" />
      </BoundProperties>
    </ImageClip>
    <ImageClip extentID="294" gapBefore="0" mediaItemID="290" duration="3">
      <Effects />
      <Transitions />
      <BoundProperties>
        <BoundPropertyInt Name="rotateStepNinety" Value="0" />
      </BoundProperties>
    </ImageClip>
    <ImageClip extentID="295" gapBefore="0" mediaItemID="291" duration="3">
      <Effects />
      <Transitions />
      <BoundProperties>
        <BoundPropertyInt Name="rotateStepNinety" Value="0" />
      </BoundProperties>
    </ImageClip>
    <ImageClip extentID="296" gapBefore="0" mediaItemID="292" duration="3">
      <Effects />
      <Transitions />
      <BoundProperties>
        <BoundPropertyInt Name="rotateStepNinety" Value="0" />
      </BoundProperties>
    </ImageClip>
    <ImageClip extentID="297" gapBefore="0" mediaItemID="293" duration="3">
      <Effects />
      <Transitions />
      <BoundProperties>
        <BoundPropertyInt Name="rotateStepNinety" Value="0" />
      </BoundProperties>
    </ImageClip>
    <ImageClip extentID="298" gapBefore="0" mediaItemID="294" duration="3">
      <Effects />
      <Transitions />
      <BoundProperties>
        <BoundPropertyInt Name="rotateStepNinety" Value="0" />
      </BoundProperties>
    </ImageClip>
    <ImageClip extentID="299" gapBefore="0" mediaItemID="295" duration="3">
      <Effects />
      <Transitions />
      <BoundProperties>
        <BoundPropertyInt Name="rotateStepNinety" Value="0" />
      </BoundProperties>
    </ImageClip>
    <ImageClip extentID="300" gapBefore="0" mediaItemID="296" duration="3">
      <Effects />
      <Transitions />
      <BoundProperties>
        <BoundPropertyInt Name="rotateStepNinety" Value="0" />
      </BoundProperties>
    </ImageClip>
    <ImageClip extentID="301" gapBefore="0" mediaItemID="297" duration="3">
      <Effects />
      <Transitions />
      <BoundProperties>
        <BoundPropertyInt Name="rotateStepNinety" Value="0" />
      </BoundProperties>
    </ImageClip>
    <ImageClip extentID="302" gapBefore="0" mediaItemID="298" duration="3">
      <Effects />
      <Transitions />
      <BoundProperties>
        <BoundPropertyInt Name="rotateStepNinety" Value="0" />
      </BoundProperties>
    </ImageClip>
    <ImageClip extentID="303" gapBefore="0" mediaItemID="299" duration="3">
      <Effects />
      <Transitions />
      <BoundProperties>
        <BoundPropertyInt Name="rotateStepNinety" Value="0" />
      </BoundProperties>
    </ImageClip>
    <ImageClip extentID="304" gapBefore="0" mediaItemID="300" duration="3">
      <Effects />
      <Transitions />
      <BoundProperties>
        <BoundPropertyInt Name="rotateStepNinety" Value="0" />
      </BoundProperties>
    </ImageClip>
    <ImageClip extentID="305" gapBefore="0" mediaItemID="301" duration="3">
      <Effects />
      <Transitions />
      <BoundProperties>
        <BoundPropertyInt Name="rotateStepNinety" Value="0" />
      </BoundProperties>
    </ImageClip>
    <ImageClip extentID="306" gapBefore="0" mediaItemID="302" duration="3">
      <Effects />
      <Transitions />
      <BoundProperties>
        <BoundPropertyInt Name="rotateStepNinety" Value="0" />
      </BoundProperties>
    </ImageClip>
    <ImageClip extentID="307" gapBefore="0" mediaItemID="303" duration="3">
      <Effects />
      <Transitions />
      <BoundProperties>
        <BoundPropertyInt Name="rotateStepNinety" Value="0" />
      </BoundProperties>
    </ImageClip>
    <ImageClip extentID="308" gapBefore="0" mediaItemID="304" duration="3">
      <Effects />
      <Transitions />
      <BoundProperties>
        <BoundPropertyInt Name="rotateStepNinety" Value="0" />
      </BoundProperties>
    </ImageClip>
    <ImageClip extentID="309" gapBefore="0" mediaItemID="305" duration="3">
      <Effects />
      <Transitions />
      <BoundProperties>
        <BoundPropertyInt Name="rotateStepNinety" Value="0" />
      </BoundProperties>
    </ImageClip>
    <ImageClip extentID="310" gapBefore="0" mediaItemID="306" duration="3">
      <Effects />
      <Transitions />
      <BoundProperties>
        <BoundPropertyInt Name="rotateStepNinety" Value="0" />
      </BoundProperties>
    </ImageClip>
    <ImageClip extentID="311" gapBefore="0" mediaItemID="307" duration="3">
      <Effects />
      <Transitions />
      <BoundProperties>
        <BoundPropertyInt Name="rotateStepNinety" Value="0" />
      </BoundProperties>
    </ImageClip>
    <ImageClip extentID="312" gapBefore="0" mediaItemID="308" duration="3">
      <Effects />
      <Transitions />
      <BoundProperties>
        <BoundPropertyInt Name="rotateStepNinety" Value="0" />
      </BoundProperties>
    </ImageClip>
    <ImageClip extentID="313" gapBefore="0" mediaItemID="309" duration="3">
      <Effects />
      <Transitions />
      <BoundProperties>
        <BoundPropertyInt Name="rotateStepNinety" Value="0" />
      </BoundProperties>
    </ImageClip>
    <ImageClip extentID="314" gapBefore="0" mediaItemID="310" duration="3">
      <Effects />
      <Transitions />
      <BoundProperties>
        <BoundPropertyInt Name="rotateStepNinety" Value="0" />
      </BoundProperties>
    </ImageClip>
    <ImageClip extentID="315" gapBefore="0" mediaItemID="311" duration="3">
      <Effects />
      <Transitions />
      <BoundProperties>
        <BoundPropertyInt Name="rotateStepNinety" Value="0" />
      </BoundProperties>
    </ImageClip>
    <ImageClip extentID="316" gapBefore="0" mediaItemID="312" duration="3">
      <Effects />
      <Transitions />
      <BoundProperties>
        <BoundPropertyInt Name="rotateStepNinety" Value="0" />
      </BoundProperties>
    </ImageClip>
    <ImageClip extentID="317" gapBefore="0" mediaItemID="313" duration="3">
      <Effects />
      <Transitions />
      <BoundProperties>
        <BoundPropertyInt Name="rotateStepNinety" Value="0" />
      </BoundProperties>
    </ImageClip>
    <ImageClip extentID="318" gapBefore="0" mediaItemID="314" duration="3">
      <Effects />
      <Transitions />
      <BoundProperties>
        <BoundPropertyInt Name="rotateStepNinety" Value="0" />
      </BoundProperties>
    </ImageClip>
    <ImageClip extentID="319" gapBefore="0" mediaItemID="315" duration="3">
      <Effects />
      <Transitions />
      <BoundProperties>
        <BoundPropertyInt Name="rotateStepNinety" Value="0" />
      </BoundProperties>
    </ImageClip>
    <ImageClip extentID="320" gapBefore="0" mediaItemID="316" duration="3">
      <Effects />
      <Transitions />
      <BoundProperties>
        <BoundPropertyInt Name="rotateStepNinety" Value="0" />
      </BoundProperties>
    </ImageClip>
    <ImageClip extentID="321" gapBefore="0" mediaItemID="317" duration="3">
      <Effects />
      <Transitions />
      <BoundProperties>
        <BoundPropertyInt Name="rotateStepNinety" Value="0" />
      </BoundProperties>
    </ImageClip>
    <ImageClip extentID="322" gapBefore="0" mediaItemID="318" duration="3">
      <Effects />
      <Transitions />
      <BoundProperties>
        <BoundPropertyInt Name="rotateStepNinety" Value="0" />
      </BoundProperties>
    </ImageClip>
    <ImageClip extentID="323" gapBefore="0" mediaItemID="319" duration="3">
      <Effects />
      <Transitions />
      <BoundProperties>
        <BoundPropertyInt Name="rotateStepNinety" Value="0" />
      </BoundProperties>
    </ImageClip>
    <ImageClip extentID="324" gapBefore="0" mediaItemID="320" duration="3">
      <Effects />
      <Transitions />
      <BoundProperties>
        <BoundPropertyInt Name="rotateStepNinety" Value="0" />
      </BoundProperties>
    </ImageClip>
    <ImageClip extentID="325" gapBefore="0" mediaItemID="321" duration="3">
      <Effects />
      <Transitions />
      <BoundProperties>
        <BoundPropertyInt Name="rotateStepNinety" Value="0" />
      </BoundProperties>
    </ImageClip>
    <ImageClip extentID="326" gapBefore="0" mediaItemID="322" duration="3">
      <Effects />
      <Transitions />
      <BoundProperties>
        <BoundPropertyInt Name="rotateStepNinety" Value="0" />
      </BoundProperties>
    </ImageClip>
    <ImageClip extentID="327" gapBefore="0" mediaItemID="323" duration="3">
      <Effects />
      <Transitions />
      <BoundProperties>
        <BoundPropertyInt Name="rotateStepNinety" Value="0" />
      </BoundProperties>
    </ImageClip>
    <ImageClip extentID="328" gapBefore="0" mediaItemID="324" duration="3">
      <Effects />
      <Transitions />
      <BoundProperties>
        <BoundPropertyInt Name="rotateStepNinety" Value="0" />
      </BoundProperties>
    </ImageClip>
    <ImageClip extentID="329" gapBefore="0" mediaItemID="325" duration="3">
      <Effects />
      <Transitions />
      <BoundProperties>
        <BoundPropertyInt Name="rotateStepNinety" Value="0" />
      </BoundProperties>
    </ImageClip>
    <ImageClip extentID="330" gapBefore="0" mediaItemID="326" duration="3">
      <Effects />
      <Transitions />
      <BoundProperties>
        <BoundPropertyInt Name="rotateStepNinety" Value="0" />
      </BoundProperties>
    </ImageClip>
    <ImageClip extentID="331" gapBefore="0" mediaItemID="327" duration="3">
      <Effects />
      <Transitions />
      <BoundProperties>
        <BoundPropertyInt Name="rotateStepNinety" Value="0" />
      </BoundProperties>
    </ImageClip>
    <ImageClip extentID="332" gapBefore="0" mediaItemID="328" duration="3">
      <Effects />
      <Transitions />
      <BoundProperties>
        <BoundPropertyInt Name="rotateStepNinety" Value="0" />
      </BoundProperties>
    </ImageClip>
    <ImageClip extentID="333" gapBefore="0" mediaItemID="329" duration="3">
      <Effects />
      <Transitions />
      <BoundProperties>
        <BoundPropertyInt Name="rotateStepNinety" Value="0" />
      </BoundProperties>
    </ImageClip>
    <ImageClip extentID="334" gapBefore="0" mediaItemID="330" duration="3">
      <Effects />
      <Transitions />
      <BoundProperties>
        <BoundPropertyInt Name="rotateStepNinety" Value="0" />
      </BoundProperties>
    </ImageClip>
    <ImageClip extentID="335" gapBefore="0" mediaItemID="331" duration="3">
      <Effects />
      <Transitions />
      <BoundProperties>
        <BoundPropertyInt Name="rotateStepNinety" Value="0" />
      </BoundProperties>
    </ImageClip>
    <ImageClip extentID="336" gapBefore="0" mediaItemID="332" duration="3">
      <Effects />
      <Transitions />
      <BoundProperties>
        <BoundPropertyInt Name="rotateStepNinety" Value="0" />
      </BoundProperties>
    </ImageClip>
    <ImageClip extentID="337" gapBefore="0" mediaItemID="333" duration="3">
      <Effects />
      <Transitions />
      <BoundProperties>
        <BoundPropertyInt Name="rotateStepNinety" Value="0" />
      </BoundProperties>
    </ImageClip>
    <ImageClip extentID="338" gapBefore="0" mediaItemID="334" duration="3">
      <Effects />
      <Transitions />
      <BoundProperties>
        <BoundPropertyInt Name="rotateStepNinety" Value="0" />
      </BoundProperties>
    </ImageClip>
    <ImageClip extentID="339" gapBefore="0" mediaItemID="335" duration="3">
      <Effects />
      <Transitions />
      <BoundProperties>
        <BoundPropertyInt Name="rotateStepNinety" Value="0" />
      </BoundProperties>
    </ImageClip>
    <ImageClip extentID="340" gapBefore="0" mediaItemID="336" duration="3">
      <Effects />
      <Transitions />
      <BoundProperties>
        <BoundPropertyInt Name="rotateStepNinety" Value="0" />
      </BoundProperties>
    </ImageClip>
    <ImageClip extentID="341" gapBefore="0" mediaItemID="337" duration="3">
      <Effects />
      <Transitions />
      <BoundProperties>
        <BoundPropertyInt Name="rotateStepNinety" Value="0" />
      </BoundProperties>
    </ImageClip>
    <ImageClip extentID="342" gapBefore="0" mediaItemID="338" duration="3">
      <Effects />
      <Transitions />
      <BoundProperties>
        <BoundPropertyInt Name="rotateStepNinety" Value="0" />
      </BoundProperties>
    </ImageClip>
    <ImageClip extentID="343" gapBefore="0" mediaItemID="339" duration="3">
      <Effects />
      <Transitions />
      <BoundProperties>
        <BoundPropertyInt Name="rotateStepNinety" Value="0" />
      </BoundProperties>
    </ImageClip>
    <ImageClip extentID="344" gapBefore="0" mediaItemID="340" duration="3">
      <Effects />
      <Transitions />
      <BoundProperties>
        <BoundPropertyInt Name="rotateStepNinety" Value="0" />
      </BoundProperties>
    </ImageClip>
    <ImageClip extentID="345" gapBefore="0" mediaItemID="341" duration="3">
      <Effects />
      <Transitions />
      <BoundProperties>
        <BoundPropertyInt Name="rotateStepNinety" Value="0" />
      </BoundProperties>
    </ImageClip>
    <ImageClip extentID="346" gapBefore="0" mediaItemID="342" duration="3">
      <Effects />
      <Transitions />
      <BoundProperties>
        <BoundPropertyInt Name="rotateStepNinety" Value="0" />
      </BoundProperties>
    </ImageClip>
    <ImageClip extentID="347" gapBefore="0" mediaItemID="343" duration="3">
      <Effects />
      <Transitions />
      <BoundProperties>
        <BoundPropertyInt Name="rotateStepNinety" Value="0" />
      </BoundProperties>
    </ImageClip>
    <ImageClip extentID="348" gapBefore="0" mediaItemID="344" duration="3">
      <Effects />
      <Transitions />
      <BoundProperties>
        <BoundPropertyInt Name="rotateStepNinety" Value="0" />
      </BoundProperties>
    </ImageClip>
    <ImageClip extentID="349" gapBefore="0" mediaItemID="345" duration="3">
      <Effects />
      <Transitions />
      <BoundProperties>
        <BoundPropertyInt Name="rotateStepNinety" Value="0" />
      </BoundProperties>
    </ImageClip>
    <ImageClip extentID="350" gapBefore="0" mediaItemID="346" duration="3">
      <Effects />
      <Transitions />
      <BoundProperties>
        <BoundPropertyInt Name="rotateStepNinety" Value="0" />
      </BoundProperties>
    </ImageClip>
    <ImageClip extentID="351" gapBefore="0" mediaItemID="347" duration="3">
      <Effects />
      <Transitions />
      <BoundProperties>
        <BoundPropertyInt Name="rotateStepNinety" Value="0" />
      </BoundProperties>
    </ImageClip>
    <ImageClip extentID="352" gapBefore="0" mediaItemID="348" duration="3">
      <Effects />
      <Transitions />
      <BoundProperties>
        <BoundPropertyInt Name="rotateStepNinety" Value="0" />
      </BoundProperties>
    </ImageClip>
    <ImageClip extentID="353" gapBefore="0" mediaItemID="349" duration="3">
      <Effects />
      <Transitions />
      <BoundProperties>
        <BoundPropertyInt Name="rotateStepNinety" Value="0" />
      </BoundProperties>
    </ImageClip>
    <ImageClip extentID="354" gapBefore="0" mediaItemID="350" duration="3">
      <Effects />
      <Transitions />
      <BoundProperties>
        <BoundPropertyInt Name="rotateStepNinety" Value="0" />
      </BoundProperties>
    </ImageClip>
    <ImageClip extentID="355" gapBefore="0" mediaItemID="351" duration="3">
      <Effects />
      <Transitions />
      <BoundProperties>
        <BoundPropertyInt Name="rotateStepNinety" Value="0" />
      </BoundProperties>
    </ImageClip>
    <ImageClip extentID="356" gapBefore="0" mediaItemID="352" duration="3">
      <Effects />
      <Transitions />
      <BoundProperties>
        <BoundPropertyInt Name="rotateStepNinety" Value="0" />
      </BoundProperties>
    </ImageClip>
    <ImageClip extentID="357" gapBefore="0" mediaItemID="353" duration="3">
      <Effects />
      <Transitions />
      <BoundProperties>
        <BoundPropertyInt Name="rotateStepNinety" Value="0" />
      </BoundProperties>
    </ImageClip>
    <ImageClip extentID="358" gapBefore="0" mediaItemID="354" duration="3">
      <Effects />
      <Transitions />
      <BoundProperties>
        <BoundPropertyInt Name="rotateStepNinety" Value="0" />
      </BoundProperties>
    </ImageClip>
    <ImageClip extentID="359" gapBefore="0" mediaItemID="355" duration="3">
      <Effects />
      <Transitions />
      <BoundProperties>
        <BoundPropertyInt Name="rotateStepNinety" Value="0" />
      </BoundProperties>
    </ImageClip>
    <ImageClip extentID="360" gapBefore="0" mediaItemID="356" duration="3">
      <Effects />
      <Transitions />
      <BoundProperties>
        <BoundPropertyInt Name="rotateStepNinety" Value="0" />
      </BoundProperties>
    </ImageClip>
    <ImageClip extentID="361" gapBefore="0" mediaItemID="357" duration="3">
      <Effects />
      <Transitions />
      <BoundProperties>
        <BoundPropertyInt Name="rotateStepNinety" Value="0" />
      </BoundProperties>
    </ImageClip>
    <ImageClip extentID="362" gapBefore="0" mediaItemID="358" duration="3">
      <Effects />
      <Transitions />
      <BoundProperties>
        <BoundPropertyInt Name="rotateStepNinety" Value="0" />
      </BoundProperties>
    </ImageClip>
    <ImageClip extentID="363" gapBefore="0" mediaItemID="359" duration="3">
      <Effects />
      <Transitions />
      <BoundProperties>
        <BoundPropertyInt Name="rotateStepNinety" Value="0" />
      </BoundProperties>
    </ImageClip>
    <ImageClip extentID="364" gapBefore="0" mediaItemID="360" duration="3">
      <Effects />
      <Transitions />
      <BoundProperties>
        <BoundPropertyInt Name="rotateStepNinety" Value="0" />
      </BoundProperties>
    </ImageClip>
    <ImageClip extentID="365" gapBefore="0" mediaItemID="361" duration="3">
      <Effects />
      <Transitions />
      <BoundProperties>
        <BoundPropertyInt Name="rotateStepNinety" Value="0" />
      </BoundProperties>
    </ImageClip>
    <ImageClip extentID="366" gapBefore="0" mediaItemID="362" duration="3">
      <Effects />
      <Transitions />
      <BoundProperties>
        <BoundPropertyInt Name="rotateStepNinety" Value="0" />
      </BoundProperties>
    </ImageClip>
    <ImageClip extentID="367" gapBefore="0" mediaItemID="363" duration="3">
      <Effects />
      <Transitions />
      <BoundProperties>
        <BoundPropertyInt Name="rotateStepNinety" Value="0" />
      </BoundProperties>
    </ImageClip>
    <ImageClip extentID="368" gapBefore="0" mediaItemID="364" duration="3">
      <Effects />
      <Transitions />
      <BoundProperties>
        <BoundPropertyInt Name="rotateStepNinety" Value="0" />
      </BoundProperties>
    </ImageClip>
    <ImageClip extentID="369" gapBefore="0" mediaItemID="365" duration="3">
      <Effects />
      <Transitions />
      <BoundProperties>
        <BoundPropertyInt Name="rotateStepNinety" Value="0" />
      </BoundProperties>
    </ImageClip>
    <ExtentSelector extentID="1" gapBefore="0" primaryTrack="true">
      <Effects />
      <Transitions />
      <BoundProperties />
      <ExtentRefs>
        <ExtentRef id="5" />
        <ExtentRef id="6" />
        <ExtentRef id="7" />
        <ExtentRef id="8" />
        <ExtentRef id="9" />
        <ExtentRef id="10" />
        <ExtentRef id="11" />
        <ExtentRef id="12" />
        <ExtentRef id="13" />
        <ExtentRef id="14" />
        <ExtentRef id="15" />
        <ExtentRef id="16" />
        <ExtentRef id="17" />
        <ExtentRef id="18" />
        <ExtentRef id="19" />
        <ExtentRef id="20" />
        <ExtentRef id="21" />
        <ExtentRef id="22" />
        <ExtentRef id="23" />
        <ExtentRef id="24" />
        <ExtentRef id="25" />
        <ExtentRef id="26" />
        <ExtentRef id="27" />
        <ExtentRef id="28" />
        <ExtentRef id="29" />
        <ExtentRef id="30" />
        <ExtentRef id="31" />
        <ExtentRef id="32" />
        <ExtentRef id="33" />
        <ExtentRef id="34" />
        <ExtentRef id="35" />
        <ExtentRef id="36" />
        <ExtentRef id="37" />
        <ExtentRef id="38" />
        <ExtentRef id="39" />
        <ExtentRef id="40" />
        <ExtentRef id="41" />
        <ExtentRef id="42" />
        <ExtentRef id="43" />
        <ExtentRef id="44" />
        <ExtentRef id="45" />
        <ExtentRef id="46" />
        <ExtentRef id="47" />
        <ExtentRef id="48" />
        <ExtentRef id="49" />
        <ExtentRef id="50" />
        <ExtentRef id="51" />
        <ExtentRef id="52" />
        <ExtentRef id="53" />
        <ExtentRef id="54" />
        <ExtentRef id="55" />
        <ExtentRef id="56" />
        <ExtentRef id="57" />
        <ExtentRef id="58" />
        <ExtentRef id="59" />
        <ExtentRef id="60" />
        <ExtentRef id="61" />
        <ExtentRef id="62" />
        <ExtentRef id="63" />
        <ExtentRef id="64" />
        <ExtentRef id="65" />
        <ExtentRef id="66" />
        <ExtentRef id="67" />
        <ExtentRef id="68" />
        <ExtentRef id="69" />
        <ExtentRef id="70" />
        <ExtentRef id="71" />
        <ExtentRef id="72" />
        <ExtentRef id="73" />
        <ExtentRef id="74" />
        <ExtentRef id="75" />
        <ExtentRef id="76" />
        <ExtentRef id="77" />
        <ExtentRef id="78" />
        <ExtentRef id="79" />
        <ExtentRef id="80" />
        <ExtentRef id="81" />
        <ExtentRef id="82" />
        <ExtentRef id="83" />
        <ExtentRef id="84" />
        <ExtentRef id="85" />
        <ExtentRef id="86" />
        <ExtentRef id="87" />
        <ExtentRef id="88" />
        <ExtentRef id="89" />
        <ExtentRef id="90" />
        <ExtentRef id="91" />
        <ExtentRef id="92" />
        <ExtentRef id="93" />
        <ExtentRef id="94" />
        <ExtentRef id="95" />
        <ExtentRef id="96" />
        <ExtentRef id="97" />
        <ExtentRef id="98" />
        <ExtentRef id="99" />
        <ExtentRef id="100" />
        <ExtentRef id="101" />
        <ExtentRef id="102" />
        <ExtentRef id="103" />
        <ExtentRef id="104" />
        <ExtentRef id="105" />
        <ExtentRef id="106" />
        <ExtentRef id="107" />
        <ExtentRef id="108" />
        <ExtentRef id="109" />
        <ExtentRef id="110" />
        <ExtentRef id="111" />
        <ExtentRef id="112" />
        <ExtentRef id="113" />
        <ExtentRef id="114" />
        <ExtentRef id="115" />
        <ExtentRef id="116" />
        <ExtentRef id="117" />
        <ExtentRef id="118" />
        <ExtentRef id="119" />
        <ExtentRef id="120" />
        <ExtentRef id="121" />
        <ExtentRef id="122" />
        <ExtentRef id="123" />
        <ExtentRef id="124" />
        <ExtentRef id="125" />
        <ExtentRef id="126" />
        <ExtentRef id="127" />
        <ExtentRef id="128" />
        <ExtentRef id="129" />
        <ExtentRef id="130" />
        <ExtentRef id="131" />
        <ExtentRef id="132" />
        <ExtentRef id="133" />
        <ExtentRef id="134" />
        <ExtentRef id="135" />
        <ExtentRef id="136" />
        <ExtentRef id="137" />
        <ExtentRef id="138" />
        <ExtentRef id="139" />
        <ExtentRef id="140" />
        <ExtentRef id="141" />
        <ExtentRef id="142" />
        <ExtentRef id="143" />
        <ExtentRef id="144" />
        <ExtentRef id="145" />
        <ExtentRef id="146" />
        <ExtentRef id="147" />
        <ExtentRef id="148" />
        <ExtentRef id="149" />
        <ExtentRef id="150" />
        <ExtentRef id="151" />
        <ExtentRef id="152" />
        <ExtentRef id="153" />
        <ExtentRef id="154" />
        <ExtentRef id="155" />
        <ExtentRef id="156" />
        <ExtentRef id="157" />
        <ExtentRef id="158" />
        <ExtentRef id="159" />
        <ExtentRef id="160" />
        <ExtentRef id="161" />
        <ExtentRef id="162" />
        <ExtentRef id="163" />
        <ExtentRef id="164" />
        <ExtentRef id="165" />
        <ExtentRef id="166" />
        <ExtentRef id="167" />
        <ExtentRef id="168" />
        <ExtentRef id="169" />
        <ExtentRef id="170" />
        <ExtentRef id="171" />
        <ExtentRef id="172" />
        <ExtentRef id="173" />
        <ExtentRef id="174" />
        <ExtentRef id="175" />
        <ExtentRef id="176" />
        <ExtentRef id="177" />
        <ExtentRef id="178" />
        <ExtentRef id="179" />
        <ExtentRef id="180" />
        <ExtentRef id="181" />
        <ExtentRef id="182" />
        <ExtentRef id="183" />
        <ExtentRef id="184" />
        <ExtentRef id="185" />
        <ExtentRef id="186" />
        <ExtentRef id="187" />
        <ExtentRef id="188" />
        <ExtentRef id="189" />
        <ExtentRef id="190" />
        <ExtentRef id="191" />
        <ExtentRef id="192" />
        <ExtentRef id="193" />
        <ExtentRef id="194" />
        <ExtentRef id="195" />
        <ExtentRef id="196" />
        <ExtentRef id="197" />
        <ExtentRef id="198" />
        <ExtentRef id="199" />
        <ExtentRef id="200" />
        <ExtentRef id="201" />
        <ExtentRef id="202" />
        <ExtentRef id="203" />
        <ExtentRef id="204" />
        <ExtentRef id="205" />
        <ExtentRef id="206" />
        <ExtentRef id="207" />
        <ExtentRef id="208" />
        <ExtentRef id="209" />
        <ExtentRef id="210" />
        <ExtentRef id="211" />
        <ExtentRef id="212" />
        <ExtentRef id="213" />
        <ExtentRef id="214" />
        <ExtentRef id="215" />
        <ExtentRef id="216" />
        <ExtentRef id="217" />
        <ExtentRef id="218" />
        <ExtentRef id="219" />
        <ExtentRef id="220" />
        <ExtentRef id="221" />
        <ExtentRef id="222" />
        <ExtentRef id="223" />
        <ExtentRef id="224" />
        <ExtentRef id="225" />
        <ExtentRef id="226" />
        <ExtentRef id="227" />
        <ExtentRef id="228" />
        <ExtentRef id="229" />
        <ExtentRef id="230" />
        <ExtentRef id="231" />
        <ExtentRef id="232" />
        <ExtentRef id="233" />
        <ExtentRef id="234" />
        <ExtentRef id="235" />
        <ExtentRef id="236" />
        <ExtentRef id="237" />
        <ExtentRef id="238" />
        <ExtentRef id="239" />
        <ExtentRef id="240" />
        <ExtentRef id="241" />
        <ExtentRef id="242" />
        <ExtentRef id="243" />
        <ExtentRef id="244" />
        <ExtentRef id="245" />
        <ExtentRef id="246" />
        <ExtentRef id="247" />
        <ExtentRef id="248" />
        <ExtentRef id="249" />
        <ExtentRef id="250" />
        <ExtentRef id="251" />
        <ExtentRef id="252" />
        <ExtentRef id="253" />
        <ExtentRef id="254" />
        <ExtentRef id="255" />
        <ExtentRef id="256" />
        <ExtentRef id="257" />
        <ExtentRef id="258" />
        <ExtentRef id="259" />
        <ExtentRef id="260" />
        <ExtentRef id="261" />
        <ExtentRef id="262" />
        <ExtentRef id="263" />
        <ExtentRef id="264" />
        <ExtentRef id="265" />
        <ExtentRef id="266" />
        <ExtentRef id="267" />
        <ExtentRef id="268" />
        <ExtentRef id="269" />
        <ExtentRef id="270" />
        <ExtentRef id="271" />
        <ExtentRef id="272" />
        <ExtentRef id="273" />
        <ExtentRef id="274" />
        <ExtentRef id="275" />
        <ExtentRef id="276" />
        <ExtentRef id="277" />
        <ExtentRef id="278" />
        <ExtentRef id="279" />
        <ExtentRef id="280" />
        <ExtentRef id="281" />
        <ExtentRef id="282" />
        <ExtentRef id="283" />
        <ExtentRef id="284" />
        <ExtentRef id="285" />
        <ExtentRef id="286" />
        <ExtentRef id="287" />
        <ExtentRef id="288" />
        <ExtentRef id="289" />
        <ExtentRef id="290" />
        <ExtentRef id="291" />
        <ExtentRef id="292" />
        <ExtentRef id="293" />
        <ExtentRef id="294" />
        <ExtentRef id="295" />
        <ExtentRef id="296" />
        <ExtentRef id="297" />
        <ExtentRef id="298" />
        <ExtentRef id="299" />
        <ExtentRef id="300" />
        <ExtentRef id="301" />
        <ExtentRef id="302" />
        <ExtentRef id="303" />
        <ExtentRef id="304" />
        <ExtentRef id="305" />
        <ExtentRef id="306" />
        <ExtentRef id="307" />
        <ExtentRef id="308" />
        <ExtentRef id="309" />
        <ExtentRef id="310" />
        <ExtentRef id="311" />
        <ExtentRef id="312" />
        <ExtentRef id="313" />
        <ExtentRef id="314" />
        <ExtentRef id="315" />
        <ExtentRef id="316" />
        <ExtentRef id="317" />
        <ExtentRef id="318" />
        <ExtentRef id="319" />
        <ExtentRef id="320" />
        <ExtentRef id="321" />
        <ExtentRef id="322" />
        <ExtentRef id="323" />
        <ExtentRef id="324" />
        <ExtentRef id="325" />
        <ExtentRef id="326" />
        <ExtentRef id="327" />
        <ExtentRef id="328" />
        <ExtentRef id="329" />
        <ExtentRef id="330" />
        <ExtentRef id="331" />
        <ExtentRef id="332" />
        <ExtentRef id="333" />
        <ExtentRef id="334" />
        <ExtentRef id="335" />
        <ExtentRef id="336" />
        <ExtentRef id="337" />
        <ExtentRef id="338" />
        <ExtentRef id="339" />
        <ExtentRef id="340" />
        <ExtentRef id="341" />
        <ExtentRef id="342" />
        <ExtentRef id="343" />
        <ExtentRef id="344" />
        <ExtentRef id="345" />
        <ExtentRef id="346" />
        <ExtentRef id="347" />
        <ExtentRef id="348" />
        <ExtentRef id="349" />
        <ExtentRef id="350" />
        <ExtentRef id="351" />
        <ExtentRef id="352" />
        <ExtentRef id="353" />
        <ExtentRef id="354" />
        <ExtentRef id="355" />
        <ExtentRef id="356" />
        <ExtentRef id="357" />
        <ExtentRef id="358" />
        <ExtentRef id="359" />
        <ExtentRef id="360" />
        <ExtentRef id="361" />
        <ExtentRef id="362" />
        <ExtentRef id="363" />
        <ExtentRef id="364" />
        <ExtentRef id="365" />
        <ExtentRef id="366" />
        <ExtentRef id="367" />
        <ExtentRef id="368" />
        <ExtentRef id="369" />
      </ExtentRefs>
    </ExtentSelector>
    <ExtentSelector extentID="2" gapBefore="0" primaryTrack="false">
      <Effects />
      <Transitions />
      <BoundProperties />
      <ExtentRefs />
    </ExtentSelector>
    <ExtentSelector extentID="3" gapBefore="0" primaryTrack="false">
      <Effects />
      <Transitions />
      <BoundProperties />
      <ExtentRefs />
    </ExtentSelector>
    <ExtentSelector extentID="4" gapBefore="0" primaryTrack="false">
      <Effects />
      <Transitions />
      <BoundProperties />
      <ExtentRefs />
    </ExtentSelector>
  </Extents>
  <BoundPlaceholders>
    <BoundPlaceholder placeholderID="SingleExtentView" extentID="0" />
    <BoundPlaceholder placeholderID="Main" extentID="1" />
    <BoundPlaceholder placeholderID="SoundTrack" extentID="2" />
    <BoundPlaceholder placeholderID="Narration" extentID="3" />
    <BoundPlaceholder placeholderID="Text" extentID="4" />
  </BoundPlaceholders>
  <BoundProperties>
    <BoundPropertyFloatSet Name="AspectRatio">
      <BoundPropertyFloatElement Value="1.7777776718139648" />
    </BoundPropertyFloatSet>
    <BoundPropertyFloat Name="DuckedNarrationAndSoundTrackMix" Value="0.5" />
    <BoundPropertyFloat Name="DuckedVideoAndNarrationMix" Value="0.5" />
    <BoundPropertyFloat Name="DuckedVideoAndSoundTrackMix" Value="0.5" />
    <BoundPropertyFloat Name="SoundTrackMix" Value="0.5" />
  </BoundProperties>
  <ThemeOperationLog themeID="0">
    <MonolithicThemeOperations />
  </ThemeOperationLog>
  <AudioDuckingProperties emphasisPlaceholderID="Narration" />
</Project>